<?xml version="1.0" encoding="UTF-8" standalone="no"?>
<!-- Created with Inkscape (http://www.inkscape.org/) -->

<svg
   xmlns:dc="http://purl.org/dc/elements/1.1/"
   xmlns:cc="http://creativecommons.org/ns#"
   xmlns:rdf="http://www.w3.org/1999/02/22-rdf-syntax-ns#"
   xmlns:svg="http://www.w3.org/2000/svg"
   xmlns="http://www.w3.org/2000/svg"
   xmlns:sodipodi="http://sodipodi.sourceforge.net/DTD/sodipodi-0.dtd"
   xmlns:inkscape="http://www.inkscape.org/namespaces/inkscape"
   version="1.1"
   id="svg2"
   xml:space="preserve"
   width="618.66669"
   height="648"
   viewBox="0 0 618.66669 648"
   sodipodi:docname="posterior_win.svg"
   inkscape:version="0.92.3 (2405546, 2018-03-11)"><metadata
     id="metadata8"><rdf:RDF><cc:Work
         rdf:about=""><dc:format>image/svg+xml</dc:format><dc:type
           rdf:resource="http://purl.org/dc/dcmitype/StillImage" /><dc:title></dc:title></cc:Work></rdf:RDF></metadata><defs
     id="defs6"><clipPath
       clipPathUnits="userSpaceOnUse"
       id="clipPath20"><path
         d="M 0,0 H 504 V 504 H 0 Z"
         id="path18"
         inkscape:connector-curvature="0" /></clipPath><clipPath
       clipPathUnits="userSpaceOnUse"
       id="clipPath30"><path
         d="M 54,54 H 500.4 V 500.4 H 54 Z"
         id="path28"
         inkscape:connector-curvature="0" /></clipPath><clipPath
       clipPathUnits="userSpaceOnUse"
       id="clipPath84"><path
         d="M 54,54 H 500.4 V 500.4 H 54 Z"
         id="path82"
         inkscape:connector-curvature="0" /></clipPath><clipPath
       clipPathUnits="userSpaceOnUse"
       id="clipPath124"><path
         d="M 54,54 H 500.4 V 500.4 H 54 Z"
         id="path122"
         inkscape:connector-curvature="0" /></clipPath></defs><sodipodi:namedview
     pagecolor="#ffffff"
     bordercolor="#666666"
     borderopacity="1"
     objecttolerance="10"
     gridtolerance="10"
     guidetolerance="10"
     inkscape:pageopacity="0"
     inkscape:pageshadow="2"
     inkscape:window-width="640"
     inkscape:window-height="480"
     id="namedview4"
     showgrid="false"
     inkscape:zoom="0.36419753"
     inkscape:cx="309.33334"
     inkscape:cy="324"
     inkscape:window-x="67"
     inkscape:window-y="27"
     inkscape:window-maximized="0"
     inkscape:current-layer="g10" /><g
     id="g10"
     inkscape:groupmode="layer"
     inkscape:label="posterior_win"
     transform="matrix(1.3333333,0,0,-1.3333333,0,648)"><g
       id="g12"
       transform="translate(-21,-13)"><g
         id="g14"><g
           id="g16"
           clip-path="url(#clipPath20)"><g
             id="g22" /><g
             id="g24"><g
               id="g26"
               clip-path="url(#clipPath30)"><path
                 d="m 70.53,70.53 0.83,0.13 0.83,0.13 0.82,0.13 0.83,0.14 0.83,0.15 0.82,0.15 0.83,0.15 0.83,0.16 0.82,0.16 0.83,0.17 0.83,0.18 0.82,0.18 0.83,0.19 0.83,0.2 0.82,0.2 0.83,0.21 0.83,0.21 0.82,0.22 0.83,0.23 0.83,0.24 0.82,0.24 0.83,0.25 0.83,0.26 0.82,0.27 0.83,0.28 0.83,0.28 0.82,0.3 0.83,0.3 0.83,0.31 0.82,0.32 0.83,0.33 0.83,0.34 0.82,0.36 0.83,0.36 0.83,0.37 0.82,0.38 0.83,0.4 0.83,0.4 0.82,0.42 0.83,0.43 0.83,0.44 0.82,0.46 0.83,0.47 0.83,0.48 0.82,0.49 0.83,0.51 0.83,0.52 0.82,0.53 0.83,0.55 0.83,0.57 0.82,0.58 0.83,0.59 0.83,0.61 0.82,0.63 0.83,0.64 0.83,0.66 0.82,0.67 0.83,0.7 0.83,0.71 0.82,0.73 0.83,0.74 0.83,0.77 0.82,0.78 0.83,0.8 0.83,0.82 0.82,0.84 0.83,0.86 0.83,0.88 0.82,0.9 0.83,0.92 0.83,0.95 0.82,0.96 0.83,0.99 0.83,1 0.82,1.03 0.83,1.05 0.83,1.08 0.82,1.1 0.83,1.12 0.83,1.14 0.82,1.17 0.83,1.2 0.83,1.21 0.82,1.25 0.83,1.26 0.83,1.3 0.82,1.31 0.83,1.35 0.83,1.37 0.82,1.39 0.83,1.43 0.83,1.45 0.82,1.47 0.83,1.5 0.83,1.53 0.82,1.56 0.83,1.59 0.83,1.61 0.82,1.64 0.83,1.67 0.83,1.7 0.82,1.72 0.83,1.76 0.83,1.78 0.82,1.81 0.83,1.84 0.83,1.87 0.82,1.9 0.83,1.92 0.83,1.96 0.82,1.98 0.83,2.02 0.83,2.04 0.82,2.07 0.83,2.1 0.83,2.13 0.82,2.16 0.83,2.19 0.83,2.22 0.82,2.24 0.83,2.28 0.83,2.3 0.82,2.33 0.83,2.36 0.83,2.38 0.82,2.42 0.83,2.44 0.83,2.46 0.82,2.5 0.83,2.52 0.83,2.55 0.82,2.58 0.83,2.6 0.83,2.62 0.82,2.65 0.83,2.68 0.83,2.7 0.82,2.72 0.83,2.75 0.83,2.77 0.82,2.79 0.83,2.82 0.83,2.83 0.82,2.86 0.83,2.88 0.83,2.89 0.82,2.92 0.83,2.94 0.83,2.95 0.82,2.97 0.83,2.99 0.83,3 0.82,3.02 0.83,3.03 0.83,3.05 0.82,3.06 0.83,3.08 0.83,3.08 0.82,3.1 0.83,3.1 0.83,3.12 0.82,3.12 0.83,3.13 0.83,3.14 0.82,3.14 0.83,3.15 0.83,3.15 0.82,3.16 0.83,3.15 0.83,3.16 0.82,3.16 0.83,3.16 0.83,3.15 0.82,3.15 0.83,3.15 0.83,3.14 0.82,3.14 0.83,3.13 0.83,3.12 0.82,3.11 0.83,3.1 0.83,3.09 0.82,3.08 0.83,3.06 0.83,3.05 0.82,3.03 0.83,3.02 0.83,2.99 0.82,2.98 0.83,2.96 0.83,2.94 0.82,2.91 0.83,2.89 0.83,2.87 0.82,2.83 0.83,2.82 0.83,2.78 0.82,2.76 0.83,2.72 0.83,2.69 0.82,2.66 0.83,2.63 0.83,2.59 0.82,2.56 0.83,2.51 0.83,2.49 0.82,2.44 0.83,2.4 0.83,2.36 0.82,2.32 0.83,2.27 0.83,2.23 0.82,2.19 0.83,2.14 0.83,2.1 0.82,2.04 0.83,2 0.83,1.95 0.82,1.89 0.83,1.85 0.83,1.79 0.82,1.74 0.83,1.69 0.83,1.63 0.82,1.58 0.83,1.52 0.83,1.46 0.82,1.41 0.83,1.35 0.83,1.29 0.82,1.23 0.83,1.18 0.83,1.11 0.82,1.05 0.83,0.99 0.83,0.93 0.82,0.86 0.83,0.81 0.83,0.74 0.82,0.68 0.83,0.61 0.83,0.55 0.82,0.49 0.83,0.42 0.83,0.35 0.82,0.3 0.83,0.22 0.83,0.17 0.82,0.09 0.83,0.04 0.83,-0.04 0.82,-0.09 0.83,-0.17 0.83,-0.22 0.82,-0.3 0.83,-0.35 0.83,-0.42 0.82,-0.49 0.83,-0.55 0.83,-0.61 0.82,-0.68 0.83,-0.74 0.83,-0.81 0.82,-0.86 0.83,-0.93 0.83,-0.99 0.82,-1.05 0.83,-1.11 0.83,-1.18 0.82,-1.23 0.83,-1.29 0.83,-1.35 0.82,-1.41 0.83,-1.46 0.83,-1.52 0.82,-1.58 0.83,-1.63 0.83,-1.69 0.82,-1.74 0.83,-1.79 0.83,-1.85 0.82,-1.89 0.83,-1.95 0.83,-2 0.82,-2.04 0.83,-2.1 0.83,-2.14 0.82,-2.19 0.83,-2.23 0.83,-2.27 0.82,-2.32 0.83,-2.36 0.83,-2.4 0.82,-2.44 0.83,-2.49 0.83,-2.51 0.82,-2.56 0.83,-2.59 0.83,-2.63 0.82,-2.66 0.83,-2.69 0.83,-2.72 0.82,-2.76 0.83,-2.78 0.83,-2.82 0.82,-2.83 0.83,-2.87 0.83,-2.89 0.82,-2.91 0.83,-2.94 0.83,-2.96 0.82,-2.98 0.83,-2.99 0.83,-3.02 0.82,-3.03 0.83,-3.05 0.83,-3.06 0.82,-3.08 0.83,-3.09 0.83,-3.1 0.82,-3.11 0.83,-3.12 0.83,-3.13 0.82,-3.14 0.83,-3.14 0.83,-3.15 0.82,-3.15 0.83,-3.15 0.83,-3.16 0.82,-3.16 0.83,-3.16 0.83,-3.15 0.82,-3.16 0.83,-3.15 0.83,-3.15 0.82,-3.14 0.83,-3.14 0.83,-3.13 0.82,-3.12 0.83,-3.12 0.83,-3.1 0.82,-3.1 0.83,-3.08 0.83,-3.08 0.82,-3.06 0.83,-3.05 0.83,-3.03 0.82,-3.02 0.83,-3 0.83,-2.99 0.82,-2.97 0.83,-2.95 0.83,-2.94 0.82,-2.92 0.83,-2.89 0.83,-2.88 0.82,-2.86 0.83,-2.83 0.83,-2.82 0.82,-2.79 0.83,-2.77 0.83,-2.75 0.82,-2.72 0.83,-2.7 0.83,-2.68 0.82,-2.65 0.83,-2.62 0.83,-2.6 0.82,-2.58 0.83,-2.55 0.83,-2.52 0.82,-2.5 0.83,-2.46 0.83,-2.44 0.82,-2.42 0.83,-2.38 0.83,-2.36 0.82,-2.33 0.83,-2.3 0.83,-2.28 0.82,-2.24 0.83,-2.22 0.83,-2.19 0.82,-2.16 0.83,-2.13 0.83,-2.1 0.82,-2.07 0.83,-2.04 0.83,-2.02 0.82,-1.98 0.83,-1.96 0.83,-1.92 0.82,-1.9 0.83,-1.87 0.83,-1.84 0.82,-1.81 0.83,-1.78 0.83,-1.76 0.82,-1.72 0.83,-1.7 0.83,-1.67 0.82,-1.64 0.83,-1.61 0.83,-1.59 0.82,-1.56 0.83,-1.53 0.83,-1.5 0.82,-1.47 0.83,-1.45 0.83,-1.43 0.82,-1.39 0.83,-1.37 0.83,-1.35 0.82,-1.31 0.83,-1.3 0.83,-1.26 0.82,-1.25 0.83,-1.21 0.83,-1.2 0.82,-1.17 0.83,-1.14 0.83,-1.12 0.82,-1.1 0.83,-1.08 0.83,-1.05 0.82,-1.03 0.83,-1 0.83,-0.99 0.82,-0.96 0.83,-0.95 0.83,-0.92 0.82,-0.9 0.83,-0.88 0.83,-0.86 0.82,-0.84 0.83,-0.82 0.83,-0.8 0.82,-0.78 0.83,-0.77 0.83,-0.74 0.82,-0.73 0.83,-0.71 0.83,-0.7 0.82,-0.67 0.83,-0.66 0.83,-0.64 0.82,-0.63 0.83,-0.61 0.83,-0.59 0.82,-0.58 0.83,-0.57 0.83,-0.55 0.82,-0.53 0.83,-0.52 0.83,-0.51 0.82,-0.49 0.83,-0.48 0.83,-0.47 0.82,-0.46 0.83,-0.44 0.83,-0.43 0.82,-0.42 0.83,-0.4 0.83,-0.4 0.82,-0.38 0.83,-0.37 0.83,-0.36 0.82,-0.36 0.83,-0.34 0.83,-0.33 0.82,-0.32 0.83,-0.31 0.83,-0.3 0.82,-0.3 0.83,-0.28 0.83,-0.28 0.82,-0.27 0.83,-0.26 0.83,-0.25 0.82,-0.24 0.83,-0.24 0.83,-0.23 0.82,-0.22 0.83,-0.21 0.83,-0.21 0.82,-0.2 0.83,-0.2 0.83,-0.19 0.82,-0.18 0.83,-0.18 0.83,-0.17 0.82,-0.16 0.83,-0.16 0.83,-0.15 0.82,-0.15 0.83,-0.15 0.83,-0.14 0.82,-0.13 0.83,-0.13 0.83,-0.13"
                 style="fill:none;stroke:#000000;stroke-width:1.5;stroke-linecap:round;stroke-linejoin:round;stroke-miterlimit:10;stroke-dasharray:4.5, 7.5;stroke-dashoffset:0;stroke-opacity:1"
                 id="path32"
                 inkscape:connector-curvature="0" /><path
                 d="m 70.53,71.29 0.83,0.13 0.83,0.12 0.82,0.14 0.83,0.13 0.83,0.14 0.82,0.14 0.83,0.15 0.83,0.15 0.82,0.16 0.83,0.16 0.83,0.16 0.82,0.17 0.83,0.17 0.83,0.18 0.82,0.18 0.83,0.19 0.83,0.19 0.82,0.19 0.83,0.21 0.83,0.2 0.82,0.21 0.83,0.22 0.83,0.22 0.82,0.23 0.83,0.23 0.83,0.24 0.82,0.24 0.83,0.25 0.83,0.26 0.82,0.26 0.83,0.27 0.83,0.28 0.82,0.28 0.83,0.29 0.83,0.29 0.82,0.3 0.83,0.31 0.83,0.32 0.82,0.32 0.83,0.33 0.83,0.34 0.82,0.34 0.83,0.35 0.83,0.36 0.82,0.37 0.83,0.38 0.83,0.38 0.82,0.39 0.83,0.4 0.83,0.41 0.82,0.42 0.83,0.43 0.83,0.43 0.82,0.45 0.83,0.45 0.83,0.46 0.82,0.47 0.83,0.48 0.83,0.49 0.82,0.5 0.83,0.51 0.83,0.52 0.82,0.53 0.83,0.54 0.83,0.55 0.82,0.56 0.83,0.57 0.83,0.58 0.82,0.59 0.83,0.61 0.83,0.61 0.82,0.62 0.83,0.64 0.83,0.65 0.82,0.66 0.83,0.67 0.83,0.68 0.82,0.69 0.83,0.7 0.83,0.72 0.82,0.73 0.83,0.74 0.83,0.75 0.82,0.77 0.83,0.78 0.83,0.79 0.82,0.8 0.83,0.81 0.83,0.83 0.82,0.84 0.83,0.85 0.83,0.87 0.82,0.88 0.83,0.89 0.83,0.91 0.82,0.92 0.83,0.93 0.83,0.94 0.82,0.96 0.83,0.97 0.83,0.99 0.82,1 0.83,1.01 0.83,1.03 0.82,1.04 0.83,1.05 0.83,1.07 0.82,1.08 0.83,1.1 0.83,1.11 0.82,1.12 0.83,1.14 0.83,1.15 0.82,1.16 0.83,1.18 0.83,1.19 0.82,1.21 0.83,1.22 0.83,1.24 0.82,1.24 0.83,1.27 0.83,1.27 0.82,1.29 0.83,1.3 0.83,1.32 0.82,1.33 0.83,1.35 0.83,1.36 0.82,1.37 0.83,1.38 0.83,1.4 0.82,1.41 0.83,1.43 0.83,1.44 0.82,1.45 0.83,1.46 0.83,1.48 0.82,1.49 0.83,1.51 0.83,1.51 0.82,1.53 0.83,1.54 0.83,1.56 0.82,1.56 0.83,1.58 0.83,1.59 0.82,1.6 0.83,1.62 0.83,1.62 0.82,1.64 0.83,1.65 0.83,1.66 0.82,1.67 0.83,1.68 0.83,1.69 0.82,1.71 0.83,1.71 0.83,1.72 0.82,1.74 0.83,1.74 0.83,1.75 0.82,1.76 0.83,1.78 0.83,1.78 0.82,1.79 0.83,1.79 0.83,1.81 0.82,1.81 0.83,1.83 0.83,1.83 0.82,1.84 0.83,1.84 0.83,1.86 0.82,1.86 0.83,1.86 0.83,1.87 0.82,1.88 0.83,1.89 0.83,1.89 0.82,1.9 0.83,1.9 0.83,1.9 0.82,1.92 0.83,1.91 0.83,1.92 0.82,1.93 0.83,1.92 0.83,1.93 0.82,1.94 0.83,1.94 0.83,1.94 0.82,1.94 0.83,1.94 0.83,1.95 0.82,1.95 0.83,1.95 0.83,1.95 0.82,1.95 0.83,1.95 0.83,1.95 0.82,1.95 0.83,1.96 0.83,1.95 0.82,1.95 0.83,1.95 0.83,1.95 0.82,1.94 0.83,1.95 0.83,1.94 0.82,1.94 0.83,1.94 0.83,1.93 0.82,1.93 0.83,1.93 0.83,1.92 0.82,1.92 0.83,1.92 0.83,1.91 0.82,1.91 0.83,1.9 0.83,1.9 0.82,1.89 0.83,1.88 0.83,1.88 0.82,1.87 0.83,1.87 0.83,1.86 0.82,1.85 0.83,1.85 0.83,1.84 0.82,1.83 0.83,1.82 0.83,1.81 0.82,1.81 0.83,1.8 0.83,1.79 0.82,1.78 0.83,1.77 0.83,1.76 0.82,1.76 0.83,1.74 0.83,1.73 0.82,1.73 0.83,1.71 0.83,1.7 0.82,1.69 0.83,1.69 0.83,1.67 0.82,1.66 0.83,1.64 0.83,1.64 0.82,1.63 0.83,1.61 0.83,1.6 0.82,1.59 0.83,1.58 0.83,1.57 0.82,1.55 0.83,1.54 0.83,1.53 0.82,1.52 0.83,1.5 0.83,1.49 0.82,1.48 0.83,1.47 0.83,1.45 0.82,1.44 0.83,1.42 0.83,1.41 0.82,1.4 0.83,1.39 0.83,1.37 0.82,1.36 0.83,1.34 0.83,1.33 0.82,1.32 0.83,1.3 0.83,1.29 0.82,1.28 0.83,1.26 0.83,1.25 0.82,1.23 0.83,1.22 0.83,1.21 0.82,1.19 0.83,1.18 0.83,1.17 0.82,1.15 0.83,1.13 0.83,1.13 0.82,1.11 0.83,1.09 0.83,1.08 0.82,1.07 0.83,1.06 0.83,1.04 0.82,1.02 0.83,1.02 0.83,0.99 0.82,0.99 0.83,0.97 0.83,0.96 0.82,0.95 0.83,0.93 0.83,0.92 0.82,0.9 0.83,0.89 0.83,0.88 0.82,0.87 0.83,0.85 0.83,0.84 0.82,0.83 0.83,0.82 0.83,0.8 0.82,0.79 0.83,0.78 0.83,0.76 0.82,0.75 0.83,0.75 0.83,0.72 0.82,0.72 0.83,0.7 0.83,0.7 0.82,0.68 0.83,0.67 0.83,0.66 0.82,0.64 0.83,0.64 0.83,0.62 0.82,0.62 0.83,0.6 0.83,0.59 0.82,0.58 0.83,0.57 0.83,0.56 0.82,0.55 0.83,0.54 0.83,0.53 0.82,0.52 0.83,0.51 0.83,0.5 0.82,0.49 0.83,0.48 0.83,0.47 0.82,0.47 0.83,0.45 0.83,0.44 0.82,0.44 0.83,0.42 0.83,0.42 0.82,0.41 0.83,0.4 0.83,0.39 0.82,0.39 0.83,0.37 0.83,0.37 0.82,0.36 0.83,0.35 0.83,0.35 0.82,0.33 0.83,0.33 0.83,0.33 0.82,0.31 0.83,0.31 0.83,0.3 0.82,0.3 0.83,0.29 0.83,0.28 0.82,0.27 0.83,0.27 0.83,0.26 0.82,0.26 0.83,0.25 0.83,0.24 0.82,0.24 0.83,0.24 0.83,0.22 0.82,0.23 0.83,0.21 0.83,0.21 0.82,0.21 0.83,0.2 0.83,0.2 0.82,0.19 0.83,0.18 0.83,0.19 0.82,0.17 0.83,0.17 0.83,0.17 0.82,0.17 0.83,0.16 0.83,0.15 0.82,0.15 0.83,0.15 0.83,0.14 0.82,0.14 0.83,0.14 0.83,0.13 0.82,0.13 0.83,0.12 0.83,0.13 0.82,0.12 0.83,0.11 0.83,0.11 0.82,0.11 0.83,0.11 0.83,0.1 0.82,0.1 0.83,0.1 0.83,0.09 0.82,0.09 0.83,0.09 0.83,0.09 0.82,0.08 0.83,0.08 0.83,0.08 0.82,0.08 0.83,0.07 0.83,0.08 0.82,0.07 0.83,0.07 0.83,0.06 0.82,0.07 0.83,0.06 0.83,0.06 0.82,0.06 0.83,0.05 0.83,0.06 0.82,0.05 0.83,0.05 0.83,0.05 0.82,0.05 0.83,0.05 0.83,0.04 0.82,0.05 0.83,0.04 0.83,0.04 0.82,0.04 0.83,0.04 0.83,0.04 0.82,0.03 0.83,0.04 0.83,0.03 0.82,0.03 0.83,0.03 0.83,0.04 0.82,0.02 0.83,0.03 0.83,0.03 0.82,0.03 0.83,0.02 0.83,0.03 0.82,0.02 0.83,0.02 0.83,0.03 0.82,0.02 0.83,0.02 0.83,0.02 0.82,0.02 0.83,0.02 0.83,0.02 0.82,0.01 0.83,0.02 0.83,0.02 0.82,0.01 0.83,0.02 0.83,0.01 0.82,0.02 0.83,0.01 0.83,0.01 0.82,0.01 0.83,0.02 0.83,0.01 0.82,0.01 0.83,0.01 0.83,0.01 0.82,0.01 0.83,0.01 0.83,0.01 0.82,0.01 0.83,0.01 h 0.83 l 0.82,0.01 0.83,0.01 0.83,0.01 h 0.82 l 0.83,0.01 0.83,0.01 h 0.82 l 0.83,0.01 0.83,0.01 h 0.82 l 0.83,0.01 h 0.83 l 0.82,0.01 h 0.83 l 0.83,0.01 h 0.82 0.83 l 0.83,0.01"
                 style="fill:none;stroke:#000000;stroke-width:1.5;stroke-linecap:round;stroke-linejoin:round;stroke-miterlimit:10;stroke-dasharray:none;stroke-opacity:1"
                 id="path34"
                 inkscape:connector-curvature="0" /></g></g><g
             id="g36"><path
               d="M 54,67.38 V 483.87"
               style="fill:none;stroke:#000000;stroke-width:0.75;stroke-linecap:round;stroke-linejoin:round;stroke-miterlimit:10;stroke-dasharray:none;stroke-opacity:1"
               id="path38"
               inkscape:connector-curvature="0" /><path
               d="m 54,67.38 h 6.7"
               style="fill:none;stroke:#000000;stroke-width:0.75;stroke-linecap:round;stroke-linejoin:round;stroke-miterlimit:10;stroke-dasharray:none;stroke-opacity:1"
               id="path40"
               inkscape:connector-curvature="0" /><path
               d="m 54,150.68 h 6.7"
               style="fill:none;stroke:#000000;stroke-width:0.75;stroke-linecap:round;stroke-linejoin:round;stroke-miterlimit:10;stroke-dasharray:none;stroke-opacity:1"
               id="path42"
               inkscape:connector-curvature="0" /><path
               d="m 54,233.97 h 6.7"
               style="fill:none;stroke:#000000;stroke-width:0.75;stroke-linecap:round;stroke-linejoin:round;stroke-miterlimit:10;stroke-dasharray:none;stroke-opacity:1"
               id="path44"
               inkscape:connector-curvature="0" /><path
               d="m 54,317.27 h 6.7"
               style="fill:none;stroke:#000000;stroke-width:0.75;stroke-linecap:round;stroke-linejoin:round;stroke-miterlimit:10;stroke-dasharray:none;stroke-opacity:1"
               id="path46"
               inkscape:connector-curvature="0" /><path
               d="m 54,400.57 h 6.7"
               style="fill:none;stroke:#000000;stroke-width:0.75;stroke-linecap:round;stroke-linejoin:round;stroke-miterlimit:10;stroke-dasharray:none;stroke-opacity:1"
               id="path48"
               inkscape:connector-curvature="0" /><path
               d="m 54,483.87 h 6.7"
               style="fill:none;stroke:#000000;stroke-width:0.75;stroke-linecap:round;stroke-linejoin:round;stroke-miterlimit:10;stroke-dasharray:none;stroke-opacity:1"
               id="path50"
               inkscape:connector-curvature="0" /><path
               d="M 70.53,54 H 483.87"
               style="fill:none;stroke:#000000;stroke-width:0.75;stroke-linecap:round;stroke-linejoin:round;stroke-miterlimit:10;stroke-dasharray:none;stroke-opacity:1"
               id="path52"
               inkscape:connector-curvature="0" /><path
               d="m 70.53,54 v 6.7"
               style="fill:none;stroke:#000000;stroke-width:0.75;stroke-linecap:round;stroke-linejoin:round;stroke-miterlimit:10;stroke-dasharray:none;stroke-opacity:1"
               id="path54"
               inkscape:connector-curvature="0" /><path
               d="m 153.2,54 v 6.7"
               style="fill:none;stroke:#000000;stroke-width:0.75;stroke-linecap:round;stroke-linejoin:round;stroke-miterlimit:10;stroke-dasharray:none;stroke-opacity:1"
               id="path56"
               inkscape:connector-curvature="0" /><path
               d="m 235.87,54 v 6.7"
               style="fill:none;stroke:#000000;stroke-width:0.75;stroke-linecap:round;stroke-linejoin:round;stroke-miterlimit:10;stroke-dasharray:none;stroke-opacity:1"
               id="path58"
               inkscape:connector-curvature="0" /><path
               d="m 318.53,54 v 6.7"
               style="fill:none;stroke:#000000;stroke-width:0.75;stroke-linecap:round;stroke-linejoin:round;stroke-miterlimit:10;stroke-dasharray:none;stroke-opacity:1"
               id="path60"
               inkscape:connector-curvature="0" /><path
               d="m 401.2,54 v 6.7"
               style="fill:none;stroke:#000000;stroke-width:0.75;stroke-linecap:round;stroke-linejoin:round;stroke-miterlimit:10;stroke-dasharray:none;stroke-opacity:1"
               id="path62"
               inkscape:connector-curvature="0" /><path
               d="m 483.87,54 v 6.7"
               style="fill:none;stroke:#000000;stroke-width:0.75;stroke-linecap:round;stroke-linejoin:round;stroke-miterlimit:10;stroke-dasharray:none;stroke-opacity:1"
               id="path64"
               inkscape:connector-curvature="0" /><text
               transform="matrix(1,0,0,-1,66.36,32.4)"
               style="font-variant:normal;font-weight:normal;font-size:15px;font-family:Helvetica;-inkscape-font-specification:Helvetica;writing-mode:lr-tb;fill:#000000;fill-opacity:1;fill-rule:nonzero;stroke:none"
               id="text68"><tspan
                 x="0"
                 y="0"
                 id="tspan66">0</tspan></text>
<text
               transform="matrix(1,0,0,-1,269.82,43.66)"
               style="font-variant:normal;font-weight:normal;font-size:15px;font-family:Symbol;-inkscape-font-specification:Symbol;writing-mode:lr-tb;fill:#000000;fill-opacity:1;fill-rule:nonzero;stroke:none"
               id="text72"><tspan
                 x="0"
                 y="0"
                 id="tspan70">µ</tspan></text>
<text
               transform="matrix(1,0,0,-1,278.46,40.92)"
               style="font-variant:normal;font-weight:normal;font-size:11px;font-family:Helvetica;-inkscape-font-specification:Helvetica;writing-mode:lr-tb;fill:#000000;fill-opacity:1;fill-rule:nonzero;stroke:none"
               id="text76"><tspan
                 x="0"
                 y="0"
                 id="tspan74">a</tspan></text>
</g><g
             id="g78"><g
               id="g80"
               clip-path="url(#clipPath84)"><path
                 d="M 277.2,54 V 500.4"
                 style="fill:none;stroke:#000000;stroke-width:0.75;stroke-linecap:round;stroke-linejoin:round;stroke-miterlimit:10;stroke-dasharray:0, 3;stroke-dashoffset:0;stroke-opacity:1"
                 id="path86"
                 inkscape:connector-curvature="0" /></g></g><g
             id="g88"><text
               transform="matrix(1,0,0,-1,253.78,17.75)"
               style="font-variant:normal;font-weight:normal;font-size:21px;font-family:Helvetica;-inkscape-font-specification:Helvetica;writing-mode:lr-tb;fill:#000000;fill-opacity:1;fill-rule:nonzero;stroke:none"
               id="text92"><tspan
                 x="0"
                 y="0"
                 id="tspan90">S</tspan></text>
<text
               transform="matrix(1,0,0,-1,267.79,17.75)"
               style="font-variant:normal;font-weight:normal;font-size:21px;font-family:Helvetica;-inkscape-font-specification:Helvetica;writing-mode:lr-tb;fill:#000000;fill-opacity:1;fill-rule:nonzero;stroke:none"
               id="text96"><tspan
                 x="0"
                 y="0"
                 id="tspan94">k</tspan></text>
<text
               transform="matrix(1,0,0,-1,278.29,17.75)"
               style="font-variant:normal;font-weight:normal;font-size:21px;font-family:Helvetica;-inkscape-font-specification:Helvetica;writing-mode:lr-tb;fill:#000000;fill-opacity:1;fill-rule:nonzero;stroke:none"
               id="text100"><tspan
                 x="0"
                 y="0"
                 id="tspan98">i</tspan></text>
<text
               transform="matrix(1,0,0,-1,282.95,17.75)"
               style="font-variant:normal;font-weight:normal;font-size:21px;font-family:Helvetica;-inkscape-font-specification:Helvetica;writing-mode:lr-tb;fill:#000000;fill-opacity:1;fill-rule:nonzero;stroke:none"
               id="text104"><tspan
                 x="0"
                 y="0"
                 id="tspan102">l</tspan></text>
<text
               transform="matrix(1,0,0,-1,287.61,17.75)"
               style="font-variant:normal;font-weight:normal;font-size:21px;font-family:Helvetica;-inkscape-font-specification:Helvetica;writing-mode:lr-tb;fill:#000000;fill-opacity:1;fill-rule:nonzero;stroke:none"
               id="text108"><tspan
                 x="0"
                 y="0"
                 id="tspan106">l</tspan></text>
<text
               transform="matrix(1,0,0,-1,292.28,13.9)"
               style="font-variant:normal;font-weight:normal;font-size:15px;font-family:Helvetica;-inkscape-font-specification:Helvetica;writing-mode:lr-tb;fill:#000000;fill-opacity:1;fill-rule:nonzero;stroke:none"
               id="text112"><tspan
                 x="0"
                 y="0"
                 id="tspan110">a</tspan></text>
<text
               transform="matrix(0,1,1,0,36.72,242.19)"
               style="font-variant:normal;font-weight:normal;font-size:21px;font-family:Helvetica;-inkscape-font-specification:Helvetica;writing-mode:lr-tb;fill:#000000;fill-opacity:1;fill-rule:nonzero;stroke:none"
               id="text116"><tspan
                 x="0 15.162 26.837999 38.514 49.014 53.675999 59.514"
                 y="0"
                 sodipodi:role="line"
                 id="tspan114">Density</tspan></text>
</g><g
             id="g118"><g
               id="g120"
               clip-path="url(#clipPath124)"><path
                 d="m 70.53,71.29 0.83,0.13 0.83,0.12 0.82,0.14 0.83,0.13 0.83,0.14 0.82,0.14 0.83,0.15 0.83,0.15 0.82,0.16 0.83,0.16 0.83,0.16 0.82,0.17 0.83,0.17 0.83,0.18 0.82,0.18 0.83,0.19 0.83,0.19 0.82,0.19 0.83,0.21 0.83,0.2 0.82,0.21 0.83,0.22 0.83,0.22 0.82,0.23 0.83,0.23 0.83,0.24 0.82,0.24 0.83,0.25 0.83,0.26 0.82,0.26 0.83,0.27 0.83,0.28 0.82,0.28 0.83,0.29 0.83,0.29 0.82,0.3 0.83,0.31 0.83,0.32 0.82,0.32 0.83,0.33 0.83,0.34 0.82,0.34 0.83,0.35 0.83,0.36 0.82,0.37 0.83,0.38 0.83,0.38 0.82,0.39 0.83,0.4 0.83,0.41 0.82,0.42 0.83,0.43 0.83,0.43 0.82,0.45 0.83,0.45 0.83,0.46 0.82,0.47 0.83,0.48 0.83,0.49 0.82,0.5 0.83,0.51 0.83,0.52 0.82,0.53 0.83,0.54 0.83,0.55 0.82,0.56 0.83,0.57 0.83,0.58 0.82,0.59 0.83,0.61 0.83,0.61 0.82,0.62 0.83,0.64 0.83,0.65 0.82,0.66 0.83,0.67 0.83,0.68 0.82,0.69 0.83,0.7 0.83,0.72 0.82,0.73 0.83,0.74 0.83,0.75 0.82,0.77 0.83,0.78 0.83,0.79 0.82,0.8 0.83,0.81 0.83,0.83 0.82,0.84 0.83,0.85 0.83,0.87 0.82,0.88 0.83,0.89 0.83,0.91 0.82,0.92 0.83,0.93 0.83,0.94 0.82,0.96 0.83,0.97 0.83,0.99 0.82,1 0.83,1.01 0.83,1.03 0.82,1.04 0.83,1.05 0.83,1.07 0.82,1.08 0.83,1.1 0.83,1.11 0.82,1.12 0.83,1.14 0.83,1.15 0.82,1.16 0.83,1.18 0.83,1.19 0.82,1.21 0.83,1.22 0.83,1.24 0.82,1.24 0.83,1.27 0.83,1.27 0.82,1.29 0.83,1.3 0.83,1.32 0.82,1.33 0.83,1.35 0.83,1.36 0.82,1.37 0.83,1.38 0.83,1.4 0.82,1.41 0.83,1.43 0.83,1.44 0.82,1.45 0.83,1.46 0.83,1.48 0.82,1.49 0.83,1.51 0.83,1.51 0.82,1.53 0.83,1.54 0.83,1.56 0.82,1.56 0.83,1.58 0.83,1.59 0.82,1.6 0.83,1.62 0.83,1.62 0.82,1.64 0.83,1.65 0.83,1.66 0.82,1.67 0.83,1.68 0.83,1.69 0.82,1.71 0.83,1.71 0.83,1.72 0.82,1.74 0.83,1.74 0.83,1.75 0.82,1.76 0.83,1.78 0.83,1.78 0.82,1.79 0.83,1.79 0.83,1.81 0.82,1.81 0.83,1.83 0.83,1.83 0.82,1.84 0.83,1.84 0.83,1.86 0.82,1.86 0.83,1.86 0.83,1.87 0.82,1.88 0.83,1.89 0.83,1.89 0.82,1.9 0.83,1.9 0.83,1.9 0.82,1.92 0.83,1.91 0.83,1.92 0.82,1.93 0.83,1.92 0.83,1.93 0.82,1.94 0.83,1.94 0.83,1.94 0.82,1.94 0.83,1.94 0.83,1.95 0.82,1.95 0.83,1.95 0.83,1.95 0.82,1.95 0.83,1.95 0.83,1.95 0.82,1.95 0.83,1.96 0.83,1.95 0.82,1.95 0.83,1.95 0.83,1.95 0.82,1.94 0.83,1.95 0.83,1.94 0.82,1.94 0.83,1.94 0.83,1.93 0.82,1.93 0.83,1.93 0.83,1.92 0.82,1.92 0.83,1.92 0.83,1.91 0.82,1.91 0.83,1.9 0.83,1.9 0.82,1.89 0.83,1.88 0.83,1.88 0.82,1.87 0.83,1.87 0.83,1.86 0.82,1.85 0.83,1.85 0.83,1.84 0.82,1.83 0.83,1.82 0.83,1.81 0.82,1.81 0.83,1.8 0.83,1.79 0.82,1.78 0.83,1.77 0.83,1.76 0.82,1.76 0.83,1.74 0.83,1.73 0.82,1.73 0.83,1.71 0.83,1.7 0.82,1.69 0.83,1.69 0.83,1.67 0.82,1.66 0.83,1.64 0.83,1.64 0.82,1.63 0.83,1.61 0.83,1.6 0.82,1.59 0.83,1.58 0.83,1.57 0.82,1.55 0.83,1.54 0.83,1.53 0.82,1.52 0.83,1.5 0.83,1.49 0.82,1.48 0.83,1.47 0.83,1.45 0.82,1.44 0.83,1.42 0.83,1.41 0.82,1.4 0.83,1.39 0.83,1.37 0.82,1.36 0.83,1.34 0.83,1.33 0.82,1.32 0.83,1.3 0.83,1.29 0.82,1.28 0.83,1.26 0.83,1.25 0.82,1.23 0.83,1.22 0.83,1.21 0.82,1.19 0.83,1.18 0.83,1.17 0.82,1.15 0.83,1.13 0.83,1.13 0.82,1.11 0.83,1.09 0.83,1.08 0.82,1.07 0.83,1.06 0.83,1.04 0.82,1.02 0.83,1.02 0.83,0.99 0.82,0.99 0.83,0.97 0.83,0.96 0.82,0.95 0.83,0.93 0.83,0.92 0.82,0.9 0.83,0.89 0.83,0.88 0.82,0.87 0.83,0.85 0.83,0.84 0.82,0.83 0.83,0.82 0.83,0.8 0.82,0.79 0.83,0.78 0.83,0.76 0.82,0.75 0.83,0.75 0.83,0.72 0.82,0.72 0.83,0.7 0.83,0.7 0.82,0.68 0.83,0.67 0.83,0.66 0.82,0.64 0.83,0.64 0.83,0.62 0.82,0.62 0.83,0.6 0.83,0.59 0.82,0.58 0.83,0.57 0.83,0.56 0.82,0.55 0.83,0.54 0.83,0.53 0.82,0.52 0.83,0.51 0.83,0.5 0.82,0.49 0.83,0.48 0.83,0.47 0.82,0.47 0.83,0.45 0.83,0.44 0.82,0.44 0.83,0.42 0.83,0.42 0.82,0.41 0.83,0.4 0.83,0.39 0.82,0.39 0.83,0.37 0.83,0.37 0.82,0.36 0.83,0.35 0.83,0.35 0.82,0.33 0.83,0.33 0.83,0.33 0.82,0.31 0.83,0.31 0.83,0.3 0.82,0.3 0.83,0.29 0.83,0.28 0.82,0.27 0.83,0.27 0.83,0.26 0.82,0.26 0.83,0.25 0.83,0.24 0.82,0.24 0.83,0.24 0.83,0.22 0.82,0.23 0.83,0.21 0.83,0.21 0.82,0.21 0.83,0.2 0.83,0.2 0.82,0.19 0.83,0.18 0.83,0.19 0.82,0.17 0.83,0.17 0.83,0.17 0.82,0.17 0.83,0.16 0.83,0.15 0.82,0.15 0.83,0.15 0.83,0.14 0.82,0.14 0.83,0.14 0.83,0.13 0.82,0.13 0.83,0.12 0.83,0.13 0.82,0.12 0.83,0.11 0.83,0.11 0.82,0.11 0.83,0.11 0.83,0.1 0.82,0.1 0.83,0.1 0.83,0.09 0.82,0.09 0.83,0.09 0.83,0.09 0.82,0.08 0.83,0.08 0.83,0.08 0.82,0.08 0.83,0.07 0.83,0.08 0.82,0.07 0.83,0.07 0.83,0.06 0.82,0.07 0.83,0.06 0.83,0.06 0.82,0.06 0.83,0.05 0.83,0.06 0.82,0.05 0.83,0.05 0.83,0.05 0.82,0.05 0.83,0.05 0.83,0.04 0.82,0.05 0.83,0.04 0.83,0.04 0.82,0.04 0.83,0.04 0.83,0.04 0.82,0.03 0.83,0.04 0.83,0.03 0.82,0.03 0.83,0.03 0.83,0.04 0.82,0.02 0.83,0.03 0.83,0.03 0.82,0.03 0.83,0.02 0.83,0.03 0.82,0.02 0.83,0.02 0.83,0.03 0.82,0.02 0.83,0.02 0.83,0.02 0.82,0.02 0.83,0.02 0.83,0.02 0.82,0.01 0.83,0.02 0.83,0.02 0.82,0.01 0.83,0.02 0.83,0.01 0.82,0.02 0.83,0.01 0.83,0.01 0.82,0.01 0.83,0.02 0.83,0.01 0.82,0.01 0.83,0.01 0.83,0.01 0.82,0.01 0.83,0.01 0.83,0.01 0.82,0.01 0.83,0.01 h 0.83 l 0.82,0.01 0.83,0.01 0.83,0.01 h 0.82 l 0.83,0.01 0.83,0.01 h 0.82 l 0.83,0.01 0.83,0.01 h 0.82 l 0.83,0.01 h 0.83 l 0.82,0.01 h 0.83 l 0.83,0.01 h 0.82 0.83 l 0.83,0.01 v 0.09 h -0.83 -0.83 -0.82 -0.83 -0.83 -0.82 -0.83 -0.83 -0.82 -0.83 -0.83 -0.82 -0.83 -0.83 -0.82 -0.83 -0.83 -0.82 -0.83 -0.83 -0.82 -0.83 -0.83 -0.82 -0.83 -0.83 -0.82 -0.83 -0.83 -0.82 -0.83 -0.83 -0.82 -0.83 -0.83 -0.82 -0.83 -0.83 -0.82 -0.83 -0.83 -0.82 -0.83 -0.83 -0.82 -0.83 -0.83 -0.82 -0.83 -0.83 -0.82 -0.83 -0.83 -0.82 -0.83 -0.83 -0.82 -0.83 -0.83 -0.82 -0.83 -0.83 -0.82 -0.83 -0.83 -0.82 -0.83 -0.83 -0.82 -0.83 -0.83 -0.82 -0.83 -0.83 -0.82 -0.83 -0.83 -0.82 -0.83 -0.83 -0.82 -0.83 -0.83 -0.82 -0.83 -0.83 -0.82 -0.83 -0.83 -0.82 -0.83 -0.83 -0.82 -0.83 -0.83 -0.82 -0.83 -0.83 -0.82 -0.83 -0.83 -0.82 -0.83 -0.83 -0.82 -0.83 -0.83 -0.82 -0.83 -0.83 -0.82 -0.83 -0.83 -0.82 -0.83 -0.83 -0.82 -0.83 -0.83 -0.82 -0.83 -0.83 -0.82 -0.83 -0.83 -0.82 -0.83 -0.83 -0.82 -0.83 -0.83 -0.82 -0.83 -0.83 -0.82 -0.83 -0.83 -0.82 -0.83 -0.83 -0.82 -0.83 -0.83 -0.82 -0.83 -0.83 -0.82 -0.83 -0.83 -0.82 -0.83 -0.83 -0.82 -0.83 -0.83 -0.82 -0.83 -0.83 -0.82 -0.83 -0.83 -0.82 -0.83 -0.83 -0.82 -0.83 -0.83 -0.82 -0.83 -0.83 -0.82 -0.83 -0.83 -0.82 -0.83 -0.83 -0.82 -0.83 -0.83 -0.82 -0.83 -0.83 -0.82 -0.83 -0.83 -0.82 -0.83 -0.83 -0.82 -0.83 -0.83 -0.82 -0.83 -0.83 -0.82 -0.83 -0.83 -0.82 -0.83 -0.83 -0.82 -0.83 -0.83 -0.82 -0.83 -0.83 -0.82 -0.83 -0.83 -0.82 -0.83 -0.83 -0.82 -0.83 -0.83 -0.82 -0.83 -0.83 -0.82 -0.83 -0.83 -0.82 -0.83 -0.83 -0.82 -0.83 -0.83 -0.82 -0.83 -0.83 -0.82 -0.83 -0.83 -0.82 -0.83 -0.83 -0.82 -0.83 -0.83 -0.82 -0.83 -0.83 -0.82 -0.83 -0.83 -0.82 -0.83 -0.83 -0.82 -0.83 -0.83 -0.82 -0.83 -0.83 -0.82 -0.83 -0.83 -0.82 -0.83 -0.83 -0.82 -0.83 -0.83 -0.82 -0.83 -0.83 -0.82 -0.83 -0.83 -0.82 -0.83 -0.83 -0.82 -0.83 -0.83 -0.82 -0.83 -0.83 -0.82 -0.83 -0.83 -0.82 -0.83 -0.83 -0.82 -0.83 -0.83 -0.82 -0.83 -0.83 -0.82 -0.83 -0.83 -0.82 -0.83 -0.83 -0.82 -0.83 -0.83 -0.82 -0.83 -0.83 -0.82 -0.83 -0.83 -0.82 -0.83 -0.83 -0.82 -0.83 -0.83 -0.82 -0.83 -0.83 -0.82 -0.83 -0.83 -0.82 -0.83 -0.83 -0.82 -0.83 -0.83 -0.82 -0.83 -0.83 -0.82 -0.83 -0.83 -0.82 -0.83 -0.83 -0.82 -0.83 -0.83 -0.82 -0.83 -0.83 -0.82 -0.83 -0.83 -0.82 -0.83 -0.83 -0.82 -0.83 -0.83 -0.82 -0.83 -0.83 -0.82 -0.83 -0.83 -0.82 -0.83 -0.83 -0.82 -0.83 -0.83 -0.82 -0.83 -0.83 -0.82 -0.83 -0.83 -0.82 -0.83 -0.83 -0.82 -0.83 -0.83 -0.82 -0.83 -0.83 -0.82 -0.83 -0.83 -0.82 -0.83 -0.83 -0.82 -0.83 -0.83 -0.82 -0.83 -0.83 -0.82 -0.83 -0.83 -0.82 -0.83 -0.83 -0.82 -0.83 -0.83 -0.82 -0.83 -0.83 -0.82 -0.83 -0.83 -0.82 -0.83 -0.83 -0.82 -0.83 -0.83 -0.82 -0.83 -0.83 -0.82 -0.83 -0.83 -0.82 -0.83 -0.83 -0.82 -0.83 -0.83 -0.82 -0.83 -0.83 -0.82 -0.83 -0.83 -0.82 -0.83 -0.83 -0.82 -0.83 -0.83 -0.82 -0.83 -0.83 -0.82 -0.83 -0.83 -0.82 -0.83 -0.83 -0.82 -0.83 -0.83 -0.82 -0.83 -0.83 -0.82 -0.83 -0.83 -0.82 -0.83 -0.83 -0.82 -0.83 -0.83 -0.82 -0.83 -0.83 -0.82 -0.83 -0.83 -0.82 -0.83 -0.83 -0.82 -0.83 -0.83 -0.82 -0.83 -0.83 -0.82 -0.83 -0.83 -0.82 -0.83 -0.83 -0.82 -0.83 -0.83 -0.82 -0.83 -0.83 -0.82 -0.83 -0.83 -0.82 -0.83 -0.83 -0.82 -0.83 -0.83 -0.82 -0.83 -0.83 -0.82 -0.83 -0.83 -0.82 -0.83 -0.83 z"
                 style="fill:#000000;fill-opacity:0.075;fill-rule:nonzero;stroke:none"
                 id="path126"
                 inkscape:connector-curvature="0" /><path
                 d="m 70.53,67.41 h 0.83 0.83 0.82 l 0.83,0.01 h 0.83 0.82 l 0.83,0.01 h 0.83 0.82 l 0.83,0.01 h 0.83 l 0.82,0.01 h 0.83 l 0.83,0.01 h 0.82 l 0.83,0.01 h 0.83 l 0.82,0.01 0.83,0.01 h 0.83 l 0.82,0.01 0.83,0.01 0.83,0.01 0.82,0.01 0.83,0.01 0.83,0.01 0.82,0.01 0.83,0.01 0.83,0.01 0.82,0.02 0.83,0.01 0.83,0.01 0.82,0.02 0.83,0.02 0.83,0.01 0.82,0.02 0.83,0.02 0.83,0.02 0.82,0.02 0.83,0.03 0.83,0.02 0.82,0.03 0.83,0.02 0.83,0.03 0.82,0.03 0.83,0.04 0.83,0.03 0.82,0.04 0.83,0.03 0.83,0.04 0.82,0.04 0.83,0.05 0.83,0.04 0.82,0.05 0.83,0.05 0.83,0.06 0.82,0.05 0.83,0.06 0.83,0.06 0.82,0.07 0.83,0.07 0.83,0.07 0.82,0.08 0.83,0.07 0.83,0.09 0.82,0.08 0.83,0.1 0.83,0.09 0.82,0.1 0.83,0.11 0.83,0.11 0.82,0.11 0.83,0.12 0.83,0.13 0.82,0.13 0.83,0.14 0.83,0.14 0.82,0.15 0.83,0.16 0.83,0.16 0.82,0.17 0.83,0.18 0.83,0.19 0.82,0.19 0.83,0.2 0.83,0.21 0.82,0.22 0.83,0.23 0.83,0.24 0.82,0.25 0.83,0.26 0.83,0.26 0.82,0.28 0.83,0.29 0.83,0.31 0.82,0.31 0.83,0.32 0.83,0.34 0.82,0.35 0.83,0.37 0.83,0.37 0.82,0.4 0.83,0.4 0.83,0.42 0.82,0.44 0.83,0.45 0.83,0.47 0.82,0.48 0.83,0.5 0.83,0.52 0.82,0.54 0.83,0.55 0.83,0.58 0.82,0.59 0.83,0.61 0.83,0.63 0.82,0.66 0.83,0.67 0.83,0.69 0.82,0.72 0.83,0.74 0.83,0.76 0.82,0.78 0.83,0.81 0.83,0.84 0.82,0.85 0.83,0.88 0.83,0.91 0.82,0.93 0.83,0.96 0.83,0.99 0.82,1.01 0.83,1.04 0.83,1.07 0.82,1.1 0.83,1.13 0.83,1.15 0.82,1.19 0.83,1.21 0.83,1.25 0.82,1.27 0.83,1.31 0.83,1.34 0.82,1.37 0.83,1.4 0.83,1.43 0.82,1.47 0.83,1.5 0.83,1.53 0.82,1.56 0.83,1.6 0.83,1.63 0.82,1.67 0.83,1.7 0.83,1.73 0.82,1.77 0.83,1.8 0.83,1.84 0.82,1.87 0.83,1.9 0.83,1.94 0.82,1.97 0.83,2.01 0.83,2.04 0.82,2.07 0.83,2.11 0.83,2.14 0.82,2.18 0.83,2.21 0.83,2.24 0.82,2.27 0.83,2.3 0.83,2.34 0.82,2.37 0.83,2.4 0.83,2.43 0.82,2.45 0.83,2.49 0.83,2.52 0.82,2.55 0.83,2.57 0.83,2.6 0.82,2.63 0.83,2.65 0.83,2.68 0.82,2.7 0.83,2.72 0.83,2.75 0.82,2.77 0.83,2.79 0.83,2.81 0.82,2.82 0.83,2.85 0.83,2.86 0.82,2.88 0.83,2.89 0.83,2.91 0.82,2.92 0.83,2.93 0.83,2.94 0.82,2.94 0.83,2.96 0.83,2.96 0.82,2.97 0.83,2.97 0.83,2.97 0.82,2.98 0.83,2.97 0.83,2.97 0.82,2.97 0.83,2.97 0.83,2.95 0.82,2.96 0.83,2.94 0.83,2.93 0.82,2.92 0.83,2.91 0.83,2.89 0.82,2.87 0.83,2.86 0.83,2.84 0.82,2.82 0.83,2.8 0.83,2.77 0.82,2.75 0.83,2.72 0.83,2.69 0.82,2.66 0.83,2.63 0.83,2.6 0.82,2.57 0.83,2.53 0.83,2.49 0.82,2.46 0.83,2.41 0.83,2.38 0.82,2.33 0.83,2.29 0.83,2.24 0.82,2.2 0.83,2.15 0.83,2.1 0.82,2.05 0.83,2 0.83,1.95 0.82,1.9 0.83,1.84 0.83,1.78 0.82,1.73 0.83,1.67 0.83,1.62 0.82,1.55 0.83,1.5 0.83,1.43 0.82,1.37 0.83,1.31 0.83,1.25 0.82,1.18 0.83,1.12 0.83,1.05 0.82,0.99 0.83,0.92 0.83,0.85 0.82,0.79 0.83,0.72 0.83,0.66 0.82,0.58 0.83,0.52 0.83,0.45 0.82,0.38 0.83,0.31 0.83,0.25 0.82,0.17 0.83,0.11 0.83,0.04 0.82,-0.03 0.83,-0.1 0.83,-0.16 0.82,-0.24 0.83,-0.3 0.83,-0.36 0.82,-0.44 0.83,-0.5 0.83,-0.56 0.82,-0.64 0.83,-0.69 0.83,-0.76 0.82,-0.82 0.83,-0.89 0.83,-0.95 0.82,-1.01 0.83,-1.07 0.83,-1.13 0.82,-1.18 0.83,-1.25 0.83,-1.31 0.82,-1.36 0.83,-1.41 0.83,-1.47 0.82,-1.53 0.83,-1.57 0.83,-1.63 0.82,-1.68 0.83,-1.72 0.83,-1.78 0.82,-1.82 0.83,-1.87 0.83,-1.91 0.82,-1.96 0.83,-1.99 0.83,-2.04 0.82,-2.08 0.83,-2.12 0.83,-2.16 0.82,-2.19 0.83,-2.22 0.83,-2.26 0.82,-2.3 0.83,-2.32 0.83,-2.35 0.82,-2.38 0.83,-2.41 0.83,-2.44 0.82,-2.46 0.83,-2.48 0.83,-2.5 0.82,-2.53 0.83,-2.54 0.83,-2.57 0.82,-2.58 0.83,-2.59 0.83,-2.62 0.82,-2.62 0.83,-2.64 0.83,-2.65 0.82,-2.65 0.83,-2.67 0.83,-2.67 0.82,-2.68 0.83,-2.69 0.83,-2.69 0.82,-2.69 0.83,-2.69 0.83,-2.69 0.82,-2.7 0.83,-2.69 0.83,-2.69 0.82,-2.69 0.83,-2.68 0.83,-2.68 0.82,-2.67 0.83,-2.66 0.83,-2.66 0.82,-2.64 0.83,-2.64 0.83,-2.63 0.82,-2.61 0.83,-2.6 0.83,-2.59 0.82,-2.58 0.83,-2.56 0.83,-2.54 0.82,-2.53 0.83,-2.52 0.83,-2.49 0.82,-2.48 0.83,-2.46 0.83,-2.44 0.82,-2.42 0.83,-2.4 0.83,-2.38 0.82,-2.36 0.83,-2.34 0.83,-2.32 0.82,-2.29 0.83,-2.27 0.83,-2.25 0.82,-2.23 0.83,-2.2 0.83,-2.17 0.82,-2.16 0.83,-2.12 0.83,-2.11 0.82,-2.07 0.83,-2.06 0.83,-2.02 0.82,-2 0.83,-1.98 0.83,-1.95 0.82,-1.92 0.83,-1.9 0.83,-1.87 0.82,-1.84 0.83,-1.82 0.83,-1.79 0.82,-1.77 0.83,-1.74 0.83,-1.71 0.82,-1.69 0.83,-1.65 0.83,-1.64 0.82,-1.6 0.83,-1.58 0.83,-1.56 0.82,-1.53 0.83,-1.5 0.83,-1.47 0.82,-1.46 0.83,-1.42 0.83,-1.4 0.82,-1.37 0.83,-1.35 0.83,-1.33 0.82,-1.3 0.83,-1.27 0.83,-1.25 0.82,-1.23 0.83,-1.2 0.83,-1.18 0.82,-1.16 0.83,-1.13 0.83,-1.11 0.82,-1.09 0.83,-1.06 0.83,-1.04 0.82,-1.02 0.83,-1 0.83,-0.98 0.82,-0.96 0.83,-0.93 0.83,-0.91 0.82,-0.9 0.83,-0.87 0.83,-0.86 0.82,-0.83 0.83,-0.82 0.83,-0.79 0.82,-0.78 0.83,-0.76 0.83,-0.74 0.82,-0.73 0.83,-0.7 0.83,-0.69 0.82,-0.68 0.83,-0.65 0.83,-0.64 0.82,-0.63 0.83,-0.6 0.83,-0.6 0.82,-0.57 0.83,-0.57 0.83,-0.54 0.82,-0.54 0.83,-0.52 0.83,-0.5 0.82,-0.49 0.83,-0.48 0.83,-0.47 0.82,-0.45 0.83,-0.44 0.83,-0.43 0.82,-0.42 0.83,-0.4 0.83,-0.4 0.82,-0.38 0.83,-0.37 0.83,-0.36 0.82,-0.35 0.83,-0.34 0.83,-0.34 0.82,-0.32 0.83,-0.31 0.83,-0.3 0.82,-0.29 0.83,-0.29 0.83,-0.27 0.82,-0.27 0.83,-0.26 0.83,-0.25 0.82,-0.25 0.83,-0.23 0.83,-0.23 0.82,-0.22 0.83,-0.22 0.83,-0.2 0.82,-0.21 0.83,-0.19 0.83,-0.19 0.82,-0.18 0.83,-0.18 0.83,-0.17 0.82,-0.16 0.83,-0.16 0.83,-0.16 0.82,-0.14 0.83,-0.15 0.83,-0.14 0.82,-0.13 0.83,-0.13 0.83,-0.13"
                 style="fill:none;stroke:#000000;stroke-width:1.5;stroke-linecap:round;stroke-linejoin:round;stroke-miterlimit:10;stroke-dasharray:0, 6, 4.5, 6;stroke-dashoffset:0;stroke-opacity:1"
                 id="path128"
                 inkscape:connector-curvature="0" /><path
                 d="m 333.91,441.44 h 32.4"
                 style="fill:none;stroke:#000000;stroke-width:1.5;stroke-linecap:round;stroke-linejoin:round;stroke-miterlimit:10;stroke-dasharray:4.5, 7.5;stroke-dashoffset:0;stroke-opacity:1"
                 id="path130"
                 inkscape:connector-curvature="0" /><path
                 d="m 333.91,419.84 h 32.4"
                 style="fill:none;stroke:#000000;stroke-width:1.5;stroke-linecap:round;stroke-linejoin:round;stroke-miterlimit:10;stroke-dasharray:none;stroke-opacity:1"
                 id="path132"
                 inkscape:connector-curvature="0" /><path
                 d="m 333.91,398.24 h 32.4"
                 style="fill:none;stroke:#000000;stroke-width:1.5;stroke-linecap:round;stroke-linejoin:round;stroke-miterlimit:10;stroke-dasharray:0, 6, 4.5, 6;stroke-dashoffset:0;stroke-opacity:1"
                 id="path134"
                 inkscape:connector-curvature="0" /><text
                 transform="matrix(1,0,0,-1,382.51,435.11)"
                 style="font-variant:normal;font-weight:normal;font-size:18px;font-family:Helvetica;-inkscape-font-specification:Helvetica;writing-mode:lr-tb;fill:#000000;fill-opacity:1;fill-rule:nonzero;stroke:none"
                 id="text138"><tspan
                   x="0 12.006 18.27 22.266001 32.273998"
                   y="0"
                   sodipodi:role="line"
                   id="tspan136">Prior</tspan></text>
<text
                 transform="matrix(1,0,0,-1,382.51,413.52)"
                 style="font-variant:normal;font-weight:normal;font-size:18px;font-family:Helvetica;-inkscape-font-specification:Helvetica;writing-mode:lr-tb;fill:#000000;fill-opacity:1;fill-rule:nonzero;stroke:none"
                 id="text142"><tspan
                   x="0 10.008 14.004 22.643999 32.652 36.647999 40.644001 50.652 60.66 70.667999"
                   y="0"
                   sodipodi:role="line"
                   id="tspan140">Likelihood</tspan></text>
<text
                 transform="matrix(1,0,0,-1,382.51,391.92)"
                 style="font-variant:normal;font-weight:normal;font-size:18px;font-family:Helvetica;-inkscape-font-specification:Helvetica;writing-mode:lr-tb;fill:#000000;fill-opacity:1;fill-rule:nonzero;stroke:none"
                 id="text146"><tspan
                   x="0 11.106 21.114 30.114 35.118 45.125999 51.389999 55.386002 65.393997"
                   y="0"
                   sodipodi:role="line"
                   id="tspan144">Posterior</tspan></text>
<text
                 transform="matrix(1,0,0,-1,458.06,391.92)"
                 style="font-variant:normal;font-weight:normal;font-size:18px;font-family:Symbol;-inkscape-font-specification:Symbol;writing-mode:lr-tb;fill:#000000;fill-opacity:1;fill-rule:nonzero;stroke:none"
                 id="text150"><tspan
                   x="0"
                   y="0"
                   id="tspan148">∝</tspan></text>
<text
                 transform="matrix(1,0,0,-1,272.76,364)"
                 style="font-variant:normal;font-weight:normal;font-size:11.22000027px;font-family:ZapfDingbats;-inkscape-font-specification:ZapfDingbats;writing-mode:lr-tb;fill:#000000;fill-opacity:1;fill-rule:nonzero;stroke:#000000;stroke-width:0.75;stroke-linecap:round;stroke-linejoin:round;stroke-miterlimit:10;stroke-dasharray:none;stroke-opacity:1"
                 id="text154"><tspan
                   x="0"
                   y="0"
                   id="tspan152">●</tspan></text>
<text
                 transform="matrix(1,0,0,-1,293.42,385.12)"
                 style="font-variant:normal;font-weight:normal;font-size:11.22000027px;font-family:ZapfDingbats;-inkscape-font-specification:ZapfDingbats;writing-mode:lr-tb;fill:none;stroke:#000000;stroke-width:0.75;stroke-linecap:round;stroke-linejoin:round;stroke-miterlimit:10;stroke-dasharray:none;stroke-opacity:1"
                 id="text158"><tspan
                   x="0"
                   y="0"
                   id="tspan156">●</tspan></text>
<path
                 d="m 70.53,67.41 h 0.83 0.83 0.82 l 0.83,0.01 h 0.83 0.82 l 0.83,0.01 h 0.83 0.82 l 0.83,0.01 h 0.83 l 0.82,0.01 h 0.83 l 0.83,0.01 h 0.82 l 0.83,0.01 h 0.83 l 0.82,0.01 0.83,0.01 h 0.83 l 0.82,0.01 0.83,0.01 0.83,0.01 0.82,0.01 0.83,0.01 0.83,0.01 0.82,0.01 0.83,0.01 0.83,0.01 0.82,0.02 0.83,0.01 0.83,0.01 0.82,0.02 0.83,0.02 0.83,0.01 0.82,0.02 0.83,0.02 0.83,0.02 0.82,0.02 0.83,0.03 0.83,0.02 0.82,0.03 0.83,0.02 0.83,0.03 0.82,0.03 0.83,0.04 0.83,0.03 0.82,0.04 0.83,0.03 0.83,0.04 0.82,0.04 0.83,0.05 0.83,0.04 0.82,0.05 0.83,0.05 0.83,0.06 0.82,0.05 0.83,0.06 0.83,0.06 0.82,0.07 0.83,0.07 0.83,0.07 0.82,0.08 0.83,0.07 0.83,0.09 0.82,0.08 0.83,0.1 0.83,0.09 0.82,0.1 0.83,0.11 0.83,0.11 0.82,0.11 0.83,0.12 0.83,0.13 0.82,0.13 0.83,0.14 0.83,0.14 0.82,0.15 0.83,0.16 0.83,0.16 0.82,0.17 0.83,0.18 0.83,0.19 0.82,0.19 0.83,0.2 0.83,0.21 0.82,0.22 0.83,0.23 0.83,0.24 0.82,0.25 0.83,0.26 0.83,0.26 0.82,0.28 0.83,0.29 0.83,0.31 0.82,0.31 0.83,0.32 0.83,0.34 0.82,0.35 0.83,0.37 0.83,0.37 0.82,0.4 0.83,0.4 0.83,0.42 0.82,0.44 0.83,0.45 0.83,0.47 0.82,0.48 0.83,0.5 0.83,0.52 0.82,0.54 0.83,0.55 0.83,0.58 0.82,0.59 0.83,0.61 0.83,0.63 0.82,0.66 0.83,0.67 0.83,0.69 0.82,0.72 0.83,0.74 0.83,0.76 0.82,0.78 0.83,0.81 0.83,0.84 0.82,0.85 0.83,0.88 0.83,0.91 0.82,0.93 0.83,0.96 0.83,0.99 0.82,1.01 0.83,1.04 0.83,1.07 0.82,1.1 0.83,1.13 0.83,1.15 0.82,1.19 0.83,1.21 0.83,1.25 0.82,1.27 0.83,1.31 0.83,1.34 0.82,1.37 0.83,1.4 0.83,1.43 0.82,1.47 0.83,1.5 0.83,1.53 0.82,1.56 0.83,1.6 0.83,1.63 0.82,1.67 0.83,1.7 0.83,1.73 0.82,1.77 0.83,1.8 0.83,1.84 0.82,1.87 0.83,1.9 0.83,1.94 0.82,1.97 0.83,2.01 0.83,2.04 0.82,2.07 0.83,2.11 0.83,2.14 0.82,2.18 0.83,2.21 0.83,2.24 0.82,2.27 0.83,2.3 0.83,2.34 0.82,2.37 0.83,2.4 0.83,2.43 0.82,2.45 0.83,2.49 0.83,2.52 0.82,2.55 0.83,2.57 0.83,2.6 0.82,2.63 0.83,2.65 0.83,2.68 0.82,2.7 0.83,2.72 0.83,2.75 0.82,2.77 0.83,2.79 0.83,2.81 0.82,2.82 0.83,2.85 0.83,2.86 0.82,2.88 0.83,2.89 0.83,2.91 0.82,2.92 0.83,2.93 0.83,2.94 0.82,2.94 0.83,2.96 0.83,2.96 0.82,2.97 0.83,2.97 0.83,2.97 0.82,2.98 0.83,2.97 0.83,2.97 0.82,2.97 0.83,2.97 0.83,2.95 0.82,2.96 0.83,2.94 0.83,2.93 0.82,2.92 0.83,2.91 0.83,2.89 0.82,2.87 0.83,2.86 0.83,2.84 0.82,2.82 0.83,2.8 0.83,2.77 0.82,2.75 0.83,2.72 0.83,2.69 0.82,2.66 0.83,2.63 0.83,2.6 0.82,2.57 0.83,2.53 0.83,2.49 0.82,2.46 0.83,2.41 0.83,2.38 0.82,2.33 0.83,2.29 0.83,2.24 0.82,2.2 0.83,2.15 0.83,2.1 0.82,2.05 0.83,2 0.83,1.95 0.82,1.9 0.83,1.84 0.83,1.78 0.82,1.73 0.83,1.67 0.83,1.62 0.82,1.55 0.83,1.5 0.83,1.43 0.82,1.37 0.83,1.31 0.83,1.25 0.82,1.18 0.83,1.12 0.83,1.05 0.82,0.99 0.83,0.92 0.83,0.85 0.82,0.79 0.83,0.72 0.83,0.66 0.82,0.58 0.83,0.52 0.83,0.45 0.82,0.38 0.83,0.31 0.83,0.25 0.82,0.17 0.83,0.11 0.83,0.04 0.82,-0.03 0.83,-0.1 0.83,-0.16 0.82,-0.24 0.83,-0.3 0.83,-0.36 0.82,-0.44 0.83,-0.5 0.83,-0.56 0.82,-0.64 0.83,-0.69 0.83,-0.76 0.82,-0.82 0.83,-0.89 0.83,-0.95 0.82,-1.01 0.83,-1.07 0.83,-1.13 0.82,-1.18 0.83,-1.25 0.83,-1.31 0.82,-1.36 0.83,-1.41 0.83,-1.47 0.82,-1.53 0.83,-1.57 0.83,-1.63 0.82,-1.68 0.83,-1.72 0.83,-1.78 0.82,-1.82 0.83,-1.87 0.83,-1.91 0.82,-1.96 0.83,-1.99 0.83,-2.04 0.82,-2.08 0.83,-2.12 0.83,-2.16 0.82,-2.19 0.83,-2.22 0.83,-2.26 0.82,-2.3 0.83,-2.32 0.83,-2.35 0.82,-2.38 0.83,-2.41 0.83,-2.44 0.82,-2.46 0.83,-2.48 0.83,-2.5 0.82,-2.53 0.83,-2.54 0.83,-2.57 0.82,-2.58 0.83,-2.59 0.83,-2.62 0.82,-2.62 0.83,-2.64 0.83,-2.65 0.82,-2.65 0.83,-2.67 0.83,-2.67 0.82,-2.68 0.83,-2.69 0.83,-2.69 0.82,-2.69 0.83,-2.69 0.83,-2.69 0.82,-2.7 0.83,-2.69 0.83,-2.69 0.82,-2.69 0.83,-2.68 0.83,-2.68 0.82,-2.67 0.83,-2.66 0.83,-2.66 0.82,-2.64 0.83,-2.64 0.83,-2.63 0.82,-2.61 0.83,-2.6 0.83,-2.59 0.82,-2.58 0.83,-2.56 0.83,-2.54 0.82,-2.53 0.83,-2.52 0.83,-2.49 0.82,-2.48 0.83,-2.46 0.83,-2.44 0.82,-2.42 0.83,-2.4 0.83,-2.38 0.82,-2.36 0.83,-2.34 0.83,-2.32 0.82,-2.29 0.83,-2.27 0.83,-2.25 0.82,-2.23 0.83,-2.2 0.83,-2.17 0.82,-2.16 0.83,-2.12 0.83,-2.11 0.82,-2.07 0.83,-2.06 0.83,-2.02 0.82,-2 0.83,-1.98 0.83,-1.95 0.82,-1.92 0.83,-1.9 0.83,-1.87 0.82,-1.84 0.83,-1.82 0.83,-1.79 0.82,-1.77 0.83,-1.74 0.83,-1.71 0.82,-1.69 0.83,-1.65 0.83,-1.64 0.82,-1.6 0.83,-1.58 0.83,-1.56 0.82,-1.53 0.83,-1.5 0.83,-1.47 0.82,-1.46 0.83,-1.42 0.83,-1.4 0.82,-1.37 0.83,-1.35 0.83,-1.33 0.82,-1.3 0.83,-1.27 0.83,-1.25 0.82,-1.23 0.83,-1.2 0.83,-1.18 0.82,-1.16 0.83,-1.13 0.83,-1.11 0.82,-1.09 0.83,-1.06 0.83,-1.04 0.82,-1.02 0.83,-1 0.83,-0.98 0.82,-0.96 0.83,-0.93 0.83,-0.91 0.82,-0.9 0.83,-0.87 0.83,-0.86 0.82,-0.83 0.83,-0.82 0.83,-0.79 0.82,-0.78 0.83,-0.76 0.83,-0.74 0.82,-0.73 0.83,-0.7 0.83,-0.69 0.82,-0.68 0.83,-0.65 0.83,-0.64 0.82,-0.63 0.83,-0.6 0.83,-0.6 0.82,-0.57 0.83,-0.57 0.83,-0.54 0.82,-0.54 0.83,-0.52 0.83,-0.5 0.82,-0.49 0.83,-0.48 0.83,-0.47 0.82,-0.45 0.83,-0.44 0.83,-0.43 0.82,-0.42 0.83,-0.4 0.83,-0.4 0.82,-0.38 0.83,-0.37 0.83,-0.36 0.82,-0.35 0.83,-0.34 0.83,-0.34 0.82,-0.32 0.83,-0.31 0.83,-0.3 0.82,-0.29 0.83,-0.29 0.83,-0.27 0.82,-0.27 0.83,-0.26 0.83,-0.25 0.82,-0.25 0.83,-0.23 0.83,-0.23 0.82,-0.22 0.83,-0.22 0.83,-0.2 0.82,-0.21 0.83,-0.19 0.83,-0.19 0.82,-0.18 0.83,-0.18 0.83,-0.17 0.82,-0.16 0.83,-0.16 0.83,-0.16 0.82,-0.14 0.83,-0.15 0.83,-0.14 0.82,-0.13 0.83,-0.13 0.83,-0.13 v -3.15 h -0.83 -0.83 -0.82 -0.83 -0.83 -0.82 -0.83 -0.83 -0.82 -0.83 -0.83 -0.82 -0.83 -0.83 -0.82 -0.83 -0.83 -0.82 -0.83 -0.83 -0.82 -0.83 -0.83 -0.82 -0.83 -0.83 -0.82 -0.83 -0.83 -0.82 -0.83 -0.83 -0.82 -0.83 -0.83 -0.82 -0.83 -0.83 -0.82 -0.83 -0.83 -0.82 -0.83 -0.83 -0.82 -0.83 -0.83 -0.82 -0.83 -0.83 -0.82 -0.83 -0.83 -0.82 -0.83 -0.83 -0.82 -0.83 -0.83 -0.82 -0.83 -0.83 -0.82 -0.83 -0.83 -0.82 -0.83 -0.83 -0.82 -0.83 -0.83 -0.82 -0.83 -0.83 -0.82 -0.83 -0.83 -0.82 -0.83 -0.83 -0.82 -0.83 -0.83 -0.82 -0.83 -0.83 -0.82 -0.83 -0.83 -0.82 -0.83 -0.83 -0.82 -0.83 -0.83 -0.82 -0.83 -0.83 -0.82 -0.83 -0.83 -0.82 -0.83 -0.83 -0.82 -0.83 -0.83 -0.82 -0.83 -0.83 -0.82 -0.83 -0.83 -0.82 -0.83 -0.83 -0.82 -0.83 -0.83 -0.82 -0.83 -0.83 -0.82 -0.83 -0.83 -0.82 -0.83 -0.83 -0.82 -0.83 -0.83 -0.82 -0.83 -0.83 -0.82 -0.83 -0.83 -0.82 -0.83 -0.83 -0.82 -0.83 -0.83 -0.82 -0.83 -0.83 -0.82 -0.83 -0.83 -0.82 -0.83 -0.83 -0.82 -0.83 -0.83 -0.82 -0.83 -0.83 -0.82 -0.83 -0.83 -0.82 -0.83 -0.83 -0.82 -0.83 -0.83 -0.82 -0.83 -0.83 -0.82 -0.83 -0.83 -0.82 -0.83 -0.83 -0.82 -0.83 -0.83 -0.82 -0.83 -0.83 -0.82 -0.83 -0.83 -0.82 -0.83 -0.83 -0.82 -0.83 -0.83 -0.82 -0.83 -0.83 -0.82 -0.83 -0.83 -0.82 -0.83 -0.83 -0.82 -0.83 -0.83 -0.82 -0.83 -0.83 -0.82 -0.83 -0.83 -0.82 -0.83 -0.83 -0.82 -0.83 -0.83 -0.82 -0.83 -0.83 -0.82 -0.83 -0.83 -0.82 -0.83 -0.83 -0.82 -0.83 -0.83 -0.82 -0.83 -0.83 -0.82 -0.83 -0.83 -0.82 -0.83 -0.83 -0.82 -0.83 -0.83 -0.82 -0.83 -0.83 -0.82 -0.83 -0.83 -0.82 -0.83 -0.83 -0.82 -0.83 -0.83 -0.82 -0.83 -0.83 -0.82 -0.83 -0.83 -0.82 -0.83 -0.83 -0.82 -0.83 -0.83 -0.82 -0.83 -0.83 -0.82 -0.83 -0.83 -0.82 -0.83 -0.83 -0.82 -0.83 -0.83 -0.82 -0.83 -0.83 -0.82 -0.83 -0.83 -0.82 -0.83 -0.83 -0.82 -0.83 -0.83 -0.82 -0.83 -0.83 -0.82 -0.83 -0.83 -0.82 -0.83 -0.83 -0.82 -0.83 -0.83 -0.82 -0.83 -0.83 -0.82 -0.83 -0.83 -0.82 -0.83 -0.83 -0.82 -0.83 -0.83 -0.82 -0.83 -0.83 -0.82 -0.83 -0.83 -0.82 -0.83 -0.83 -0.82 -0.83 -0.83 -0.82 -0.83 -0.83 -0.82 -0.83 -0.83 -0.82 -0.83 -0.83 -0.82 -0.83 -0.83 -0.82 -0.83 -0.83 -0.82 -0.83 -0.83 -0.82 -0.83 -0.83 -0.82 -0.83 -0.83 -0.82 -0.83 -0.83 -0.82 -0.83 -0.83 -0.82 -0.83 -0.83 -0.82 -0.83 -0.83 -0.82 -0.83 -0.83 -0.82 -0.83 -0.83 -0.82 -0.83 -0.83 -0.82 -0.83 -0.83 -0.82 -0.83 -0.83 -0.82 -0.83 -0.83 -0.82 -0.83 -0.83 -0.82 -0.83 -0.83 -0.82 -0.83 -0.83 -0.82 -0.83 -0.83 -0.82 -0.83 -0.83 -0.82 -0.83 -0.83 -0.82 -0.83 -0.83 -0.82 -0.83 -0.83 -0.82 -0.83 -0.83 -0.82 -0.83 -0.83 -0.82 -0.83 -0.83 -0.82 -0.83 -0.83 -0.82 -0.83 -0.83 -0.82 -0.83 -0.83 -0.82 -0.83 -0.83 -0.82 -0.83 -0.83 -0.82 -0.83 -0.83 -0.82 -0.83 -0.83 -0.82 -0.83 -0.83 -0.82 -0.83 -0.83 -0.82 -0.83 -0.83 -0.82 -0.83 -0.83 -0.82 -0.83 -0.83 -0.82 -0.83 -0.83 -0.82 -0.83 -0.83 -0.82 -0.83 -0.83 -0.82 -0.83 -0.83 -0.82 -0.83 -0.83 -0.82 -0.83 -0.83 -0.82 -0.83 -0.83 -0.82 -0.83 -0.83 -0.82 -0.83 -0.83 -0.82 -0.83 -0.83 -0.82 -0.83 -0.83 -0.82 -0.83 -0.83 -0.82 -0.83 -0.83 -0.82 -0.83 -0.83 -0.82 -0.83 -0.83 -0.82 -0.83 -0.83 -0.82 -0.83 -0.83 -0.82 -0.83 -0.83 z"
                 style="fill:#000000;fill-opacity:0.30199998;fill-rule:nonzero;stroke:none"
                 id="path160"
                 inkscape:connector-curvature="0" /><text
                 transform="matrix(1,0,0,-1,254.68,122.47)"
                 style="font-variant:normal;font-weight:normal;font-size:21px;font-family:Helvetica;-inkscape-font-specification:Helvetica;writing-mode:lr-tb;fill:#000000;fill-opacity:1;fill-rule:nonzero;stroke:none"
                 id="text164"><tspan
                   x="0 14.007 24.507 29.169001 40.845001 52.521 64.196999 74.696999"
                   y="0"
                   sodipodi:role="line"
                   id="tspan162">Evidence</tspan></text>
</g></g></g></g></g></g></svg>