<?xml version="1.0" encoding="UTF-8" standalone="no"?>
<!-- Created with Inkscape (http://www.inkscape.org/) -->

<svg
   xmlns:dc="http://purl.org/dc/elements/1.1/"
   xmlns:cc="http://creativecommons.org/ns#"
   xmlns:rdf="http://www.w3.org/1999/02/22-rdf-syntax-ns#"
   xmlns:svg="http://www.w3.org/2000/svg"
   xmlns="http://www.w3.org/2000/svg"
   xmlns:sodipodi="http://sodipodi.sourceforge.net/DTD/sodipodi-0.dtd"
   xmlns:inkscape="http://www.inkscape.org/namespaces/inkscape"
   version="1.1"
   id="svg2"
   xml:space="preserve"
   width="592"
   height="346.66666"
   viewBox="0 0 592 346.66666"
   sodipodi:docname="evidence.svg"
   inkscape:version="0.92.3 (2405546, 2018-03-11)"><metadata
     id="metadata8"><rdf:RDF><cc:Work
         rdf:about=""><dc:format>image/svg+xml</dc:format><dc:type
           rdf:resource="http://purl.org/dc/dcmitype/StillImage" /><dc:title></dc:title></cc:Work></rdf:RDF></metadata><defs
     id="defs6"><clipPath
       clipPathUnits="userSpaceOnUse"
       id="clipPath20"><path
         d="M 0,0 H 504 V 504 H 0 Z"
         id="path18"
         inkscape:connector-curvature="0" /></clipPath><clipPath
       clipPathUnits="userSpaceOnUse"
       id="clipPath30"><path
         d="M 59.04,73.44 H 473.76 V 444.96 H 59.04 Z"
         id="path28"
         inkscape:connector-curvature="0" /></clipPath><clipPath
       clipPathUnits="userSpaceOnUse"
       id="clipPath42"><path
         d="M 59.04,73.44 H 473.76 V 444.96 H 59.04 Z"
         id="path40"
         inkscape:connector-curvature="0" /></clipPath><clipPath
       clipPathUnits="userSpaceOnUse"
       id="clipPath70"><path
         d="M 59.04,73.44 H 473.76 V 444.96 H 59.04 Z"
         id="path68"
         inkscape:connector-curvature="0" /></clipPath></defs><sodipodi:namedview
     pagecolor="#ffffff"
     bordercolor="#666666"
     borderopacity="1"
     objecttolerance="10"
     gridtolerance="10"
     guidetolerance="10"
     inkscape:pageopacity="0"
     inkscape:pageshadow="2"
     inkscape:window-width="754"
     inkscape:window-height="480"
     id="namedview4"
     showgrid="false"
     inkscape:zoom="0.58445946"
     inkscape:cx="296"
     inkscape:cy="173.33333"
     inkscape:window-x="0"
     inkscape:window-y="0"
     inkscape:window-maximized="0"
     inkscape:current-layer="g10" /><g
     id="g10"
     inkscape:groupmode="layer"
     inkscape:label="evidence"
     transform="matrix(1.3333333,0,0,-1.3333333,0,346.66667)"><g
       id="g12"
       transform="translate(-30,-172)"><g
         id="g14"><g
           id="g16"
           clip-path="url(#clipPath20)"><g
             id="g22" /><g
             id="g24"><g
               id="g26"
               clip-path="url(#clipPath30)"><path
                 d="m 74.4,201.87 h 0.19 0.19 0.2 0.19 0.19 0.19 0.19 0.2 0.19 0.19 0.19 0.19 0.2 0.19 0.19 0.19 0.19 0.2 0.19 0.19 0.19 0.19 0.2 0.19 0.19 0.19 0.19 0.2 0.19 0.19 0.19 0.19 0.2 0.19 0.19 0.19 0.19 0.2 0.19 0.19 0.19 0.19 0.2 0.19 0.19 0.19 0.19 0.2 0.19 0.19 0.19 0.19 0.2 0.19 0.19 0.19 0.19 0.2 0.19 0.19 0.19 0.19 0.2 0.19 0.19 0.19 0.19 0.2 0.19 0.19 0.19 0.19 0.2 0.19 0.19 0.19 0.19 0.2 0.19 0.19 0.19 0.19 0.2 0.19 0.19 0.19 0.19 0.2 0.19 0.19 0.19 0.19 0.2 0.19 0.19 0.19 0.19 0.2 0.19 0.19 0.19 0.19 0.2 0.19 0.19 0.19 0.19 0.2 0.19 0.19 0.19 0.19 0.2 0.19 0.19 0.19 0.19 0.2 0.19 0.19 0.19 0.19 0.2 0.19 0.19 0.19 0.19 0.2 0.19 0.19 0.19 0.19 0.2 0.19 0.19 0.19 0.19 0.2 0.19 0.19 0.19 0.19 0.2 0.19 0.19 0.19 0.19 0.2 0.19 0.19 0.19 0.19 0.2 0.19 0.19 0.19 0.19 0.2 0.19 0.19 0.19 0.19 0.2 0.19 0.19 0.19 0.19 0.2 0.19 0.19 0.19 0.19 0.2 0.19 0.19 0.19 0.19 0.2 0.19 0.19 0.19 0.19 0.2 0.19 0.19 0.19 0.19 0.2 0.19 0.19 0.19 0.19 0.2 0.19 0.19 0.19 0.19 0.2 0.19 0.19 0.19 0.19 0.2 0.19 0.19 0.19 0.19 0.2 0.19 0.19 0.19 0.19 0.2 0.19 0.19 0.19 0.19 0.2 0.19 0.19 0.19 0.19 0.2 0.19 0.19 0.19 0.19 0.2 0.19 0.19 0.19 0.19 0.2 0.19 0.19 0.19 0.19 0.2 0.19 0.19 0.19 0.19 0.2 0.19 0.19 0.19 0.19 0.2 0.19 0.19 0.19 0.19 0.2 0.19 0.19 0.19 0.19 0.2 0.19 0.19 0.19 0.19 0.2 0.19 0.19 0.19 0.19 0.2 0.19 0.19 0.19 0.19 0.2 0.19 0.19 0.19 0.19 0.2 0.19 0.19 0.19 0.19 0.2 0.19 0.19 0.19 0.19 0.2 0.19 0.19 0.19 0.19 0.2 0.19 0.19 0.19 0.19 0.2 0.19 0.19 0.19 0.19 0.2 0.19 0.19 0.19 0.19 0.2 0.19 0.19 0.19 0.19 0.2 0.19 0.19 0.19 0.19 0.2 0.19 0.19 0.19 0.19 0.2 0.19 0.19 0.19 0.19 0.2 0.19 0.19 0.19 0.19 0.2 0.19 0.19 0.19 0.19 0.2 0.19 0.19 0.19 0.19 0.2 0.19 0.19 0.19 0.19 0.2 0.19 0.19 0.19 0.19 0.2 0.19 0.19 0.19 0.19 0.2 0.19 0.19 0.19 0.19 0.2 0.19 0.19 0.19 0.19 0.2 0.19 0.19 0.19 0.19 0.2 0.19 0.19 0.19 0.19 0.2 0.19 0.19 0.19 0.19 0.2 0.19 0.19 0.19 0.19 0.2 0.19 0.19 0.19 0.19 0.2 0.19 0.19 0.19 0.19 0.2 0.19 0.19 0.19 0.19 0.2 0.19 0.19 0.19 0.19 0.2 0.19 0.19 0.19 0.19 0.2 0.19 0.19 0.19 0.19 0.2 0.19 0.19 0.19 0.19 0.2 0.19 0.19 0.19 0.19 0.2 0.19 0.19 0.19 0.19 0.2 0.19 0.19 0.19 0.19 0.2 0.19 0.19 0.19 0.19 0.2 0.19 0.19 0.19 0.19 0.2 0.19 0.19 0.19 0.19 0.2 0.19 0.19 0.19 0.19 0.2 0.19 0.19 0.19 0.19 0.2 0.19 0.19 0.19 0.19 0.2 0.19 0.19 0.19 0.19 0.2 0.19 0.19 0.19 0.19 0.2 0.19 0.19 0.19 0.19 0.2 0.19 0.19 0.19 0.19 0.2 0.19 0.19 0.19 0.19 0.2 0.19 0.19 0.19 0.19 0.2 0.19 0.19 0.19 0.19 0.2 0.19 0.19 0.19 0.19 0.2 0.19 0.19 0.19 0.19 0.2 0.19 0.19 0.19 0.19 0.2 0.19 0.19 0.19 0.19 0.2 0.19 0.19 0.19 0.19 0.2 0.19 0.19 0.19 0.19 0.2 0.19 0.19 0.19 0.19 0.2 0.19 0.19 0.19 0.19 0.2 0.19 0.19 0.19 0.19 l 0.2,0.01 h 0.19 0.19 0.19 0.19 0.2 0.19 0.19 0.19 0.19 0.2 0.19 0.19 0.19 0.19 0.2 0.19 0.19 l 0.19,0.01 h 0.19 0.2 0.19 0.19 0.19 0.19 0.2 0.19 0.19 l 0.19,0.01 h 0.19 0.2 0.19 0.19 0.19 0.19 0.2 l 0.19,0.01 h 0.19 0.19 0.19 0.2 l 0.19,0.01 h 0.19 0.19 0.19 0.2 l 0.19,0.01 h 0.19 0.19 0.19 l 0.2,0.01 h 0.19 0.19 l 0.19,0.01 h 0.19 0.2 l 0.19,0.01 h 0.19 0.19 l 0.19,0.01 h 0.2 l 0.19,0.01 h 0.19 l 0.19,0.01 h 0.19 0.2 l 0.19,0.01 h 0.19 l 0.19,0.01 0.19,0.01 h 0.2 l 0.19,0.01 h 0.19 l 0.19,0.01 0.19,0.01 h 0.2 l 0.19,0.01 0.19,0.01 0.19,0.01 h 0.19 l 0.2,0.01 0.19,0.01 0.19,0.01 0.19,0.01 0.19,0.01 0.2,0.01 0.19,0.01 0.19,0.01 0.19,0.01 0.19,0.01 0.2,0.01 0.19,0.02 0.19,0.01 0.19,0.01 0.19,0.01 0.2,0.02 0.19,0.01 0.19,0.02 0.19,0.01 0.19,0.02 0.2,0.01 0.19,0.02 0.19,0.02 0.19,0.01 0.19,0.02 0.2,0.02 0.19,0.02 0.19,0.02 0.19,0.02 0.19,0.02 0.2,0.03 0.19,0.02 0.19,0.02 0.19,0.03 0.19,0.02 0.2,0.03 0.19,0.03 0.19,0.02 0.19,0.03 0.19,0.03 0.2,0.03 0.19,0.03 0.19,0.03 0.19,0.04 0.19,0.03 0.2,0.04 0.19,0.03 0.19,0.04 0.19,0.04 0.19,0.04 0.2,0.04 0.19,0.04 0.19,0.04 0.19,0.05 0.19,0.04 0.2,0.05 0.19,0.05 0.19,0.05 0.19,0.05 0.19,0.05 0.2,0.06 0.19,0.05 0.19,0.06 0.19,0.06 0.19,0.06 0.2,0.06 0.19,0.07 0.19,0.06 0.19,0.07 0.19,0.07 0.2,0.07 0.19,0.07 0.19,0.08 0.19,0.07 0.19,0.08 0.2,0.09 0.19,0.08 0.19,0.09 0.19,0.08 0.19,0.09 0.2,0.1 0.19,0.09 0.19,0.1 0.19,0.1 0.19,0.1 0.2,0.11 0.19,0.11 0.19,0.11 0.19,0.11 0.19,0.12 0.2,0.12 0.19,0.12 0.19,0.12 0.19,0.13 0.19,0.14 0.2,0.13 0.19,0.14 0.19,0.14 0.19,0.15 0.19,0.14 0.2,0.16 0.19,0.15 0.19,0.16 0.19,0.16 0.19,0.17 0.2,0.17 0.19,0.18 0.19,0.18 0.19,0.18 0.19,0.19 0.2,0.19 0.19,0.19 0.19,0.2 0.19,0.21 0.19,0.21 0.2,0.21 0.19,0.22 0.19,0.22 0.19,0.23 0.19,0.24 0.2,0.23 0.19,0.25 0.19,0.25 0.19,0.25 0.19,0.26 0.2,0.26 0.19,0.27 0.19,0.28 0.19,0.28 0.19,0.29 0.2,0.29 0.19,0.3 0.19,0.31 0.19,0.31 0.19,0.31 0.2,0.33 0.19,0.33 0.19,0.34 0.19,0.34 0.19,0.35 0.2,0.35 0.19,0.37 0.19,0.37 0.19,0.37 0.19,0.39 0.2,0.39 0.19,0.4 0.19,0.4 0.19,0.42 0.19,0.42 0.2,0.43 0.19,0.43 0.19,0.45 0.19,0.45 0.19,0.46 0.2,0.46 0.19,0.48 0.19,0.48 0.19,0.49 0.19,0.5 0.2,0.51 0.19,0.52 0.19,0.52 0.19,0.54 0.19,0.54 0.2,0.55 0.19,0.56 0.19,0.57 0.19,0.58 0.19,0.59 0.2,0.59 0.19,0.61 0.19,0.61 0.19,0.63 0.19,0.63 0.2,0.64 0.19,0.65 0.19,0.66 0.19,0.68 0.19,0.68 0.2,0.69 0.19,0.7 0.19,0.71 0.19,0.72 0.19,0.73 0.2,0.74 0.19,0.74 0.19,0.76 0.19,0.77 0.19,0.78 0.2,0.79 0.19,0.8 0.19,0.81 0.19,0.82 0.19,0.83 0.2,0.84 0.19,0.85 0.19,0.86 0.19,0.87 0.19,0.88 0.2,0.9 0.19,0.9 0.19,0.91 0.19,0.92 0.19,0.93 0.2,0.94 0.19,0.96 0.19,0.96 0.19,0.97 0.19,0.98 0.2,1 0.19,1 0.19,1.01 0.19,1.02 0.19,1.04 0.2,1.04 0.19,1.05 0.19,1.06 0.19,1.07 0.19,1.08 0.2,1.09 0.19,1.1 0.19,1.11 0.19,1.12 0.19,1.13 0.2,1.14 0.19,1.14 0.19,1.16 0.19,1.16 0.19,1.17 0.2,1.18 0.19,1.19 0.19,1.2 0.19,1.21 0.19,1.21 0.2,1.22 0.19,1.23 0.19,1.24 0.19,1.24 0.19,1.26 0.2,1.26 0.19,1.26 0.19,1.28 0.19,1.28 0.19,1.29 0.2,1.29 0.19,1.3 0.19,1.31 0.19,1.31 0.19,1.31 0.2,1.33 0.19,1.33 0.19,1.33 0.19,1.34 0.19,1.34 0.2,1.35 0.19,1.35 0.19,1.36 0.19,1.36 0.19,1.36 0.2,1.37 0.19,1.37 0.19,1.37 0.19,1.37 0.19,1.38 0.2,1.38 0.19,1.38 0.19,1.39 0.19,1.38 0.19,1.39 0.2,1.38 0.19,1.39 0.19,1.39 0.19,1.38 0.19,1.39 0.2,1.39 0.19,1.38 0.19,1.39 0.19,1.38 0.19,1.38 0.2,1.38 0.19,1.38 0.19,1.37 0.19,1.37 0.19,1.37 0.2,1.37 0.19,1.36 0.19,1.35 0.19,1.36 0.19,1.34 0.2,1.35 0.19,1.33 0.19,1.34 0.19,1.32 0.19,1.32 0.2,1.31 0.19,1.31 0.19,1.3 0.19,1.29 0.19,1.28 0.2,1.28 0.19,1.26 0.19,1.26 0.19,1.25 0.19,1.24 0.2,1.23 0.19,1.22 0.19,1.21 0.19,1.2 0.19,1.18 0.2,1.18 0.19,1.16 0.19,1.16 0.19,1.14 0.19,1.12 0.2,1.12 0.19,1.1 0.19,1.09 0.19,1.07 0.19,1.06 0.2,1.05 0.19,1.03 0.19,1.02 0.19,1 0.19,0.99 0.2,0.97 0.19,0.95 0.19,0.94 0.19,0.92 0.19,0.91 0.2,0.88 0.19,0.87 0.19,0.86 0.19,0.83 0.19,0.82 0.2,0.8 0.19,0.78 0.19,0.76 0.19,0.75 0.19,0.72 0.2,0.71 0.19,0.68 0.19,0.67 0.19,0.65 0.19,0.62 0.2,0.61 0.19,0.58 0.19,0.57 0.19,0.54 0.19,0.52 0.2,0.5 0.19,0.49 0.19,0.45 0.19,0.44 0.19,0.42 0.2,0.39 0.19,0.37 0.19,0.35 0.19,0.33 0.19,0.31 0.2,0.28 0.19,0.26 0.19,0.24 0.19,0.22 0.19,0.19 0.2,0.17 0.19,0.15 0.19,0.13 0.19,0.1 0.19,0.08 0.2,0.06 0.19,0.03 0.19,0.01 0.19,-0.01 0.19,-0.03 0.2,-0.06 0.19,-0.08 0.19,-0.1 0.19,-0.13 0.19,-0.15 0.2,-0.17 0.19,-0.19 0.19,-0.22 0.19,-0.24 0.19,-0.26 0.2,-0.28 0.19,-0.31 0.19,-0.33 0.19,-0.35 0.19,-0.37 0.2,-0.39 0.19,-0.42 0.19,-0.44 0.19,-0.45 0.19,-0.49 0.2,-0.5 0.19,-0.52 0.19,-0.54 0.19,-0.57 0.19,-0.58 0.2,-0.61 0.19,-0.62 0.19,-0.65 0.19,-0.67 0.19,-0.68 0.2,-0.71 0.19,-0.72 0.19,-0.75 0.19,-0.76 0.19,-0.78 0.2,-0.8 0.19,-0.82 0.19,-0.83 0.19,-0.86 0.19,-0.87 0.2,-0.88 0.19,-0.91 0.19,-0.92 0.19,-0.94 0.19,-0.95 0.2,-0.97 0.19,-0.99 0.19,-1 0.19,-1.02 0.19,-1.03 0.2,-1.05 0.19,-1.06 0.19,-1.07 0.19,-1.09 0.19,-1.1 0.2,-1.12 0.19,-1.12 0.19,-1.14 0.19,-1.16 0.19,-1.16 0.2,-1.18 0.19,-1.18 0.19,-1.2 0.19,-1.21 0.19,-1.22 0.2,-1.23 0.19,-1.24 0.19,-1.25 0.19,-1.26 0.19,-1.26 0.2,-1.28 0.19,-1.28 0.19,-1.29 0.19,-1.3 0.19,-1.31 0.2,-1.31 0.19,-1.32 0.19,-1.32 0.19,-1.34 0.19,-1.33 0.2,-1.35 0.19,-1.34 0.19,-1.36 0.19,-1.35 0.19,-1.36 0.2,-1.37 0.19,-1.37 0.19,-1.37 0.19,-1.37 0.19,-1.38 0.2,-1.38 0.19,-1.38 0.19,-1.38 0.19,-1.39 0.19,-1.38 0.2,-1.39 0.19,-1.39 0.19,-1.38 0.19,-1.39 0.19,-1.39 0.2,-1.38 0.19,-1.39 0.19,-1.38 0.19,-1.39 0.19,-1.38 0.2,-1.38 0.19,-1.38 0.19,-1.37 0.19,-1.37 0.19,-1.37 0.2,-1.37 0.19,-1.36 0.19,-1.36 0.19,-1.36 0.19,-1.35 0.2,-1.35 0.19,-1.34 0.19,-1.34 0.19,-1.33 0.19,-1.33 0.2,-1.33 0.19,-1.31 0.19,-1.31 0.19,-1.31 0.19,-1.3 0.2,-1.29 0.19,-1.29 0.19,-1.28 0.19,-1.28 0.19,-1.26 0.2,-1.26 0.19,-1.26 0.19,-1.24 0.19,-1.24 0.19,-1.23 0.2,-1.22 0.19,-1.21 0.19,-1.21 0.19,-1.2 0.19,-1.19 0.2,-1.18 0.19,-1.17 0.19,-1.16 0.19,-1.16 0.19,-1.14 0.2,-1.14 0.19,-1.13 0.19,-1.12 0.19,-1.11 0.19,-1.1 0.2,-1.09 0.19,-1.08 0.19,-1.07 0.19,-1.06 0.19,-1.05 0.2,-1.04 0.19,-1.04 0.19,-1.02 0.19,-1.01 0.19,-1 0.2,-1 0.19,-0.98 0.19,-0.97 0.19,-0.96 0.19,-0.96 0.2,-0.94 0.19,-0.93 0.19,-0.92 0.19,-0.91 0.19,-0.9 0.2,-0.9 0.19,-0.88 0.19,-0.87 0.19,-0.86 0.19,-0.85 0.2,-0.84 0.19,-0.83 0.19,-0.82 0.19,-0.81 0.19,-0.8 0.2,-0.79 0.19,-0.78 0.19,-0.77 0.19,-0.76 0.19,-0.74 0.2,-0.74 0.19,-0.73 0.19,-0.72 0.19,-0.71 0.19,-0.7 0.2,-0.69 0.19,-0.68 0.19,-0.68 0.19,-0.66 0.19,-0.65 0.2,-0.64 0.19,-0.63 0.19,-0.63 0.19,-0.61 0.19,-0.61 0.2,-0.59 0.19,-0.59 0.19,-0.58 0.19,-0.57 0.19,-0.56 0.2,-0.55 0.19,-0.54 0.19,-0.54 0.19,-0.52 0.19,-0.52 0.2,-0.51 0.19,-0.5 0.19,-0.49 0.19,-0.48 0.19,-0.48 0.2,-0.46 0.19,-0.46 0.19,-0.45 0.19,-0.45 0.19,-0.43 0.2,-0.43 0.19,-0.42 0.19,-0.42 0.19,-0.4 0.19,-0.4 0.2,-0.39 0.19,-0.39 0.19,-0.37 0.19,-0.37 0.19,-0.37 0.2,-0.35 0.19,-0.35 0.19,-0.34 0.19,-0.34 0.19,-0.33 0.2,-0.33 0.19,-0.31 0.19,-0.31 0.19,-0.31 0.19,-0.3 0.2,-0.29 0.19,-0.29 0.19,-0.28 0.19,-0.28 0.19,-0.27 0.2,-0.26 0.19,-0.26 0.19,-0.25 0.19,-0.25 0.19,-0.25 0.2,-0.23 0.19,-0.24 0.19,-0.23 0.19,-0.22 0.19,-0.22 0.2,-0.21 0.19,-0.21 0.19,-0.21 0.19,-0.2 0.19,-0.19 0.2,-0.19 0.19,-0.19 0.19,-0.18 0.19,-0.18 0.19,-0.18 0.2,-0.17 0.19,-0.17 0.19,-0.16 0.19,-0.16 0.19,-0.15 0.2,-0.16 0.19,-0.14 0.19,-0.15 0.19,-0.14 0.19,-0.14 0.2,-0.13 0.19,-0.14 0.19,-0.13 0.19,-0.12 0.19,-0.12 0.2,-0.12 0.19,-0.12 0.19,-0.11 0.19,-0.11 0.19,-0.11 0.2,-0.11 0.19,-0.1 0.19,-0.1 0.19,-0.1 0.19,-0.09 0.2,-0.1 0.19,-0.09 0.19,-0.08 0.19,-0.09 0.19,-0.08 0.2,-0.09 0.19,-0.08 0.19,-0.07 0.19,-0.08 0.19,-0.07 0.2,-0.07 0.19,-0.07 0.19,-0.07 0.19,-0.06 0.19,-0.07 0.2,-0.06 0.19,-0.06 0.19,-0.06 0.19,-0.06 0.19,-0.05 0.2,-0.06 0.19,-0.05 0.19,-0.05 0.19,-0.05 0.19,-0.05 0.2,-0.05 0.19,-0.04 0.19,-0.05 0.19,-0.04 0.19,-0.04 0.2,-0.04 0.19,-0.04 0.19,-0.04 0.19,-0.04 0.19,-0.03 0.2,-0.04 0.19,-0.03 0.19,-0.04 0.19,-0.03 0.19,-0.03 0.2,-0.03 0.19,-0.03 0.19,-0.03 0.19,-0.02 0.19,-0.03 0.2,-0.03 0.19,-0.02 0.19,-0.03 0.19,-0.02 0.19,-0.02 0.2,-0.03 0.19,-0.02 0.19,-0.02 0.19,-0.02 0.19,-0.02 0.2,-0.02 0.19,-0.02 0.19,-0.01 0.19,-0.02 0.19,-0.02 0.2,-0.01 0.19,-0.02 0.19,-0.01 0.19,-0.02 0.19,-0.01 0.2,-0.02 0.19,-0.01 0.19,-0.01 0.19,-0.01 0.19,-0.02 0.2,-0.01 0.19,-0.01 0.19,-0.01 0.19,-0.01 0.19,-0.01 0.2,-0.01 0.19,-0.01 0.19,-0.01 0.19,-0.01 0.19,-0.01 0.2,-0.01 h 0.19 l 0.19,-0.01 0.19,-0.01 0.19,-0.01 h 0.2 l 0.19,-0.01 0.19,-0.01 h 0.19 l 0.19,-0.01 h 0.2 l 0.19,-0.01 0.19,-0.01 h 0.19 l 0.19,-0.01 h 0.2 0.19 l 0.19,-0.01 h 0.19 l 0.19,-0.01 h 0.2 l 0.19,-0.01 h 0.19 0.19 l 0.19,-0.01 h 0.2 0.19 l 0.19,-0.01 h 0.19 0.19 l 0.2,-0.01 h 0.19 0.19 0.19 l 0.19,-0.01 h 0.2 0.19 0.19 0.19 l 0.19,-0.01 h 0.2 0.19 0.19 0.19 l 0.19,-0.01 h 0.2 0.19 0.19 0.19 0.19 0.2 0.19 l 0.19,-0.01 h 0.19 0.19 0.2 0.19 0.19 0.19 0.19 0.2 0.19 l 0.19,-0.01 h 0.19 0.19 0.2 0.19 0.19 0.19 0.19 0.2 0.19 0.19 0.19 0.19 0.2 0.19 0.19 0.19 0.19 l 0.2,-0.01 h 0.19 0.19 0.19 0.19 0.2 0.19 0.19 0.19 0.19 0.2 0.19 0.19 0.19 0.19 0.2 0.19 0.19 0.19 0.19 0.2 0.19 0.19 0.19 0.19 0.2 0.19 0.19 0.19 0.19 0.2 0.19 0.19 0.19 0.19 0.2 0.19 0.19 0.19 0.19 0.2 0.19 0.19 0.19 0.19 0.2 0.19 0.19 0.19 0.19 0.2 0.19 0.19 0.19 0.19 0.2 0.19 0.19 0.19 0.19 0.2 0.19 0.19 0.19 0.19 0.2 0.19 0.19 0.19 0.19 0.2 0.19 0.19 0.19 0.19 0.2 0.19 0.19 0.19 0.19 0.2 0.19 0.19 0.19 0.19 0.2 0.19 0.19 0.19 0.19 0.2 0.19 0.19 0.19 0.19 0.2 0.19 0.19 0.19 0.19 0.2 0.19 0.19 0.19 0.19 0.2 0.19 0.19 0.19 0.19 0.2 0.19 0.19 0.19 0.19 0.2 0.19 0.19 0.19 0.19 0.2 0.19 0.19 0.19 0.19 0.2 0.19 0.19 0.19 0.19 0.2 0.19 0.19 0.19 0.19 0.2 0.19 0.19 0.19 0.19 0.2 0.19 0.19 0.19 0.19 0.2 0.19 0.19 0.19 0.19 0.2 0.19 0.19 0.19 0.19 0.2 0.19 0.19 0.19 0.19 0.2 0.19 0.19 0.19 0.19 0.2 0.19 0.19 0.19 0.19 0.2 0.19 0.19 0.19 0.19 0.2 0.19 0.19 0.19 0.19 0.2 0.19 0.19 0.19 0.19 0.2 0.19 0.19 0.19 0.19 0.2 0.19 0.19 0.19 0.19 0.2 0.19 0.19 0.19 0.19 0.2 0.19 0.19 0.19 0.19 0.2 0.19 0.19 0.19 0.19 0.2 0.19 0.19 0.19 0.19 0.2 0.19 0.19 0.19 0.19 0.2 0.19 0.19 0.19 0.19 0.2 0.19 0.19 0.19 0.19 0.2 0.19 0.19 0.19 0.19 0.2 0.19 0.19 0.19 0.19 0.2 0.19 0.19 0.19 0.19 0.2 0.19 0.19 0.19 0.19 0.2 0.19 0.19 0.19 0.19 0.2 0.19 0.19 0.19 0.19 0.2 0.19 0.19 0.19 0.19 0.2 0.19 0.19 0.19 0.19 0.2 0.19 0.19 0.19 0.19 0.2 0.19 0.19 0.19 0.19 0.2 0.19 0.19 0.19 0.19 0.2 0.19 0.19 0.19 0.19 0.2 0.19 0.19 0.19 0.19 0.2 0.19 0.19 0.19 0.19 0.2 0.19 0.19 0.19 0.19 0.2 0.19 0.19 0.19 0.19 0.2 0.19 0.19 0.19 0.19 0.2 0.19 0.19 0.19 0.19 0.2 0.19 0.19 0.19 0.19 0.2 0.19 0.19 0.19 0.19 0.2 0.19 0.19 0.19 0.19 0.2 0.19 0.19 0.19 0.19 0.2 0.19 0.19 0.19 0.19 0.2 0.19 0.19 0.19 0.19 0.2 0.19 0.19 0.19 0.19 0.2 0.19 0.19 0.19 0.19 0.2 0.19 0.19 0.19 0.19 0.2 0.19 0.19 0.19 0.19 0.2 0.19 0.19 0.19 0.19 0.2 0.19 0.19 0.19 0.19 0.2 0.19 0.19 0.19 0.19 0.2 0.19 0.19 0.19 0.19 0.2 0.19 0.19 0.19 0.19 0.2 0.19 0.19 0.19 0.19 0.2 0.19 0.19 0.19 0.19 0.2 0.19 0.19 0.19 0.19 0.2 0.19 0.19 0.19 0.19 0.2 0.19 0.19 0.19 0.19 0.2 0.19 0.19 0.19 0.19 0.2 0.19 0.19 0.19 0.19 0.2 0.19 0.19 0.19 0.19 0.2 0.19 0.19 0.19 0.19 0.2 0.19 0.19 0.19 0.19 0.2 0.19 0.19 0.19 0.19 0.2 0.19 0.19 0.19 0.19 0.2 0.19 0.19 0.19 0.19 0.2 0.19 0.19 0.19 0.19 0.2 0.19 0.19 0.19 0.19 0.2 0.19 0.19 0.19 0.19 0.2 0.19 0.19 0.19 0.19 0.2 0.19 0.19 0.19 0.19 0.2 0.19 0.19 0.19 0.19 0.2 0.19 0.19 0.19 0.19 0.2 0.19 0.19 0.19 0.19 0.2 0.19 0.19 0.19 0.19 0.2 0.19 0.19 0.19 0.19 0.2 0.19 0.19 0.19 0.19 0.2 0.19 0.19 0.19 0.19 0.2 0.19 0.19 0.19 0.19 0.2 0.19 0.19 0.19 0.19 0.2 0.19 0.19 0.19 0.19 0.2 0.19 0.19 0.19 0.19 0.2 0.19 0.19 0.19 0.19 0.2 0.19 0.19"
                 style="fill:none;stroke:#000000;stroke-width:1.5;stroke-linecap:round;stroke-linejoin:round;stroke-miterlimit:10;stroke-dasharray:none;stroke-opacity:1"
                 id="path32"
                 inkscape:connector-curvature="0" /></g></g><g
             id="g34" /><g
             id="g36"><g
               id="g38"
               clip-path="url(#clipPath42)"><path
                 d="m 74.4,204.38 0.19,0.01 0.19,0.02 0.2,0.02 0.19,0.01 0.19,0.02 0.19,0.01 0.19,0.02 0.2,0.02 0.19,0.01 0.19,0.02 0.19,0.02 0.19,0.01 0.2,0.02 0.19,0.02 0.19,0.01 0.19,0.02 0.19,0.02 0.2,0.02 0.19,0.01 0.19,0.02 0.19,0.02 0.19,0.02 0.2,0.01 0.19,0.02 0.19,0.02 0.19,0.02 0.19,0.01 0.2,0.02 0.19,0.02 0.19,0.02 0.19,0.02 0.19,0.02 0.2,0.01 0.19,0.02 0.19,0.02 0.19,0.02 0.19,0.02 0.2,0.02 0.19,0.02 0.19,0.02 0.19,0.02 0.19,0.02 0.2,0.01 0.19,0.02 0.19,0.02 0.19,0.02 0.19,0.02 0.2,0.02 0.19,0.02 0.19,0.02 0.19,0.02 0.19,0.02 0.2,0.03 0.19,0.02 0.19,0.02 0.19,0.02 0.19,0.02 0.2,0.02 0.19,0.02 0.19,0.02 0.19,0.02 0.19,0.02 0.2,0.03 0.19,0.02 0.19,0.02 0.19,0.02 0.19,0.02 0.2,0.02 0.19,0.03 0.19,0.02 0.19,0.02 0.19,0.02 0.2,0.03 0.19,0.02 0.19,0.02 0.19,0.02 0.19,0.03 0.2,0.02 0.19,0.02 0.19,0.03 0.19,0.02 0.19,0.02 0.2,0.03 0.19,0.02 0.19,0.02 0.19,0.03 0.19,0.02 0.2,0.03 0.19,0.02 0.19,0.03 0.19,0.02 0.19,0.02 0.2,0.03 0.19,0.02 0.19,0.03 0.19,0.02 0.19,0.03 0.2,0.03 0.19,0.02 0.19,0.03 0.19,0.02 0.19,0.03 0.2,0.02 0.19,0.03 0.19,0.03 0.19,0.02 0.19,0.03 0.2,0.02 0.19,0.03 0.19,0.03 0.19,0.02 0.19,0.03 0.2,0.03 0.19,0.03 0.19,0.02 0.19,0.03 0.19,0.03 0.2,0.03 0.19,0.02 0.19,0.03 0.19,0.03 0.19,0.03 0.2,0.03 0.19,0.02 0.19,0.03 0.19,0.03 0.19,0.03 0.2,0.03 0.19,0.03 0.19,0.03 0.19,0.03 0.19,0.03 0.2,0.03 0.19,0.02 0.19,0.03 0.19,0.03 0.19,0.03 0.2,0.03 0.19,0.04 0.19,0.03 0.19,0.03 0.19,0.03 0.2,0.03 0.19,0.03 0.19,0.03 0.19,0.03 0.19,0.03 0.2,0.03 0.19,0.03 0.19,0.04 0.19,0.03 0.19,0.03 0.2,0.03 0.19,0.03 0.19,0.04 0.19,0.03 0.19,0.03 0.2,0.04 0.19,0.03 0.19,0.03 0.19,0.03 0.19,0.04 0.2,0.03 0.19,0.03 0.19,0.04 0.19,0.03 0.19,0.04 0.2,0.03 0.19,0.03 0.19,0.04 0.19,0.03 0.19,0.04 0.2,0.03 0.19,0.04 0.19,0.03 0.19,0.04 0.19,0.03 0.2,0.04 0.19,0.03 0.19,0.04 0.19,0.04 0.19,0.03 0.2,0.04 0.19,0.03 0.19,0.04 0.19,0.04 0.19,0.03 0.2,0.04 0.19,0.04 0.19,0.04 0.19,0.03 0.19,0.04 0.2,0.04 0.19,0.04 0.19,0.03 0.19,0.04 0.19,0.04 0.2,0.04 0.19,0.04 0.19,0.04 0.19,0.03 0.19,0.04 0.2,0.04 0.19,0.04 0.19,0.04 0.19,0.04 0.19,0.04 0.2,0.04 0.19,0.04 0.19,0.04 0.19,0.04 0.19,0.04 0.2,0.04 0.19,0.04 0.19,0.04 0.19,0.04 0.19,0.04 0.2,0.05 0.19,0.04 0.19,0.04 0.19,0.04 0.19,0.04 0.2,0.04 0.19,0.05 0.19,0.04 0.19,0.04 0.19,0.04 0.2,0.05 0.19,0.04 0.19,0.04 0.19,0.05 0.19,0.04 0.2,0.04 0.19,0.05 0.19,0.04 0.19,0.04 0.19,0.05 0.2,0.04 0.19,0.05 0.19,0.04 0.19,0.05 0.19,0.04 0.2,0.05 0.19,0.04 0.19,0.05 0.19,0.04 0.19,0.05 0.2,0.04 0.19,0.05 0.19,0.05 0.19,0.04 0.19,0.05 0.2,0.05 0.19,0.04 0.19,0.05 0.19,0.05 0.19,0.04 0.2,0.05 0.19,0.05 0.19,0.05 0.19,0.04 0.19,0.05 0.2,0.05 0.19,0.05 0.19,0.05 0.19,0.05 0.19,0.04 0.2,0.05 0.19,0.05 0.19,0.05 0.19,0.05 0.19,0.05 0.2,0.05 0.19,0.05 0.19,0.05 0.19,0.05 0.19,0.05 0.2,0.05 0.19,0.05 0.19,0.05 0.19,0.05 0.19,0.06 0.2,0.05 0.19,0.05 0.19,0.05 0.19,0.05 0.19,0.05 0.2,0.06 0.19,0.05 0.19,0.05 0.19,0.05 0.19,0.06 0.2,0.05 0.19,0.05 0.19,0.05 0.19,0.06 0.19,0.05 0.2,0.06 0.19,0.05 0.19,0.05 0.19,0.06 0.19,0.05 0.2,0.06 0.19,0.05 0.19,0.06 0.19,0.05 0.19,0.06 0.2,0.05 0.19,0.06 0.19,0.05 0.19,0.06 0.19,0.05 0.2,0.06 0.19,0.06 0.19,0.05 0.19,0.06 0.19,0.06 0.2,0.05 0.19,0.06 0.19,0.06 0.19,0.05 0.19,0.06 0.2,0.06 0.19,0.06 0.19,0.06 0.19,0.05 0.19,0.06 0.2,0.06 0.19,0.06 0.19,0.06 0.19,0.06 0.19,0.06 0.2,0.06 0.19,0.05 0.19,0.06 0.19,0.06 0.19,0.06 0.2,0.06 0.19,0.06 0.19,0.06 0.19,0.07 0.19,0.06 0.2,0.06 0.19,0.06 0.19,0.06 0.19,0.06 0.19,0.06 0.2,0.06 0.19,0.07 0.19,0.06 0.19,0.06 0.19,0.06 0.2,0.06 0.19,0.07 0.19,0.06 0.19,0.06 0.19,0.07 0.2,0.06 0.19,0.06 0.19,0.07 0.19,0.06 0.19,0.06 0.2,0.07 0.19,0.06 0.19,0.07 0.19,0.06 0.19,0.06 0.2,0.07 0.19,0.06 0.19,0.07 0.19,0.06 0.19,0.07 0.2,0.07 0.19,0.06 0.19,0.07 0.19,0.06 0.19,0.07 0.2,0.06 0.19,0.07 0.19,0.07 0.19,0.06 0.19,0.07 0.2,0.07 0.19,0.07 0.19,0.06 0.19,0.07 0.19,0.07 0.2,0.07 0.19,0.06 0.19,0.07 0.19,0.07 0.19,0.07 0.2,0.07 0.19,0.07 0.19,0.06 0.19,0.07 0.19,0.07 0.2,0.07 0.19,0.07 0.19,0.07 0.19,0.07 0.19,0.07 0.2,0.07 0.19,0.07 0.19,0.07 0.19,0.07 0.19,0.07 0.2,0.07 0.19,0.07 0.19,0.07 0.19,0.08 0.19,0.07 0.2,0.07 0.19,0.07 0.19,0.07 0.19,0.07 0.19,0.07 0.2,0.08 0.19,0.07 0.19,0.07 0.19,0.07 0.19,0.08 0.2,0.07 0.19,0.07 0.19,0.08 0.19,0.07 0.19,0.07 0.2,0.08 0.19,0.07 0.19,0.07 0.19,0.08 0.19,0.07 0.2,0.07 0.19,0.08 0.19,0.07 0.19,0.08 0.19,0.07 0.2,0.08 0.19,0.07 0.19,0.08 0.19,0.07 0.19,0.08 0.2,0.07 0.19,0.08 0.19,0.07 0.19,0.08 0.19,0.08 0.2,0.07 0.19,0.08 0.19,0.08 0.19,0.07 0.19,0.08 0.2,0.07 0.19,0.08 0.19,0.08 0.19,0.08 0.19,0.07 0.2,0.08 0.19,0.08 0.19,0.07 0.19,0.08 0.19,0.08 0.2,0.08 0.19,0.08 0.19,0.07 0.19,0.08 0.19,0.08 0.2,0.08 0.19,0.08 0.19,0.08 0.19,0.08 0.19,0.07 0.2,0.08 0.19,0.08 0.19,0.08 0.19,0.08 0.19,0.08 0.2,0.08 0.19,0.08 0.19,0.08 0.19,0.08 0.19,0.08 0.2,0.08 0.19,0.08 0.19,0.08 0.19,0.08 0.19,0.08 0.2,0.08 0.19,0.08 0.19,0.08 0.19,0.08 0.19,0.08 0.2,0.09 0.19,0.08 0.19,0.08 0.19,0.08 0.19,0.08 0.2,0.08 0.19,0.08 0.19,0.09 0.19,0.08 0.19,0.08 0.2,0.08 0.19,0.08 0.19,0.09 0.19,0.08 0.19,0.08 0.2,0.08 0.19,0.09 0.19,0.08 0.19,0.08 0.19,0.08 0.2,0.09 0.19,0.08 0.19,0.08 0.19,0.09 0.19,0.08 0.2,0.08 0.19,0.09 0.19,0.08 0.19,0.08 0.19,0.09 0.2,0.08 0.19,0.08 0.19,0.09 0.19,0.08 0.19,0.09 0.2,0.08 0.19,0.08 0.19,0.09 0.19,0.08 0.19,0.09 0.2,0.08 0.19,0.09 0.19,0.08 0.19,0.09 0.19,0.08 0.2,0.08 0.19,0.09 0.19,0.08 0.19,0.09 0.19,0.08 0.2,0.09 0.19,0.08 0.19,0.09 0.19,0.08 0.19,0.09 0.2,0.08 0.19,0.09 0.19,0.09 0.19,0.08 0.19,0.09 0.2,0.08 0.19,0.09 0.19,0.08 0.19,0.09 0.19,0.08 0.2,0.09 0.19,0.09 0.19,0.08 0.19,0.09 0.19,0.08 0.2,0.09 0.19,0.09 0.19,0.08 0.19,0.09 0.19,0.08 0.2,0.09 0.19,0.09 0.19,0.08 0.19,0.09 0.19,0.09 0.2,0.08 0.19,0.09 0.19,0.08 0.19,0.09 0.19,0.09 0.2,0.08 0.19,0.09 0.19,0.09 0.19,0.08 0.19,0.09 0.2,0.09 0.19,0.08 0.19,0.09 0.19,0.09 0.19,0.08 0.2,0.09 0.19,0.09 0.19,0.08 0.19,0.09 0.19,0.09 0.2,0.08 0.19,0.09 0.19,0.09 0.19,0.08 0.19,0.09 0.2,0.09 0.19,0.08 0.19,0.09 0.19,0.09 0.19,0.08 0.2,0.09 0.19,0.09 0.19,0.08 0.19,0.09 0.19,0.09 0.2,0.08 0.19,0.09 0.19,0.09 0.19,0.08 0.19,0.09 0.2,0.09 0.19,0.08 0.19,0.09 0.19,0.09 0.19,0.08 0.2,0.09 0.19,0.09 0.19,0.08 0.19,0.09 0.19,0.08 0.2,0.09 0.19,0.09 0.19,0.08 0.19,0.09 0.19,0.09 0.2,0.08 0.19,0.09 0.19,0.09 0.19,0.08 0.19,0.09 0.2,0.08 0.19,0.09 0.19,0.09 0.19,0.08 0.19,0.09 0.2,0.08 0.19,0.09 0.19,0.09 0.19,0.08 0.19,0.09 0.2,0.08 0.19,0.09 0.19,0.08 0.19,0.09 0.19,0.09 0.2,0.08 0.19,0.09 0.19,0.08 0.19,0.09 0.19,0.08 0.2,0.09 0.19,0.08 0.19,0.09 0.19,0.08 0.19,0.09 0.2,0.08 0.19,0.09 0.19,0.08 0.19,0.09 0.19,0.08 0.2,0.08 0.19,0.09 0.19,0.08 0.19,0.09 0.19,0.08 0.2,0.09 0.19,0.08 0.19,0.08 0.19,0.09 0.19,0.08 0.2,0.09 0.19,0.08 0.19,0.08 0.19,0.09 0.19,0.08 0.2,0.08 0.19,0.09 0.19,0.08 0.19,0.08 0.19,0.09 0.2,0.08 0.19,0.08 0.19,0.08 0.19,0.09 0.19,0.08 0.2,0.08 0.19,0.08 0.19,0.08 0.19,0.09 0.19,0.08 0.2,0.08 0.19,0.08 0.19,0.08 0.19,0.09 0.19,0.08 0.2,0.08 0.19,0.08 0.19,0.08 0.19,0.08 0.19,0.08 0.2,0.08 0.19,0.08 0.19,0.08 0.19,0.08 0.19,0.08 0.2,0.08 0.19,0.08 0.19,0.08 0.19,0.08 0.19,0.08 0.2,0.08 0.19,0.08 0.19,0.08 0.19,0.08 0.19,0.08 0.2,0.08 0.19,0.07 0.19,0.08 0.19,0.08 0.19,0.08 0.2,0.08 0.19,0.08 0.19,0.07 0.19,0.08 0.19,0.08 0.2,0.07 0.19,0.08 0.19,0.08 0.19,0.08 0.19,0.07 0.2,0.08 0.19,0.08 0.19,0.07 0.19,0.08 0.19,0.07 0.2,0.08 0.19,0.07 0.19,0.08 0.19,0.07 0.19,0.08 0.2,0.07 0.19,0.08 0.19,0.07 0.19,0.08 0.19,0.07 0.2,0.08 0.19,0.07 0.19,0.07 0.19,0.08 0.19,0.07 0.2,0.07 0.19,0.08 0.19,0.07 0.19,0.07 0.19,0.07 0.2,0.08 0.19,0.07 0.19,0.07 0.19,0.07 0.19,0.07 0.2,0.07 0.19,0.07 0.19,0.07 0.19,0.08 0.19,0.07 0.2,0.07 0.19,0.07 0.19,0.07 0.19,0.07 0.19,0.06 0.2,0.07 0.19,0.07 0.19,0.07 0.19,0.07 0.19,0.07 0.2,0.07 0.19,0.06 0.19,0.07 0.19,0.07 0.19,0.07 0.2,0.06 0.19,0.07 0.19,0.07 0.19,0.06 0.19,0.07 0.2,0.07 0.19,0.06 0.19,0.07 0.19,0.06 0.19,0.07 0.2,0.06 0.19,0.07 0.19,0.06 0.19,0.07 0.19,0.06 0.2,0.06 0.19,0.07 0.19,0.06 0.19,0.06 0.19,0.07 0.2,0.06 0.19,0.06 0.19,0.06 0.19,0.06 0.19,0.07 0.2,0.06 0.19,0.06 0.19,0.06 0.19,0.06 0.19,0.06 0.2,0.06 0.19,0.06 0.19,0.06 0.19,0.06 0.19,0.06 0.2,0.06 0.19,0.05 0.19,0.06 0.19,0.06 0.19,0.06 0.2,0.06 0.19,0.05 0.19,0.06 0.19,0.06 0.19,0.05 0.2,0.06 0.19,0.05 0.19,0.06 0.19,0.06 0.19,0.05 0.2,0.06 0.19,0.05 0.19,0.05 0.19,0.06 0.19,0.05 0.2,0.06 0.19,0.05 0.19,0.05 0.19,0.05 0.19,0.06 0.2,0.05 0.19,0.05 0.19,0.05 0.19,0.05 0.19,0.05 0.2,0.06 0.19,0.05 0.19,0.05 0.19,0.05 0.19,0.05 0.2,0.04 0.19,0.05 0.19,0.05 0.19,0.05 0.19,0.05 0.2,0.05 0.19,0.04 0.19,0.05 0.19,0.05 0.19,0.04 0.2,0.05 0.19,0.05 0.19,0.04 0.19,0.05 0.19,0.04 0.2,0.05 0.19,0.04 0.19,0.05 0.19,0.04 0.19,0.04 0.2,0.05 0.19,0.04 0.19,0.04 0.19,0.05 0.19,0.04 0.2,0.04 0.19,0.04 0.19,0.04 0.19,0.04 0.19,0.04 0.2,0.04 0.19,0.04 0.19,0.04 0.19,0.04 0.19,0.04 0.2,0.04 0.19,0.04 0.19,0.04 0.19,0.03 0.19,0.04 0.2,0.04 0.19,0.04 0.19,0.03 0.19,0.04 0.19,0.03 0.2,0.04 0.19,0.03 0.19,0.04 0.19,0.03 0.19,0.04 0.2,0.03 0.19,0.04 0.19,0.03 0.19,0.03 0.19,0.03 0.2,0.04 0.19,0.03 0.19,0.03 0.19,0.03 0.19,0.03 0.2,0.03 0.19,0.03 0.19,0.03 0.19,0.03 0.19,0.03 0.2,0.03 0.19,0.03 0.19,0.03 0.19,0.02 0.19,0.03 0.2,0.03 0.19,0.03 0.19,0.02 0.19,0.03 0.19,0.02 0.2,0.03 0.19,0.02 0.19,0.03 0.19,0.02 0.19,0.03 0.2,0.02 0.19,0.03 0.19,0.02 0.19,0.02 0.19,0.02 0.2,0.03 0.19,0.02 0.19,0.02 0.19,0.02 0.19,0.02 0.2,0.02 0.19,0.02 0.19,0.02 0.19,0.02 0.19,0.02 0.2,0.02 0.19,0.02 0.19,0.01 0.19,0.02 0.19,0.02 0.2,0.02 0.19,0.01 0.19,0.02 0.19,0.01 0.19,0.02 0.2,0.01 0.19,0.02 0.19,0.01 0.19,0.02 0.19,0.01 0.2,0.01 0.19,0.02 0.19,0.01 0.19,0.01 0.19,0.01 0.2,0.02 0.19,0.01 0.19,0.01 0.19,0.01 0.19,0.01 0.2,0.01 0.19,0.01 0.19,0.01 0.19,0.01 h 0.19 l 0.2,0.01 0.19,0.01 0.19,0.01 h 0.19 l 0.19,0.01 0.2,0.01 h 0.19 l 0.19,0.01 h 0.19 l 0.19,0.01 h 0.2 l 0.19,0.01 h 0.19 0.19 l 0.19,0.01 h 0.2 0.19 0.19 l 0.19,0.01 h 0.19 0.2 0.19 0.19 0.19 0.19 0.2 0.19 l 0.19,-0.01 h 0.19 0.19 0.2 l 0.19,-0.01 h 0.19 0.19 l 0.19,-0.01 h 0.2 l 0.19,-0.01 h 0.19 l 0.19,-0.01 h 0.19 l 0.2,-0.01 0.19,-0.01 h 0.19 l 0.19,-0.01 0.19,-0.01 0.2,-0.01 h 0.19 l 0.19,-0.01 0.19,-0.01 0.19,-0.01 0.2,-0.01 0.19,-0.01 0.19,-0.01 0.19,-0.01 0.19,-0.01 0.2,-0.02 0.19,-0.01 0.19,-0.01 0.19,-0.01 0.19,-0.02 0.2,-0.01 0.19,-0.01 0.19,-0.02 0.19,-0.01 0.19,-0.02 0.2,-0.01 0.19,-0.02 0.19,-0.01 0.19,-0.02 0.19,-0.01 0.2,-0.02 0.19,-0.02 0.19,-0.02 0.19,-0.01 0.19,-0.02 0.2,-0.02 0.19,-0.02 0.19,-0.02 0.19,-0.02 0.19,-0.02 0.2,-0.02 0.19,-0.02 0.19,-0.02 0.19,-0.02 0.19,-0.02 0.2,-0.03 0.19,-0.02 0.19,-0.02 0.19,-0.02 0.19,-0.03 0.2,-0.02 0.19,-0.03 0.19,-0.02 0.19,-0.03 0.19,-0.02 0.2,-0.03 0.19,-0.02 0.19,-0.03 0.19,-0.02 0.19,-0.03 0.2,-0.03 0.19,-0.03 0.19,-0.02 0.19,-0.03 0.19,-0.03 0.2,-0.03 0.19,-0.03 0.19,-0.03 0.19,-0.03 0.19,-0.03 0.2,-0.03 0.19,-0.03 0.19,-0.03 0.19,-0.03 0.19,-0.03 0.2,-0.04 0.19,-0.03 0.19,-0.03 0.19,-0.03 0.19,-0.04 0.2,-0.03 0.19,-0.04 0.19,-0.03 0.19,-0.04 0.19,-0.03 0.2,-0.04 0.19,-0.03 0.19,-0.04 0.19,-0.03 0.19,-0.04 0.2,-0.04 0.19,-0.04 0.19,-0.03 0.19,-0.04 0.19,-0.04 0.2,-0.04 0.19,-0.04 0.19,-0.04 0.19,-0.04 0.19,-0.04 0.2,-0.04 0.19,-0.04 0.19,-0.04 0.19,-0.04 0.19,-0.04 0.2,-0.04 0.19,-0.04 0.19,-0.05 0.19,-0.04 0.19,-0.04 0.2,-0.05 0.19,-0.04 0.19,-0.04 0.19,-0.05 0.19,-0.04 0.2,-0.05 0.19,-0.04 0.19,-0.05 0.19,-0.04 0.19,-0.05 0.2,-0.05 0.19,-0.04 0.19,-0.05 0.19,-0.05 0.19,-0.04 0.2,-0.05 0.19,-0.05 0.19,-0.05 0.19,-0.05 0.19,-0.05 0.2,-0.04 0.19,-0.05 0.19,-0.05 0.19,-0.05 0.19,-0.05 0.2,-0.06 0.19,-0.05 0.19,-0.05 0.19,-0.05 0.19,-0.05 0.2,-0.05 0.19,-0.06 0.19,-0.05 0.19,-0.05 0.19,-0.05 0.2,-0.06 0.19,-0.05 0.19,-0.06 0.19,-0.05 0.19,-0.05 0.2,-0.06 0.19,-0.05 0.19,-0.06 0.19,-0.06 0.19,-0.05 0.2,-0.06 0.19,-0.05 0.19,-0.06 0.19,-0.06 0.19,-0.05 0.2,-0.06 0.19,-0.06 0.19,-0.06 0.19,-0.06 0.19,-0.05 0.2,-0.06 0.19,-0.06 0.19,-0.06 0.19,-0.06 0.19,-0.06 0.2,-0.06 0.19,-0.06 0.19,-0.06 0.19,-0.06 0.19,-0.06 0.2,-0.06 0.19,-0.07 0.19,-0.06 0.19,-0.06 0.19,-0.06 0.2,-0.06 0.19,-0.07 0.19,-0.06 0.19,-0.06 0.19,-0.07 0.2,-0.06 0.19,-0.06 0.19,-0.07 0.19,-0.06 0.19,-0.07 0.2,-0.06 0.19,-0.07 0.19,-0.06 0.19,-0.07 0.19,-0.06 0.2,-0.07 0.19,-0.07 0.19,-0.06 0.19,-0.07 0.19,-0.07 0.2,-0.06 0.19,-0.07 0.19,-0.07 0.19,-0.07 0.19,-0.06 0.2,-0.07 0.19,-0.07 0.19,-0.07 0.19,-0.07 0.19,-0.07 0.2,-0.07 0.19,-0.06 0.19,-0.07 0.19,-0.07 0.19,-0.07 0.2,-0.07 0.19,-0.07 0.19,-0.08 0.19,-0.07 0.19,-0.07 0.2,-0.07 0.19,-0.07 0.19,-0.07 0.19,-0.07 0.19,-0.07 0.2,-0.08 0.19,-0.07 0.19,-0.07 0.19,-0.07 0.19,-0.08 0.2,-0.07 0.19,-0.07 0.19,-0.08 0.19,-0.07 0.19,-0.07 0.2,-0.08 0.19,-0.07 0.19,-0.08 0.19,-0.07 0.19,-0.08 0.2,-0.07 0.19,-0.08 0.19,-0.07 0.19,-0.08 0.19,-0.07 0.2,-0.08 0.19,-0.07 0.19,-0.08 0.19,-0.07 0.19,-0.08 0.2,-0.08 0.19,-0.07 0.19,-0.08 0.19,-0.08 0.19,-0.08 0.2,-0.07 0.19,-0.08 0.19,-0.08 0.19,-0.07 0.19,-0.08 0.2,-0.08 0.19,-0.08 0.19,-0.08 0.19,-0.08 0.19,-0.07 0.2,-0.08 0.19,-0.08 0.19,-0.08 0.19,-0.08 0.19,-0.08 0.2,-0.08 0.19,-0.08 0.19,-0.08 0.19,-0.08 0.19,-0.08 0.2,-0.08 0.19,-0.08 0.19,-0.08 0.19,-0.08 0.19,-0.08 0.2,-0.08 0.19,-0.08 0.19,-0.08 0.19,-0.08 0.19,-0.08 0.2,-0.08 0.19,-0.08 0.19,-0.09 0.19,-0.08 0.19,-0.08 0.2,-0.08 0.19,-0.08 0.19,-0.09 0.19,-0.08 0.19,-0.08 0.2,-0.08 0.19,-0.08 0.19,-0.09 0.19,-0.08 0.19,-0.08 0.2,-0.08 0.19,-0.09 0.19,-0.08 0.19,-0.08 0.19,-0.09 0.2,-0.08 0.19,-0.08 0.19,-0.09 0.19,-0.08 0.19,-0.08 0.2,-0.09 0.19,-0.08 0.19,-0.09 0.19,-0.08 0.19,-0.08 0.2,-0.09 0.19,-0.08 0.19,-0.09 0.19,-0.08 0.19,-0.09 0.2,-0.08 0.19,-0.08 0.19,-0.09 0.19,-0.08 0.19,-0.09 0.2,-0.08 0.19,-0.09 0.19,-0.08 0.19,-0.09 0.19,-0.08 0.2,-0.09 0.19,-0.08 0.19,-0.09 0.19,-0.08 0.19,-0.09 0.2,-0.08 0.19,-0.09 0.19,-0.09 0.19,-0.08 0.19,-0.09 0.2,-0.08 0.19,-0.09 0.19,-0.08 0.19,-0.09 0.19,-0.09 0.2,-0.08 0.19,-0.09 0.19,-0.08 0.19,-0.09 0.19,-0.09 0.2,-0.08 0.19,-0.09 0.19,-0.08 0.19,-0.09 0.19,-0.09 0.2,-0.08 0.19,-0.09 0.19,-0.09 0.19,-0.08 0.19,-0.09 0.2,-0.09 0.19,-0.08 0.19,-0.09 0.19,-0.08 0.19,-0.09 0.2,-0.09 0.19,-0.08 0.19,-0.09 0.19,-0.09 0.19,-0.08 0.2,-0.09 0.19,-0.09 0.19,-0.08 0.19,-0.09 0.19,-0.09 0.2,-0.08 0.19,-0.09 0.19,-0.09 0.19,-0.08 0.19,-0.09 0.2,-0.09 0.19,-0.08 0.19,-0.09 0.19,-0.09 0.19,-0.08 0.2,-0.09 0.19,-0.09 0.19,-0.08 0.19,-0.09 0.19,-0.09 0.2,-0.08 0.19,-0.09 0.19,-0.09 0.19,-0.08 0.19,-0.09 0.2,-0.09 0.19,-0.08 0.19,-0.09 0.19,-0.09 0.19,-0.08 0.2,-0.09 0.19,-0.09 0.19,-0.08 0.19,-0.09 0.19,-0.09 0.2,-0.08 0.19,-0.09 0.19,-0.09 0.19,-0.08 0.19,-0.09 0.2,-0.08 0.19,-0.09 0.19,-0.09 0.19,-0.08 0.19,-0.09 0.2,-0.09 0.19,-0.08 0.19,-0.09 0.19,-0.08 0.19,-0.09 0.2,-0.09 0.19,-0.08 0.19,-0.09 0.19,-0.08 0.19,-0.09 0.2,-0.09 0.19,-0.08 0.19,-0.09 0.19,-0.08 0.19,-0.09 0.2,-0.08 0.19,-0.09 0.19,-0.08 0.19,-0.09 0.19,-0.09 0.2,-0.08 0.19,-0.09 0.19,-0.08 0.19,-0.09 0.19,-0.08 0.2,-0.09 0.19,-0.08 0.19,-0.09 0.19,-0.08 0.19,-0.09 0.2,-0.08 0.19,-0.08 0.19,-0.09 0.19,-0.08 0.19,-0.09 0.2,-0.08 0.19,-0.09 0.19,-0.08 0.19,-0.09 0.19,-0.08 0.2,-0.08 0.19,-0.09 0.19,-0.08 0.19,-0.09 0.19,-0.08 0.2,-0.08 0.19,-0.09 0.19,-0.08 0.19,-0.08 0.19,-0.09 0.2,-0.08 0.19,-0.08 0.19,-0.09 0.19,-0.08 0.19,-0.08 0.2,-0.09 0.19,-0.08 0.19,-0.08 0.19,-0.08 0.19,-0.09 0.2,-0.08 0.19,-0.08 0.19,-0.08 0.19,-0.09 0.19,-0.08 0.2,-0.08 0.19,-0.08 0.19,-0.08 0.19,-0.09 0.19,-0.08 0.2,-0.08 0.19,-0.08 0.19,-0.08 0.19,-0.08 0.19,-0.08 0.2,-0.09 0.19,-0.08 0.19,-0.08 0.19,-0.08 0.19,-0.08 0.2,-0.08 0.19,-0.08 0.19,-0.08 0.19,-0.08 0.19,-0.08 0.2,-0.08 0.19,-0.08 0.19,-0.08 0.19,-0.08 0.19,-0.08 0.2,-0.08 0.19,-0.08 0.19,-0.08 0.19,-0.08 0.19,-0.08 0.2,-0.08 0.19,-0.07 0.19,-0.08 0.19,-0.08 0.19,-0.08 0.2,-0.08 0.19,-0.08 0.19,-0.08 0.19,-0.07 0.19,-0.08 0.2,-0.08 0.19,-0.08 0.19,-0.08 0.19,-0.07 0.19,-0.08 0.2,-0.08 0.19,-0.07 0.19,-0.08 0.19,-0.08 0.19,-0.08 0.2,-0.07 0.19,-0.08 0.19,-0.07 0.19,-0.08 0.19,-0.08 0.2,-0.07 0.19,-0.08 0.19,-0.08 0.19,-0.07 0.19,-0.08 0.2,-0.07 0.19,-0.08 0.19,-0.07 0.19,-0.08 0.19,-0.07 0.2,-0.08 0.19,-0.07 0.19,-0.08 0.19,-0.07 0.19,-0.08 0.2,-0.07 0.19,-0.07 0.19,-0.08 0.19,-0.07 0.19,-0.07 0.2,-0.08 0.19,-0.07 0.19,-0.07 0.19,-0.08 0.19,-0.07 0.2,-0.07 0.19,-0.08 0.19,-0.07 0.19,-0.07 0.19,-0.07 0.2,-0.08 0.19,-0.07 0.19,-0.07 0.19,-0.07 0.19,-0.07 0.2,-0.07 0.19,-0.07 0.19,-0.08 0.19,-0.07 0.19,-0.07 0.2,-0.07 0.19,-0.07 0.19,-0.07 0.19,-0.07 0.19,-0.07 0.2,-0.07 0.19,-0.07 0.19,-0.07 0.19,-0.07 0.19,-0.07 0.2,-0.07 0.19,-0.07 0.19,-0.07 0.19,-0.06 0.19,-0.07 0.2,-0.07 0.19,-0.07 0.19,-0.07 0.19,-0.07 0.19,-0.06 0.2,-0.07 0.19,-0.07 0.19,-0.07 0.19,-0.06 0.19,-0.07 0.2,-0.07 0.19,-0.07 0.19,-0.06 0.19,-0.07 0.19,-0.07 0.2,-0.06 0.19,-0.07 0.19,-0.06 0.19,-0.07 0.19,-0.06 0.2,-0.07 0.19,-0.07 0.19,-0.06 0.19,-0.07 0.19,-0.06 0.2,-0.07 0.19,-0.06 0.19,-0.06 0.19,-0.07 0.19,-0.06 0.2,-0.07 0.19,-0.06 0.19,-0.06 0.19,-0.07 0.19,-0.06 0.2,-0.06 0.19,-0.07 0.19,-0.06 0.19,-0.06 0.19,-0.07 0.2,-0.06 0.19,-0.06 0.19,-0.06 0.19,-0.06 0.19,-0.07 0.2,-0.06 0.19,-0.06 0.19,-0.06 0.19,-0.06 0.19,-0.06 0.2,-0.06 0.19,-0.06 0.19,-0.07 0.19,-0.06 0.19,-0.06 0.2,-0.06 0.19,-0.06 0.19,-0.06 0.19,-0.06 0.19,-0.05 0.2,-0.06 0.19,-0.06 0.19,-0.06 0.19,-0.06 0.19,-0.06 0.2,-0.06 0.19,-0.06 0.19,-0.05 0.19,-0.06 0.19,-0.06 0.2,-0.06 0.19,-0.06 0.19,-0.05 0.19,-0.06 0.19,-0.06 0.2,-0.05 0.19,-0.06 0.19,-0.06 0.19,-0.05 0.19,-0.06 0.2,-0.06 0.19,-0.05 0.19,-0.06 0.19,-0.05 0.19,-0.06 0.2,-0.05 0.19,-0.06 0.19,-0.05 0.19,-0.06 0.19,-0.05 0.2,-0.06 0.19,-0.05 0.19,-0.06 0.19,-0.05 0.19,-0.05 0.2,-0.06 0.19,-0.05 0.19,-0.06 0.19,-0.05 0.19,-0.05 0.2,-0.05 0.19,-0.06 0.19,-0.05 0.19,-0.05 0.19,-0.05 0.2,-0.06 0.19,-0.05 0.19,-0.05 0.19,-0.05 0.19,-0.05 0.2,-0.05 0.19,-0.06 0.19,-0.05 0.19,-0.05 0.19,-0.05 0.2,-0.05 0.19,-0.05 0.19,-0.05 0.19,-0.05 0.19,-0.05 0.2,-0.05 0.19,-0.05 0.19,-0.05 0.19,-0.05 0.19,-0.05 0.2,-0.05 0.19,-0.04 0.19,-0.05 0.19,-0.05 0.19,-0.05 0.2,-0.05 0.19,-0.05 0.19,-0.04 0.19,-0.05 0.19,-0.05 0.2,-0.05 0.19,-0.04 0.19,-0.05 0.19,-0.05 0.19,-0.04 0.2,-0.05 0.19,-0.05 0.19,-0.04 0.19,-0.05 0.19,-0.05 0.2,-0.04 0.19,-0.05 0.19,-0.04 0.19,-0.05 0.19,-0.04 0.2,-0.05 0.19,-0.04 0.19,-0.05 0.19,-0.04 0.19,-0.05 0.2,-0.04 0.19,-0.05 0.19,-0.04 0.19,-0.04 0.19,-0.05 0.2,-0.04 0.19,-0.04 0.19,-0.05 0.19,-0.04 0.19,-0.04 0.2,-0.05 0.19,-0.04 0.19,-0.04 0.19,-0.04 0.19,-0.05 0.2,-0.04 0.19,-0.04 0.19,-0.04 0.19,-0.04 0.19,-0.04 0.2,-0.05 0.19,-0.04 0.19,-0.04 0.19,-0.04 0.19,-0.04 0.2,-0.04 0.19,-0.04 0.19,-0.04 0.19,-0.04 0.19,-0.04 0.2,-0.04 0.19,-0.04 0.19,-0.04 0.19,-0.04 0.19,-0.04 0.2,-0.04 0.19,-0.04 0.19,-0.03 0.19,-0.04 0.19,-0.04 0.2,-0.04 0.19,-0.04 0.19,-0.04 0.19,-0.03 0.19,-0.04 0.2,-0.04 0.19,-0.04 0.19,-0.03 0.19,-0.04 0.19,-0.04 0.2,-0.04 0.19,-0.03 0.19,-0.04 0.19,-0.04 0.19,-0.03 0.2,-0.04 0.19,-0.03 0.19,-0.04 0.19,-0.04 0.19,-0.03 0.2,-0.04 0.19,-0.03 0.19,-0.04 0.19,-0.03 0.19,-0.04 0.2,-0.03 0.19,-0.04 0.19,-0.03 0.19,-0.04 0.19,-0.03 0.2,-0.03 0.19,-0.04 0.19,-0.03 0.19,-0.04 0.19,-0.03 0.2,-0.03 0.19,-0.04 0.19,-0.03 0.19,-0.03 0.19,-0.03 0.2,-0.04 0.19,-0.03 0.19,-0.03 0.19,-0.04 0.19,-0.03 0.2,-0.03 0.19,-0.03 0.19,-0.03 0.19,-0.04 0.19,-0.03 0.2,-0.03 0.19,-0.03 0.19,-0.03 0.19,-0.03 0.19,-0.03 0.2,-0.03 0.19,-0.03 0.19,-0.03 0.19,-0.03 0.19,-0.04 0.2,-0.03 0.19,-0.03 0.19,-0.03 0.19,-0.03 0.19,-0.02 0.2,-0.03 0.19,-0.03 0.19,-0.03 0.19,-0.03 0.19,-0.03 0.2,-0.03 0.19,-0.03 0.19,-0.03 0.19,-0.03 0.19,-0.02 0.2,-0.03 0.19,-0.03 0.19,-0.03 0.19,-0.03 0.19,-0.02 0.2,-0.03 0.19,-0.03 0.19,-0.03 0.19,-0.02 0.19,-0.03 0.2,-0.03 0.19,-0.03 0.19,-0.02 0.19,-0.03 0.19,-0.03 0.2,-0.02 0.19,-0.03 0.19,-0.02 0.19,-0.03 0.19,-0.03 0.2,-0.02 0.19,-0.03 0.19,-0.02 0.19,-0.03 0.19,-0.02 0.2,-0.03 0.19,-0.03 0.19,-0.02 0.19,-0.03 0.19,-0.02 0.2,-0.03 0.19,-0.02 0.19,-0.02 0.19,-0.03 0.19,-0.02 0.2,-0.03 0.19,-0.02 0.19,-0.03 0.19,-0.02 0.19,-0.02 0.2,-0.03 0.19,-0.02 0.19,-0.02 0.19,-0.03 0.19,-0.02 0.2,-0.02 0.19,-0.03 0.19,-0.02 0.19,-0.02 0.19,-0.02 0.2,-0.03 0.19,-0.02 0.19,-0.02 0.19,-0.02 0.19,-0.03 0.2,-0.02 0.19,-0.02 0.19,-0.02 0.19,-0.02 0.19,-0.02 0.2,-0.03 0.19,-0.02 0.19,-0.02 0.19,-0.02 0.19,-0.02 0.2,-0.02 0.19,-0.02 0.19,-0.02 0.19,-0.02 0.19,-0.02 0.2,-0.03 0.19,-0.02 0.19,-0.02 0.19,-0.02 0.19,-0.02 0.2,-0.02 0.19,-0.02 0.19,-0.02 0.19,-0.02 0.19,-0.02 0.2,-0.01 0.19,-0.02 0.19,-0.02 0.19,-0.02 0.19,-0.02 0.2,-0.02 0.19,-0.02 0.19,-0.02 0.19,-0.02 0.19,-0.02 0.2,-0.01 0.19,-0.02 0.19,-0.02 0.19,-0.02 0.19,-0.02 0.2,-0.02 0.19,-0.01 0.19,-0.02 0.19,-0.02 0.19,-0.02 0.2,-0.01 0.19,-0.02 0.19,-0.02 0.19,-0.02 0.19,-0.01 0.2,-0.02 0.19,-0.02 0.19,-0.02 0.19,-0.01 0.19,-0.02 0.2,-0.02 0.19,-0.01 0.19,-0.02 0.19,-0.02 0.19,-0.01 0.2,-0.02 0.19,-0.02 0.19,-0.01 0.19,-0.02 0.19,-0.01 0.2,-0.02 0.19,-0.02 0.19,-0.01"
                 style="fill:none;stroke:#000000;stroke-width:1.5;stroke-linecap:round;stroke-linejoin:round;stroke-miterlimit:10;stroke-dasharray:4.5, 7.5;stroke-dashoffset:0;stroke-opacity:1"
                 id="path44"
                 inkscape:connector-curvature="0" /></g></g><g
             id="g46"><path
               d="M 59.04,201.87 V 431.2"
               style="fill:none;stroke:#000000;stroke-width:0.75;stroke-linecap:round;stroke-linejoin:round;stroke-miterlimit:10;stroke-dasharray:none;stroke-opacity:1"
               id="path48"
               inkscape:connector-curvature="0" /><path
               d="m 59.04,201.87 h 5.57"
               style="fill:none;stroke:#000000;stroke-width:0.75;stroke-linecap:round;stroke-linejoin:round;stroke-miterlimit:10;stroke-dasharray:none;stroke-opacity:1"
               id="path50"
               inkscape:connector-curvature="0" /><path
               d="m 59.04,259.2 h 5.57"
               style="fill:none;stroke:#000000;stroke-width:0.75;stroke-linecap:round;stroke-linejoin:round;stroke-miterlimit:10;stroke-dasharray:none;stroke-opacity:1"
               id="path52"
               inkscape:connector-curvature="0" /><path
               d="m 59.04,316.53 h 5.57"
               style="fill:none;stroke:#000000;stroke-width:0.75;stroke-linecap:round;stroke-linejoin:round;stroke-miterlimit:10;stroke-dasharray:none;stroke-opacity:1"
               id="path54"
               inkscape:connector-curvature="0" /><path
               d="m 59.04,373.87 h 5.57"
               style="fill:none;stroke:#000000;stroke-width:0.75;stroke-linecap:round;stroke-linejoin:round;stroke-miterlimit:10;stroke-dasharray:none;stroke-opacity:1"
               id="path56"
               inkscape:connector-curvature="0" /><path
               d="m 59.04,431.2 h 5.57"
               style="fill:none;stroke:#000000;stroke-width:0.75;stroke-linecap:round;stroke-linejoin:round;stroke-miterlimit:10;stroke-dasharray:none;stroke-opacity:1"
               id="path58"
               inkscape:connector-curvature="0" /><text
               transform="matrix(0,1,1,0,41.76,249.33)"
               style="font-variant:normal;font-weight:normal;font-size:16px;font-family:Helvetica;-inkscape-font-specification:Helvetica;writing-mode:lr-tb;fill:#000000;fill-opacity:1;fill-rule:nonzero;stroke:none"
               id="text62"><tspan
                 x="0 10.672 16 27.552 31.712 45.040001 50.368 54.816002 64.160004 68.608002 79.279999 87.279999 90.832001 99.727997 108.624 117.52 125.52"
                 y="0"
                 sodipodi:role="line"
                 id="tspan60">P(D|M) = Evidence</tspan></text>
</g><g
             id="g64"><g
               id="g66"
               clip-path="url(#clipPath70)"><path
                 d="m 231.84,173.2 3.84,258"
                 style="fill:none;stroke:#000000;stroke-width:0.75;stroke-linecap:round;stroke-linejoin:round;stroke-miterlimit:10;stroke-dasharray:0, 3;stroke-dashoffset:0;stroke-opacity:1"
                 id="path72"
                 inkscape:connector-curvature="0" /><path
                 d="m 300.96,173.2 -3.84,258"
                 style="fill:none;stroke:#000000;stroke-width:0.75;stroke-linecap:round;stroke-linejoin:round;stroke-miterlimit:10;stroke-dasharray:0, 3;stroke-dashoffset:0;stroke-opacity:1"
                 id="path74"
                 inkscape:connector-curvature="0" /><text
                 transform="matrix(1,0,0,-1,234.11,190.43)"
                 style="font-variant:normal;font-weight:normal;font-size:12px;font-family:Helvetica;-inkscape-font-specification:Helvetica;writing-mode:lr-tb;fill:#000000;fill-opacity:1;fill-rule:nonzero;stroke:none"
                 id="text78"><tspan
                   x="0 8.6639996 15.336 22.007999 28.007999 31.344 35.220001 41.891998 44.556 51.228001 57.900002"
                   y="0"
                   sodipodi:role="line"
                   id="tspan76">Constrained</tspan></text>
<text
                 transform="matrix(1,0,0,-1,238.066,176.03)"
                 style="font-variant:normal;font-weight:normal;font-size:12px;font-family:Helvetica;-inkscape-font-specification:Helvetica;writing-mode:lr-tb;fill:#000000;fill-opacity:1;fill-rule:nonzero;stroke:none"
                 id="text82"><tspan
                   x="0 9.9960003 16.667999 23.34 30.011999 32.675999 36.012001 44.675999 47.34 54.012001"
                   y="0"
                   sodipodi:role="line"
                   id="tspan80">model wins</tspan></text>
<text
                 transform="matrix(1,0,0,-1,361.23,190.43)"
                 style="font-variant:normal;font-weight:normal;font-size:12px;font-family:Helvetica;-inkscape-font-specification:Helvetica;writing-mode:lr-tb;fill:#000000;fill-opacity:1;fill-rule:nonzero;stroke:none"
                 id="text86"><tspan
                   x="0 7.3319998 9.9960003 16.308001 22.308001 24.972 31.403999 34.068001"
                   y="0"
                   sodipodi:role="line"
                   id="tspan84">Flexible</tspan></text>
<text
                 transform="matrix(1,0,0,-1,353.266,176.03)"
                 style="font-variant:normal;font-weight:normal;font-size:12px;font-family:Helvetica;-inkscape-font-specification:Helvetica;writing-mode:lr-tb;fill:#000000;fill-opacity:1;fill-rule:nonzero;stroke:none"
                 id="text90"><tspan
                   x="0 9.9960003 16.667999 23.34 30.011999 32.675999 36.012001 44.675999 47.34 54.012001"
                   y="0"
                   sodipodi:role="line"
                   id="tspan88">model wins</tspan></text>
<text
                 transform="matrix(1,0,0,-1,130.83,190.43)"
                 style="font-variant:normal;font-weight:normal;font-size:12px;font-family:Helvetica;-inkscape-font-specification:Helvetica;writing-mode:lr-tb;fill:#000000;fill-opacity:1;fill-rule:nonzero;stroke:none"
                 id="text94"><tspan
                   x="0 7.3319998 9.9960003 16.308001 22.308001 24.972 31.403999 34.068001"
                   y="0"
                   sodipodi:role="line"
                   id="tspan92">Flexible</tspan></text>
<text
                 transform="matrix(1,0,0,-1,122.866,176.03)"
                 style="font-variant:normal;font-weight:normal;font-size:12px;font-family:Helvetica;-inkscape-font-specification:Helvetica;writing-mode:lr-tb;fill:#000000;fill-opacity:1;fill-rule:nonzero;stroke:none"
                 id="text98"><tspan
                   x="0 9.9960003 16.667999 23.34 30.011999 32.675999 36.012001 44.675999 47.34 54.012001"
                   y="0"
                   sodipodi:role="line"
                   id="tspan96">model wins</tspan></text>
<path
                 d="m 317.76,356.59 h 25.92"
                 style="fill:none;stroke:#000000;stroke-width:1.5;stroke-linecap:round;stroke-linejoin:round;stroke-miterlimit:10;stroke-dasharray:none;stroke-opacity:1"
                 id="path100"
                 inkscape:connector-curvature="0" /><path
                 d="m 317.76,339.31 h 25.92"
                 style="fill:none;stroke:#000000;stroke-width:1.5;stroke-linecap:round;stroke-linejoin:round;stroke-miterlimit:10;stroke-dasharray:4.5, 7.5;stroke-dashoffset:0;stroke-opacity:1"
                 id="path102"
                 inkscape:connector-curvature="0" /><text
                 transform="matrix(1,0,0,-1,356.64,351.56)"
                 style="font-variant:normal;font-weight:normal;font-size:14px;font-family:Helvetica;-inkscape-font-specification:Helvetica;writing-mode:lr-tb;fill:#000000;fill-opacity:1;fill-rule:nonzero;stroke:none"
                 id="text106"><tspan
                   x="0 10.108 17.892 25.676001 32.675999 36.568001 41.09 48.874001 51.981998 59.765999 67.550003 75.334 79.225998 90.888 98.671997 106.456 114.24"
                   y="0"
                   sodipodi:role="line"
                   id="tspan104">Constrained model</tspan></text>
<text
                 transform="matrix(1,0,0,-1,356.64,334.28)"
                 style="font-variant:normal;font-weight:normal;font-size:14px;font-family:Helvetica;-inkscape-font-specification:Helvetica;writing-mode:lr-tb;fill:#000000;fill-opacity:1;fill-rule:nonzero;stroke:none"
                 id="text110"><tspan
                   x="0 8.5539999 11.662 19.025999 26.025999 29.134001 36.638 39.745998 47.529999 51.422001 63.084 70.867996 78.652 86.435997"
                   y="0"
                   sodipodi:role="line"
                   id="tspan108">Flexible model</tspan></text>
</g></g></g></g></g></g></svg>