<?xml version="1.0" encoding="UTF-8" standalone="no"?>
<svg xmlns:rdf="http://www.w3.org/1999/02/22-rdf-syntax-ns#" xmlns="http://www.w3.org/2000/svg" xmlns:cc="http://web.resource.org/cc/" xmlns:dc="http://purl.org/dc/elements/1.1/" xmlns:svg="http://www.w3.org/2000/svg" xmlns:inkscape="http://www.inkscape.org/namespaces/inkscape" xmlns:sodipodi="http://sodipodi.sourceforge.net/DTD/sodipodi-0.dtd" xmlns:ns1="http://sozi.baierouge.fr" xmlns:xlink="http://www.w3.org/1999/xlink" version="1.1" viewBox="0 0 1164.9 1132">
  <desc>Sun of May, from the flag of Argentina</desc>
  <!--
	from http://commons.wikimedia.org/wiki/Image:Sun_of_May-Argentina.svg
	this file is in the public domain
-->
  <path d="m576.71 1130.2c-3.52-2.2-5.8-7-6.36-13.5-0.25-2.9-1.79-44.6-3.44-92.7-1.64-48.15-3.41-99.23-3.93-113.53s-1.42-41.07-2.01-59.5c-0.59-18.42-1.33-36.42-1.65-40l-0.58-6.5-2.38 6.5c-6.01 16.41-6.5 19.33-7.96 47.24-2.16 41.19-3.35 45.6-22.85 84.57-14.14 28.27-15.95 32.64-19.68 47.69-3.91 15.73-4.58 27.53-2.53 44.03 1.88 15.2 2.03 23.8 0.56 32-3.64 20.6-15.28 40.9-27.61 48.1-7.96 4.7-18.38 3-19.93-3.1-0.97-3.9 0.15-6.6 5.21-12.5 5.73-6.7 8.96-13.5 11.01-23.2 2.15-10.1 1.38-32.3-1.68-48.3-1.72-9-2.29-15.5-2.25-25.5 0.06-20.73 3.48-33.62 16.05-60.53 20.45-43.79 22.08-51.81 22.53-111.22l0.23-29.23-2.68 5.29c-2.31 4.57-56.97 121.46-110.9 237.19-9.23 19.8-18.19 37.7-19.9 39.7-4.92 5.9-12.56 6.7-17.49 1.8-1.61-1.7-2.03-3.4-2.03-8.3 0-5.8 2.33-12.3 32.17-89.73 35.63-92.49 66.59-172.9 75-194.83 3.03-7.88 5.3-14.53 5.05-14.77-0.6-0.6-14.44 15.56-18.34 21.42-1.71 2.58-6.34 11.65-10.27 20.16-17.5 37.86-23.07 45.01-58.12 74.61-18.77 15.85-29.84 27.38-38 39.57-8.67 12.98-10.23 16.42-16.02 35.44-5.62 18.48-10.02 27.42-18.7 37.93-17.52 21.3-43.4 31-52.31 19.7-2.51-3.2-2.51-7.3 0.01-10 1.09-1.1 5.17-3.8 9.06-5.8 16.21-8.5 26.02-25.48 34.95-60.36 5.57-21.79 7.76-27.47 15.26-39.57 7.83-12.64 16.24-22.1 33.4-37.59 21.19-19.13 27.9-26.2 34.56-36.41 7.97-12.21 18.29-32.8 25.82-51.5 3.44-8.52 7.79-18.58 9.67-22.35 1.89-3.77 3.26-7.03 3.04-7.24-0.21-0.22-18.83 16.36-41.37 36.85-22.53 20.48-74.15 67.39-114.69 104.24s-75.62 68.05-77.94 69.33c-7.59 4.17-15.92 1.04-17.34-6.52-1.36-7.27-11.08 3.25 199.41-215.81 13.21-13.75 23.87-25.15 23.68-25.34s-6.23 2.68-13.42 6.38c-11.78 6.07-14.44 7.97-26.82 19.24-25.21 22.94-37.37 31.67-53.24 38.24-4.13 1.71-18.16 6.64-31.17 10.96-25.98 8.61-35.76 12.83-49.33 21.27-12.04 7.49-20.95 15.39-29.6 26.25-9.57 12.01-14.15 16.75-21.9 22.68-13.85 10.59-31.34 16.88-47.21 16.98-10.34 0.07-16.48-2.29-19.757-7.6-2.633-4.26-2.573-6.82 0.237-10.09 1.94-2.26 3.45-2.77 10.47-3.56 20.92-2.34 36.56-13.91 58.83-43.51 6.24-8.31 14.26-17.82 17.82-21.15 7.92-7.41 23.7-18.03 33.11-22.28 6.47-2.92 11.93-5.02 42-16.15 6.05-2.24 13.15-5.16 15.78-6.48 14.3-7.2 30.5-20.21 55.22-44.34 10.45-10.21 20.7-19.85 22.77-21.42 2.08-1.57 3.6-3.04 3.39-3.25-0.22-0.22-12.27 3.93-26.78 9.22-84.53 30.81-214.54 78.19-240.05 87.48-28.115 10.23-32.445 11.46-39.161 11.12-3.983-0.21-8.673-5.14-8.673-9.12 0-7.59 3.818-10.85 22.06-18.81 6.292-2.74 33.264-14.66 59.944-26.47 26.67-11.82 71.67-31.73 100-44.26 97.38-43.05 114.3-50.59 116.9-52.07 2.39-1.36 1.83-1.43-6.9-0.89-13.68 0.84-24.16 2.96-35 7.06-44.95 17-55.53 18.78-95.51 16.07-30.43-2.07-40.99-2.1-53.99-0.14-17.47 2.63-27.29 5.52-38 11.19-31.52 16.68-38.037 18.73-59.504 18.68-12.984-0.02-15.346-0.31-22.591-2.7-13.295-4.4-19.409-10.29-19.409-18.7 0-3.85 3.908-7.99 7.549-7.99 1.452 0 5.808 0.96 9.679 2.14 5.889 1.79 8.61 2.05 16.656 1.58 16.388-0.95 29.881-6.32 57.92-23.05 14.78-8.83 22.44-11.93 39.2-15.91 9.01-2.14 11.51-2.26 49-2.28 42.67-0.01 41.98 0.05 63.52-6.05 14.65-4.15 23.73-7.44 41.98-15.24 7.7-3.3 17.6-7.23 22-8.75 4.4-1.51 8.42-3.13 8.95-3.6 0.52-0.46-1.86-0.84-5.37-0.84-5.64 0-149.16-4.54-267.73-8.47-47.638-1.58-50.153-1.92-54.373-7.28-4.17-5.3-1.3391-12.93 5.9366-16 2.9454-1.25 32.185-2.49 164.59-6.98 88.55-3.01 161.67-5.71 162.5-6 1.92-0.69-17.25-7.02-26.84-8.86-4.04-0.77-13.04-1.42-20-1.42-15.57-0.02-33.88-1.47-45.16-3.57-11.73-2.17-23.72-6.83-50-19.43-26.26-12.58-35.82-16.13-52.53-19.51-14.49-2.94-24.89-3.14-44.272-0.88-22.583 2.64-39.316-0.05-57.474-9.23-19.461-9.85-29.23-26.02-20.805-34.45 4.263-4.26 7.605-3.88 14.706 1.67 11.731 9.16 20.506 12.07 39.371 13.03 9.75 0.5 14.677 0.11 32.384-2.52 24.49-3.64 34.15-3.84 49.69-1.04 14.21 2.55 24.74 6.22 51.27 17.86 35.89 15.75 43.6 17.14 98.13 17.77 20.33 0.23 36.76 0.22 36.5-0.02-0.41-0.38-156.07-69.18-176.97-78.22-4.13-1.78-21.9-9.63-39.5-17.44s-39.071-17.29-47.707-21.07c-26.904-11.75-29.531-13.54-30.493-20.7-0.993-7.41 4.493-11.9 13.457-11.03 2.713 0.26 34.874 11.4 75.243 26.06 38.77 14.08 105.82 38.43 149 54.1 43.17 15.67 79.4 28.84 80.5 29.25 1.82 0.69 1.87 0.6 0.53-1.04-1.88-2.31-14.2-12.31-20.03-16.26-2.48-1.68-11.48-6.09-20-9.81-40.4-17.63-48.3-23.31-76.54-55.01-17.63-19.78-22.45-24.46-34.46-33.43-13.56-10.13-26.4-16.25-45.29-21.57-18.44-5.19-30.26-10.86-40.36-19.34-16.07-13.49-25.76-31.43-22.98-42.53 1.12-4.46 5.46-8.63 8.99-8.63 4.51 0 7.07 2.16 10.75 9.06 1.85 3.47 5.83 8.47 9.43 11.84 11.68 10.92 23.3 15.99 54.46 23.75 37.03 9.22 47.38 15.59 82 50.47 16.75 16.89 25.61 25.05 30.87 28.42 12.24 7.84 34.57 18.62 53.63 25.89 9.9 3.78 21.33 8.38 25.4 10.23s7.54 3.23 7.7 3.07c0.32-0.32-3.16-3.95-101.06-105.71-34.13-35.47-73.9-76.81-88.4-91.88s-26.98-28.9-27.75-30.74c-2.18-5.22-1.75-8.97 1.45-12.55 2.38-2.67 3.56-3.18 7.25-3.18 7.58 0.01 3.08-3.59 60.45 48.41 15.43 13.98 63.28 57.37 106.35 96.42 43.06 39.05 78.73 71.16 79.26 71.36 1.3 0.47-6.47-14.94-11.02-21.86-1.99-3.02-10-12.1-17.81-20.18-28.44-29.42-33.06-37-46.74-76.6-10.34-29.95-14.26-38.31-25.44-54.22-6.91-9.83-12.43-15.33-26.14-26.03-17.76-13.86-23.87-20.78-31.16-35.27-7.67-15.27-10.13-33.34-5.76-42.38 2.55-5.258 7.16-8.719 11.62-8.719 5.25 0 7.34 2.89 8.35 11.529 1.1 9.35 2 12.32 6.1 20.01 6.19 11.62 21.37 25.85 44.93 42.11 16.28 11.24 31.18 29.18 39.77 47.87 2.12 4.61 6.68 15.81 10.12 24.88 7.73 20.36 12.79 30.94 19 39.73 7.79 11.02 23.91 29.02 36.07 40.27 6.24 5.78 14.93 14.22 19.3 18.77 4.38 4.54 8.11 8.11 8.29 7.93 0.19-0.19-3.21-9.53-7.55-20.77-4.35-11.24-16.76-43.38-27.59-71.43s-31.87-82.5-46.74-121c-14.88-38.499-27.65-72.217-28.39-74.929-1.67-6.143-0.44-11.578 3.29-14.516 4.85-3.808 13.11-2.032 17.14 3.681 1.07 1.521 11.85 23.915 23.96 49.765 12.11 25.849 41.92 89.529 66.25 141.5 24.32 51.98 44.46 94.73 44.75 95 0.87 0.83-0.63-20.34-1.86-26.12-0.62-2.96-4.66-14.65-8.98-25.99-14.18-37.24-15.5-46.64-12.41-88.34 2-26.94 1.67-38.97-1.47-54.4-3.22-15.76-5.63-21.99-14.7-37.96-11.55-20.356-15.33-32.74-15.31-50.189 0.02-14.437 5.14-30.3 11.61-35.982 6.69-5.88 14.31-6.093 17.97-0.502 1.43 2.187 1.53 3.277 0.61 6.795-4.34 16.624-4.38 16.908-3.3 24.935 2.01 14.935 7.74 28.327 21.08 49.241 10.26 16.092 13.41 22.412 16.53 33.202 4.93 16.99 5.52 24.09 5.24 62.95l-0.26 35.86 4.69 15.68c4.5 15.02 11.34 33.07 15.94 42.08 1.19 2.33 4.78 10.74 7.97 18.69 3.2 7.94 6.01 13.79 6.26 13 0.25-0.8 1.19-23.5 2.09-50.45 0.89-26.95 2.94-86.35 4.55-132 1.62-45.649 3.2-91.549 3.52-102 0.32-10.449 1.06-21.127 1.63-23.729 2.63-11.991 16.33-14.593 21.4-4.064 1.93 3.995 2.22 9.375 5.39 99.793 0.61 17.6 1.98 56.3 3.04 86 1.05 29.7 2.43 70.43 3.06 90.5 0.63 20.08 1.45 38.29 1.83 40.47 0.66 3.87 0.78 3.66 4.86-8.65 4.62-13.91 4.89-15.91 6.27-46.58 0.96-21.23 3.14-36.24 6.63-45.54 0.86-2.31 8.26-17.92 16.44-34.7 15.39-31.54 18.03-38.72 21.46-58.19 1.85-10.49 1.84-18.21-0.04-33.271-0.82-6.579-1.49-15.129-1.48-19 0.04-23.18 13.36-51.227 28.55-60.129 7.95-4.656 18.49-3.022 20.03 3.104 0.98 3.892-0.15 6.585-5.21 12.499-9.71 11.339-12.82 22.929-12.08 44.988 0.28 8.169 1.43 19.739 2.64 26.499 3.37 18.86 3.63 28.02 1.19 42.29-2.73 15.93-5.29 23.19-17.36 49.19-17.78 38.31-18.73 43.01-19.66 97.02-0.35 20.63-0.56 37.65-0.46 37.83 0.1 0.19 1.06-1.61 2.14-4 1.07-2.38 22.99-49.33 48.7-104.33s52.79-112.99 60.18-128.88c22.69-48.765 23.23-49.619 31.85-49.619 6.52 0 9.66 3.096 10.22 10.081 0.41 5.152-1.1 9.404-30.71 86.418-17.13 44.55-33.33 86.63-36 93.5-15.03 38.68-46.03 119.94-46.03 120.66 0 0.46 2.25-1.63 5-4.66 10.98-12.08 15.88-19.49 22.49-34 17.97-39.44 23.96-47.39 56.51-75.01 36.13-30.66 47.49-45.92 56.53-75.99 5.1-16.94 7.5-22.65 13.28-31.59 11.62-17.97 32.24-32.41 46.27-32.41 5.59 0 10.01 1.87 12.36 5.22 3.63 5.18 0.74 10.24-8.44 14.79-9.78 4.85-17.62 13.34-24.02 26.03-4.98 9.85-7.59 17.47-11.98 34.96-4.94 19.63-7.68 27.07-13.53 36.71-9.64 15.88-18.21 25.39-42.47 47.18-14.55 13.06-22.72 22.28-29.61 33.39-7.43 11.99-16.56 30.41-22.05 44.5-2.51 6.44-6.77 16.41-9.46 22.13-2.69 5.73-4.75 10.56-4.57 10.74s18.97-16.61 41.75-37.3c22.79-20.69 60.56-54.99 83.94-76.21 23.37-21.22 56.34-51.2 73.26-66.61 16.92-15.42 32.67-29.08 35-30.36 5.72-3.14 11.17-2.49 14.99 1.79 3.23 3.62 3.45 6.95 0.82 12.54-1.22 2.6-40.48 44.18-111.88 118.5-60.5 62.98-109.87 114.64-109.7 114.81 0.49 0.52 21.69-10.41 26.14-13.47 2.27-1.56 10.37-8.56 18-15.56 29.95-27.49 36.33-31.1 80.87-45.86 25.14-8.33 38.96-14.42 51.5-22.67 11.83-7.8 16.73-12.35 28.5-26.47 6.05-7.26 13.97-15.69 17.61-18.74 14.03-11.73 32.93-19.07 49.43-19.17 10.2-0.07 14.4 1.25 18.7 5.79 4 4.23 4.5 8.35 1.6 11.76-2.1 2.39-3.5 2.87-10.6 3.67-20.9 2.34-36.5 13.87-58.91 43.6-13.03 17.28-20.82 25.03-33.77 33.57-12.68 8.36-21.54 12.32-52.06 23.29-21.76 7.81-29.04 11.57-42.5 21.88-12.28 9.41-18.54 14.97-35.5 31.56-9.35 9.15-19.21 18.51-21.9 20.82-2.68 2.3-4.66 4.19-4.39 4.19s12.15-4.23 26.39-9.39c37.98-13.78 252.54-91.94 261.94-95.43 12.3-4.56 19.2-4.64 23.5-0.26 4.8 4.73 3.5 12.45-2.8 16.91-1.5 1.1-34.1 15.81-72.3 32.69s-84.97 37.58-103.94 45.99c-18.98 8.41-52.44 23.22-74.36 32.92-21.92 9.69-41.05 18.29-42.5 19.11-2.44 1.37-1.9 1.44 6.86 0.87 15.83-1.04 23.75-2.87 43.03-9.96 38.6-14.19 48.21-15.59 89-12.96 31.57 2.03 45.01 1.7 61.41-1.49 13.4-2.62 23.6-6.28 34.1-12.21 14.2-8.06 20.4-10.81 30.2-13.51 12.5-3.39 32.7-3.86 43.3-1 14.7 4.01 21.7 9.65 22.7 18.15 0.4 3.78 0.1 4.79-2.1 7-3.1 3.14-5.7 3.22-14.9 0.43-5.8-1.78-8.6-2.05-16.7-1.6-16.2 0.89-29.7 6.28-58 23.15-10.2 6.09-17.2 9.5-23.9 11.65-20 6.42-20 6.41-63.64 6.45-42.08 0.03-42.63 0.07-60.68 5.08-14.66 4.06-26.62 8.31-43.78 15.57-9.05 3.82-20.53 8.39-25.5 10.15l-9.04 3.19 4.5 0.25c2.47 0.14 72.9 2.49 156.5 5.22 83.64 2.74 153.94 5.21 156.34 5.49 9.1 1.1 14.2 5.57 14.2 12.59 0 4.25-4.6 8.43-10.8 9.82-2.6 0.59-19.6 1.55-37.7 2.12-41.6 1.32-85.3 2.77-120.04 3.97-14.85 0.51-57.6 1.89-95 3.06s-69.13 2.37-70.5 2.67c-1.98 0.44-0.39 1.27 7.5 3.96 13.2 4.49 24.3 6.35 37.98 6.35 14.39 0 34.66 1.6 45.52 3.6 11.67 2.14 23.63 6.78 50 19.4 25.48 12.2 33.14 15.15 48.04 18.63 14.8 3.46 29 4.02 47.9 1.88 23.7-2.68 38.2-0.48 56.8 8.62 11.2 5.52 21.1 13.93 23.8 20.24 2.9 7.14 1.3 14.61-3.6 16.66-4 1.66-8.2 0.41-13.1-3.95-9.3-8.18-20.3-11.75-38.8-12.7-9.6-0.48-14.5-0.13-29 2.13-23 3.56-35.7 4.11-49 2.13-13.7-2.02-25.11-5.39-39.18-11.51-6.25-2.72-17.2-7.49-24.33-10.6-27.33-11.94-38-13.62-89.53-14.11-37.15-0.35-37.47-0.33-33.5 1.5 4.08 1.89 105.15 46.57 149.5 66.08 91.94 40.46 127.34 56.15 131.64 58.32 6.5 3.3 9.4 6.65 10 11.44 0.7 4.84-0.7 7.71-4.8 9.84-4.8 2.45-11.5 1.38-27.3-4.36-7.7-2.79-59.5-21.57-115.04-41.75-115.3-41.87-168.12-61.02-171-61.97-2.97-0.99 8.94 9.79 17 15.39 3.85 2.67 13.8 7.8 22.11 11.4 29.67 12.84 44.04 21.28 56.24 33.03 2.95 2.84 12.44 13.04 21.09 22.66 8.65 9.63 18.42 19.98 21.7 23 14.84 13.67 36.09 25.83 52.36 29.96 14.04 3.56 21.04 6.06 30.14 10.72 15.2 7.75 28.5 20.72 35.2 34.3 2.7 5.47 3.2 7.6 3.2 13.68 0 6.61-0.3 7.46-3 10.28-5.4 5.68-11.7 3.7-16.1-5.14-3.3-6.39-10.3-13.93-17.6-18.92-11.1-7.54-24.48-12.35-53.8-19.35-16.65-3.98-28.05-9.03-42.35-18.75-6.81-4.62-15.29-12.37-32.69-29.87-17.33-17.42-25.61-24.99-31.5-28.81-11.32-7.32-35.57-19.04-52-25.14-7.7-2.86-18.47-7.16-23.94-9.56-5.46-2.4-10.05-4.24-10.21-4.09-0.27 0.27 14.71 15.98 62.62 65.69 13.52 14.03 30.42 31.58 37.55 39.01 7.14 7.44 36.08 37.52 64.32 66.86 30.08 31.25 51.93 54.74 52.75 56.71 2.19 5.24 1.76 8.99-1.44 12.57-2.38 2.67-3.55 3.18-7.25 3.18-2.42 0-5.84-0.75-7.59-1.66-1.76-0.91-10.98-8.73-20.5-17.38-9.52-8.64-24.29-22.06-32.81-29.8-8.53-7.75-29.9-27.13-47.5-43.07-46.71-42.3-91.99-83.36-116.5-105.64-11.83-10.75-21.65-19.41-21.82-19.26-0.54 0.48 7.92 16.75 11.69 22.48 1.99 3.03 10.48 12.62 18.87 21.33 26.63 27.66 32.64 37.51 45.27 74.17 9.3 27.02 14.05 37.72 22.2 50.02 9.16 13.82 15.03 20.03 29.74 31.45 6.99 5.42 14.87 12.26 17.53 15.19 23.15 25.58 29.25 64.87 11.01 70.87-6.39 2.1-11.48-2.7-11.51-10.7-0.05-17.7-14.53-36.54-44.49-57.82-18.3-12.99-27.63-22.07-36.63-35.6-7.7-11.59-9.99-16.37-19.08-39.91-8.02-20.77-13.49-32.73-18.06-39.46-7.29-10.73-25.05-30.35-44.39-49.04-11.95-11.55-21.46-20.32-21.14-19.5 0.31 0.83 10.04 26.03 21.6 56 11.56 29.98 29.88 77.45 40.71 105.5 10.82 28.05 26.01 67.43 33.75 87.53 7.74 20 14.4 38.2 14.8 40.3 0.95 5.1-0.51 10.1-3.72 12.6-4.83 3.8-13.1 2-17.13-3.7-1.08-1.5-19.97-41.2-41.99-88.23-22.01-47.02-44.35-94.72-49.64-106-5.29-11.27-17.15-36.6-26.35-56.28l-16.72-35.78-0.31 5.74c-0.62 11.53 2.27 23.9 10.76 46.14 14.29 37.43 15.73 47.55 12.55 88.18-3.21 40.91 0.32 64.93 12.72 86.63 10.13 17.7 11.77 21 14.22 28.4 6.38 19.2 6 39.3-1.04 55-3.09 6.9-7.64 11.4-13.25 13-4.74 1.5-8.78-0.1-11.09-4.2-1.29-2.3-1.32-3.3-0.21-7 3.57-11.9 4.23-17 3.18-24.6-2.05-14.7-7.83-28-21.2-49-10.58-16.5-14.17-24.2-18.1-38.79l-3.23-11.94 0.23-35.98c0.13-20.78-0.2-38.73-0.79-42.5-2.44-15.64-10.16-38.6-21.23-63.17-3.56-7.89-7.77-17.83-9.34-22.09-1.58-4.25-3.13-7.74-3.44-7.75-0.3 0-1.1 15.85-1.75 35.24-2.17 63.88-7.22 205.58-8.55 240.28-1.11 28.7-1.58 34.5-3.09 37.6-3.16 6.4-10.1 8.6-15.79 5.1z" fill="#fcbf49"/>
  <path d="m576.93 1130.3c-6.23-4.3-6.68-7.1-7.97-49.3-0.99-32.4-1.34-42.5-2.5-71-0.26-6.3-1.84-52.67-3.51-103-1.67-50.32-3.3-93.97-3.62-97l-0.58-5.5-2.4 6.39c-5.9 15.69-7.16 23.21-8.32 49.61-1.67 38.33-3.03 43.32-22.15 81.54-14 27.99-17.29 35.98-20.53 49.94-3.34 14.42-3.99 28.52-1.99 43.52 2.58 19.2 1.98 29.2-2.58 43.5-5.05 15.8-16.12 31.5-25.4 36-8.14 4-17.58 2.2-19.01-3.5-0.99-3.9 0.23-6.9 5.09-12.3 5.49-6.1 9.05-13.6 11.13-23.4 2.04-9.5 1.28-33-1.56-48.3-3.18-17.2-3.56-26.4-1.63-39.43 2.32-15.79 6.18-27.08 17.75-51.97 18.33-39.43 19.64-46.6 20.12-109.8 0.1-13.86-0.08-24.89-0.42-24.5-0.33 0.38-9.29 19.38-19.91 42.2-10.62 22.83-21.31 45.78-23.77 51-2.45 5.23-9.07 19.4-14.7 31.5-27.55 59.22-67.76 145-70.37 150.2-1.62 3.2-4.08 6.9-5.48 8.2-2.95 2.7-10.27 3.9-13.5 2.2-3.42-1.8-5.44-6.8-4.94-12.1 0.26-2.7 6-19 13.55-38.6 7.21-18.6 26.66-69.22 43.23-112.4 16.57-43.17 34.56-89.97 39.98-104 15.6-40.38 16.24-42.11 15.77-42.58-0.53-0.53-14.77 15.67-18.17 20.68-1.32 1.94-5.84 10.92-10.06 19.96-17.99 38.61-23.02 45.25-54.48 71.93-21.98 18.65-33.28 30.19-41.84 42.75-8.21 12.05-11.29 18.81-16.2 35.63-4.43 15.16-7.01 21.24-12.82 30.22-11.62 18.01-32.23 32.41-46.27 32.41-8.06 0-13.91-4.2-13.91-10 0-3.6 2.75-6.2 11.03-10.6 9.27-4.9 16.47-12.84 22.85-25.31 5.54-10.83 8.48-19.58 13.12-39.09 4.93-20.74 13.37-37.19 27.22-53.07 3.6-4.12 14.69-14.85 24.65-23.84 20.92-18.88 26.57-25.41 35.65-41.16 8.31-14.42 12.72-23.67 20.53-43.02 3.42-8.48 8.01-19.01 10.2-23.41 3.41-6.86 3.64-7.7 1.61-5.89-5.62 5.03-49.12 44.4-59.26 53.64-16.56 15.09-25.81 23.5-75.18 68.33-24.79 22.5-56.23 51.05-69.86 63.42-13.62 12.38-26.13 23.37-27.8 24.43-4.52 2.89-11.9 2.72-15.16-0.34-3.84-3.6-4.33-8.22-1.47-13.63 1.41-2.66 18.7-21.49 42.87-46.67 22.27-23.21 52.18-54.37 66.45-69.25 14.28-14.87 36.11-37.61 48.5-50.54 12.4-12.92 28.42-29.57 35.59-37 23.56-24.39 28.81-30 28.12-30-1.36 0-24.23 11.88-27.27 14.17-1.71 1.28-9.13 7.8-16.5 14.48-31.21 28.31-38.85 32.65-81.86 46.58-41.04 13.29-59.67 24.6-78.47 47.65-11.58 14.2-16.27 18.81-25.44 25.03-13.34 9.07-28.77 14.16-43.17 14.24-11.63 0.07-18.47-3.12-21.013-9.81-1.392-3.66-1.174-4.95 1.333-7.87 1.94-2.26 3.46-2.77 10.47-3.56 20.94-2.34 36.45-13.82 58.96-43.64 22.95-30.39 35.64-38.8 85.8-56.82 31.89-11.46 42.27-18.6 78.5-53.98 10.17-9.93 20.2-19.34 22.28-20.91 2.07-1.56 3.59-3.02 3.37-3.24-0.36-0.36-68.53 24.3-205.15 74.2-98.967 36.15-94.35 34.6-100.36 33.71-4.496-0.66-9.141-5.52-9.141-9.57 0-4.83 3.992-9.84 10.288-12.92 4.764-2.34 53.283-23.89 132.21-58.73 12.1-5.34 52.37-23.12 89.5-39.51 37.12-16.39 67.95-30.23 68.5-30.75 1.31-1.25-15.44-0.09-26.01 1.79-4.4 0.79-13.33 3.45-19.84 5.93-39.48 14.97-55.81 17.93-86.15 15.58-29.23-2.26-49.01-2.46-61-0.62-21.73 3.34-26.44 5.03-53.66 19.26-16.023 8.38-25.652 10.7-44.341 10.67-12.609-0.01-14.795-0.29-22-2.75-4.4-1.51-9.753-3.95-11.895-5.42-7.393-5.1-9.85-14.04-5.151-18.74 3.014-3.01 5.705-3.07 14.774-0.31 5.864 1.78 8.651 2.05 16.691 1.6 16.085-0.88 29.176-6.05 56.662-22.35 15.63-9.27 22.92-12.34 38.42-16.19 10.43-2.59 10.79-2.61 51.5-2.69l41-0.08 11-2.82c16.68-4.27 32.27-9.62 50.5-17.31 9.08-3.83 20.1-8.24 24.5-9.8 4.4-1.55 8.43-3.2 8.95-3.66s-4.43-0.87-11-0.92c-6.57-0.04-12.63-0.2-13.45-0.36-0.83-0.15-13.2-0.57-27.5-0.93s-31.18-0.89-37.5-1.18c-6.33-0.29-54.03-1.84-106-3.45-119.12-3.68-121.42-3.78-126.18-5.69-10.353-4.14-10.327-15.69 0.0419-20.03 3.8381-1.6 12.333-1.96 184.64-7.77 24.2-0.81 57.5-1.94 74-2.5s33.82-1.23 38.5-1.49c4.67-0.26 13.56-0.49 19.75-0.5s11.25-0.4 11.25-0.86c0-1.18-22.2-7.89-30-9.07-3.58-0.54-15.05-1.22-25.5-1.52-38.09-1.08-49.61-3.99-85.5-21.64-27.84-13.69-37.53-17.29-56.3-20.87-13.06-2.49-24.43-2.6-43.649-0.42-11.882 1.34-16.091 1.43-23.703 0.49-30.115-3.7-56.349-21.11-56.349-37.4 0-2.99 0.698-4.58 3.046-6.93 2.608-2.61 3.563-2.96 6.638-2.46 2.14 0.34 5.548 2.23 8.435 4.66 6.749 5.69 15.834 9.66 26.262 11.46 12.859 2.23 22.539 1.92 45.62-1.46 23.98-3.51 32.7-3.7 48.15-1.06 14.24 2.43 26.36 6.58 49.85 17.04 37.13 16.53 44.93 17.99 100.7 18.91 20.46 0.34 36.89 0.31 36.5-0.05s-29.5-13.34-64.7-28.83c-66.54-29.29-88.96-39.18-148.5-65.53-19.53-8.64-42.568-18.79-51.204-22.56-26.864-11.7-29.53-13.51-30.492-20.68-0.994-7.41 4.498-11.91 13.456-11.02 2.692 0.26 34.544 11.29 73.74 25.54 127.1 46.18 229.69 83.38 231.35 83.89 2.73 0.83-9.54-10.19-17.2-15.45-3.93-2.71-14.58-8.19-23.65-12.18-40.09-17.66-47.06-22.68-75.03-54.05-18.26-20.49-27.53-29.19-39.97-37.49-13.82-9.23-21.95-12.9-38.64-17.44-24.99-6.79-41.46-16.49-53.65-31.57-8.72-10.81-13.26-23.16-11.33-30.84 1.12-4.46 5.46-8.63 8.99-8.63 4.5 0 7.24 2.29 10.54 8.82 5.23 10.34 16.61 19.65 32.09 26.24 9.19 3.92 16.58 6.09 38.91 11.41 16.61 3.96 26.64 8.37 41.51 18.27 7.95 5.28 14.63 11.33 33.5 30.33 16.99 17.1 25.73 25.12 31.29 28.72 11.2 7.25 36.16 19.34 52.29 25.33 7.7 2.86 18.94 7.38 24.98 10.05l10.99 4.86-6.05-6.27c-3.33-3.44-17.47-18.18-31.43-32.76-13.96-14.57-31.48-32.8-38.94-40.5s-24.35-25.25-37.54-39c-13.2-13.75-30.06-31.3-37.49-39-21.74-22.56-34.66-35.97-50.94-52.88-8.41-8.73-15.92-17.37-16.68-19.21-2.19-5.23-1.75-8.98 1.44-12.56 2.39-2.67 3.56-3.18 7.25-3.18 2.43 0 5.76 0.71 7.41 1.58 1.65 0.86 11.12 8.92 21.04 17.91 9.93 8.99 41.88 37.92 71 64.29 29.13 26.37 59.48 53.9 67.46 61.16 47.28 43.09 79.54 72.14 79.81 71.89 0.5-0.46-7.73-16.45-11.48-22.33-1.87-2.93-9.13-11.25-16.13-18.5-30.29-31.34-35.06-38.98-48.08-76.93-10.57-30.81-14.97-40.29-25.76-55.46-7.63-10.71-12.95-16-26.56-26.43-17.32-13.26-24.64-21.82-31.88-37.28-5.15-10.99-7.18-20.03-6.76-30.14 0.28-6.74 0.78-8.75 3-12.1 3.55-5.366 8.91-7.958 12.97-6.276 3.62 1.498 5.86 5.566 5.88 10.646 0.03 9.69 5.75 22.15 14.97 32.62 7.64 8.67 15.36 15.22 31.02 26.32 15.51 11 21.88 16.83 29.91 27.36 10.84 14.23 14.04 20.51 25.24 49.5 11.44 29.63 14.62 35.22 31.17 54.76 7.36 8.69 51.68 52.83 51.68 51.46 0-0.23-3.64-9.83-8.08-21.32-4.45-11.5-12.51-32.37-17.91-46.4-5.4-14.02-18.69-48.45-29.53-76.5s-21.61-55.95-23.94-62c-22.74-59.067-30.51-79.551-31.36-82.701-2.21-8.224 2.41-15.799 9.64-15.799 6.32 0 10.49 3.762 15.25 13.756 2.29 4.809 22.61 48.124 45.16 96.244 22.55 48.13 49.33 105.28 59.51 127 10.18 21.73 20.26 43.1 22.4 47.5l3.89 8-0.53-11c-0.68-14.07-2.03-19.6-9.47-38.83-15.51-40.11-16.77-48.74-13.42-91.58 1.88-23.98 1.44-38.96-1.6-54.46-2.91-14.83-5.35-21.06-14.83-37.8-8.87-15.69-11.35-21.859-13.66-34.04-2.9-15.256-1.44-30.535 4.08-42.833 5.78-12.883 18.47-17.876 24-9.441 1.83 2.787 1.94 1.871-2.07 16.984-4.03 15.212 2.7 36.26 20.47 64 10.12 15.8 14.27 24.53 17.45 36.72 4.12 15.75 4.59 22.3 4.31 59.28-0.25 33.97-0.19 35.25 2.07 43.5 4.55 16.63 11.11 34.73 18.47 51 4.11 9.08 8.71 20 10.23 24.28 1.51 4.27 3.13 8.01 3.61 8.31 0.47 0.29 0.86-3.21 0.87-7.78s0.45-19.56 0.98-33.31 1.63-45.25 2.46-70c0.82-24.75 1.72-49.72 1.99-55.5 0.28-5.77 1.46-39.52 2.63-75 1.17-35.475 2.58-66.273 3.12-68.439 1.35-5.3814 6.65-10.561 10.8-10.561 4.43 0.00012535 8.67 2.7576 10.64 6.9271 1.71 3.6029 2.31 12.518 3.8 57.073 2.37 70.63 4.44 129.01 5.07 143 0.26 5.78 1.17 33.23 2.03 61 0.85 27.78 1.81 52.53 2.13 55l0.58 4.5 3.32-9c5.15-13.97 6.26-21.04 7.4-47 1.09-24.79 2.46-35.32 6.07-46.5 1.15-3.57 8.8-20.22 17-37 15.43-31.56 18.08-38.73 21.5-58.19 1.85-10.49 1.84-18.21-0.04-33.272-1.9-15.244-1.88-23.68 0.07-33.33 4.06-20.076 15.1-38.823 26.96-45.775 7.89-4.621 18.55-2.986 20.07 3.08 0.98 3.892-0.14 6.585-5.21 12.499-12.71 14.841-15.35 35.079-9.38 71.988 3.43 21.23 3.61 26.39 1.4 40.38-2.34 14.87-6.42 26.51-17.96 51.34-5.69 12.23-11.51 25.94-12.95 30.49-3.1 9.83-5.26 24.02-6.05 39.79-0.81 16.09-1.07 64.05-0.34 63.2 0.51-0.6 6.15-12.6 29.69-63.2 2.17-4.67 18.46-39.55 36.2-77.5s36.42-78 41.51-89c19.99-43.232 23.99-51.014 27.69-53.831 4.64-3.542 10.56-3.646 14.5-0.255 2.53 2.173 2.81 3.044 2.81 8.75-0.01 5.906-2.03 11.593-29.87 83.836-16.43 42.63-31.79 82.45-34.14 88.5s-6.85 17.75-10 26c-5.62 14.71-14.12 36.79-30.51 79.3-4.51 11.72-8 21.51-7.75 21.76 0.49 0.5 14.99-16.04 18.5-21.1 1.16-1.67 5.89-11.17 10.53-21.12 12.94-27.78 19.29-37.85 31.74-50.39 5.77-5.81 15.9-15 22.5-20.41 25.03-20.54 42.87-41.14 50.97-58.84 1.81-3.96 4.92-12.95 6.9-19.98 3.93-13.97 6.63-20.31 12.44-29.31 11.63-17.97 32.24-32.41 46.28-32.41 5.58 0 10 1.87 12.35 5.22 3.72 5.31 0.6 10.52-8.94 14.87-7.37 3.37-17.14 13.72-22.29 23.62-6.03 11.6-8.56 18.79-13.7 39.03-8.81 34.67-18.58 48.94-57.62 84.14-14.17 12.78-22.64 22.61-29.24 33.95-6.78 11.63-15.58 29.82-20.3 41.94-2.51 6.45-7 16.88-9.98 23.18-4.19 8.85-4.9 10.98-3.15 9.4 6.57-5.91 71.09-64.4 75.85-68.75 71.05-65.03 153.99-139.64 157.22-141.43 5.69-3.14 11.14-2.49 14.96 1.78 3.18 3.56 3.45 6.93 0.97 12.27-0.96 2.07-14.72 17.26-31.22 34.46-16.23 16.92-46.58 48.55-67.44 70.29-20.87 21.74-48.31 50.33-60.98 63.53-12.66 13.2-28.23 29.4-34.59 36-6.35 6.6-15.23 15.81-19.71 20.48-4.49 4.66-8 8.64-7.79 8.85 0.76 0.76 23.1-11.04 27.97-14.77 2.77-2.12 9.76-8.23 15.54-13.57 17.45-16.15 30.61-26.29 40.66-31.35 7.13-3.58 18.04-7.63 40.84-15.16 42.6-14.06 59.97-24.61 79.05-48 5.73-7.02 12.79-14.9 15.68-17.5 14.91-13.41 34.71-21.49 52.81-21.57 9.5-0.04 14 1.38 18.2 5.79 4 4.17 4.5 8.3 1.6 11.72-2.1 2.37-3.5 2.87-10.2 3.63-9.6 1.07-13.2 2.16-21.9 6.72-10 5.18-23.5 18.52-37.61 37.08-12.42 16.39-17.55 21.79-28.16 29.59-13.5 9.94-22.88 14.45-51.97 25.01-36.9 13.39-47.57 20.44-82.5 54.54-9.35 9.13-19.41 18.71-22.36 21.3s-5.09 4.71-4.77 4.71c0.58 0 67.69-24.38 217.67-79.07 42.6-15.55 79.4-28.57 81.7-28.93 11.1-1.78 18.4 6.11 13.7 15.06-2.2 4.26-5.8 6.19-37.4 20.19-15.7 6.92-46.3 20.45-68 30.06-21.77 9.61-47.42 20.95-57.04 25.19-9.63 4.24-35.28 15.58-57 25.19-21.73 9.61-48.28 21.35-59 26.08-10.73 4.73-19.95 9.01-20.5 9.52-1.13 1.03 14.14 0.14 24.5-1.42 3.57-0.54 10.1-2.26 14.5-3.84 4.4-1.57 13.85-4.95 21-7.52 30.83-11.07 42.51-12.58 78.51-10.14 38.96 2.63 53.63 1.86 74.53-3.92 8.9-2.48 11.7-3.73 33.5-15.1 15.8-8.25 26.1-10.81 43.5-10.82 14.1 0 21.1 1.37 31 6.04 6.7 3.16 10.5 7.91 11.2 13.86 0.4 3.78 0.1 4.79-2.1 6.99-3.1 3.15-5.7 3.22-14.8 0.45-5.8-1.75-8.7-2.04-16.7-1.64-16 0.81-29.4 6.12-58 23.07-14.5 8.6-24.3 12.62-40.1 16.34-6.5 1.53-13.1 1.78-49.04 1.88l-41.5 0.11-11.8 3.18c-16.73 4.51-33.9 10.5-50.7 17.69-7.97 3.42-18.78 7.74-24 9.61-5.23 1.86-8.6 3.49-7.5 3.61 1.1 0.11 24.05 0.89 51 1.73s54.62 1.75 61.5 2.04c6.87 0.29 54.84 1.89 106.54 3.56s96.3 3.49 99.1 4.05c15.1 2.94 15.1 18.88 0 21.79-2.8 0.55-13 1.26-22.6 1.59-9.7 0.32-44.5 1.46-77.5 2.52s-66.79 2.19-75.04 2.5c-21.09 0.79-64.38 2.21-109.5 3.59-21.18 0.65-38.85 1.49-39.27 1.86-1 0.89 21 7.83 28.77 9.08 3.3 0.53 10.95 0.96 17 0.97 14.68 0.01 36.03 1.66 46.5 3.59 11.71 2.16 23.69 6.81 50 19.4 24.62 11.77 32.44 14.91 44.54 17.88 18.4 4.53 29.8 5.09 52.1 2.55 22.5-2.55 38-0.16 55.9 8.64 20.7 10.11 31.1 26.4 22.5 35.02-4.4 4.43-9 3.7-15.8-2.52-8.5-7.68-25.1-12.56-42.6-12.56-4.5 0-17.4 1.35-28.6 3-24.1 3.52-32.7 3.7-48.5 1.01-14.7-2.52-24.57-5.87-48.19-16.38-39.22-17.45-45.47-18.65-100.85-19.33-20.9-0.26-37.78-0.25-37.5 0.01 0.27 0.27 10.4 4.86 22.5 10.2 12.1 5.33 29.65 13.08 39 17.2 29.36 12.96 175.04 77.14 197.44 87.02 33.1 14.58 34.8 15.62 35.8 23.03 0.9 7.41-4.5 11.91-13.5 11.02-2.7-0.27-32.5-10.58-68.2-23.55-35-12.69-101.57-36.84-148.04-53.67-46.48-16.83-85.57-31.06-86.88-31.62-4.37-1.87-3.31-0.19 3.73 5.86 11.13 9.58 18.16 13.85 33.9 20.6 39.2 16.8 48.97 23.81 76.65 54.99 17.55 19.78 25.6 27.43 37.72 35.85 13.51 9.39 23.37 13.97 40.37 18.73 16.15 4.52 26.15 8.67 35.05 14.6 25.2 16.76 38.5 45.58 25.2 54.87-5.3 3.72-10.4 1.2-14.7-7.26-7.8-15.44-27.1-26.99-57.04-34.15-23.75-5.67-28.32-7.06-37.59-11.45-17.97-8.5-28.23-16.75-54.23-43.62-10.85-11.21-20.1-19.76-25.65-23.71-11.11-7.9-36.53-20.43-57.23-28.21-8.91-3.35-20.16-7.9-25-10.12l-8.8-4.03 6 6.28c3.3 3.46 11.43 11.92 18.07 18.81 6.65 6.88 23.74 24.67 37.99 39.52 14.24 14.85 31.11 32.4 37.48 39s23.05 23.93 37.07 38.5c14.01 14.58 37.99 39.49 53.28 55.36 15.55 16.14 28.42 30.34 29.2 32.22 2.19 5.24 1.76 8.99-1.43 12.57-2.39 2.67-3.56 3.18-7.25 3.18-7.61-0.01 1.79 8-116.91-99.61-14.58-13.21-28.53-25.88-31-28.16-2.48-2.27-13.68-12.44-24.91-22.59-11.22-10.16-32.37-29.33-47-42.61-14.62-13.27-26.73-24.01-26.9-23.85-0.51 0.45 7.75 16.48 11.54 22.41 1.9 2.98 9.69 11.86 17.31 19.73 28.96 29.92 33.91 37.91 46.83 75.59 10.36 30.21 12.97 36.05 22.79 50.99 8.56 13 15.43 20.21 29.49 30.93 13.06 9.95 20.09 17.1 26.45 26.91 12.64 19.48 16.3 45.53 7.74 55.13-2.58 2.9-7.33 4.7-10.69 4.1-4.06-0.8-6.26-5.1-6.97-13.6-1.08-12.8-10.16-27.42-25.65-41.17-2.82-2.5-11.86-9.33-20.1-15.18-16.55-11.74-26.31-21.27-34.79-33.97-7.01-10.49-11.68-20.43-21.12-44.89-9.44-24.45-12.89-30.95-23.99-45.15-7.18-9.19-56.86-59.85-57.78-58.92-0.16 0.15 5.97 16.44 13.61 36.18 17.86 46.14 67.46 174.66 76.18 197.4 3.7 9.6 9.77 25.4 13.49 35 7.58 19.6 8.65 23.8 7.32 28.6-1.97 7.1-10.27 9.6-16.95 5.1-4.18-2.8-2.6 0.4-40.97-81.7-29-62.01-36.77-78.59-49.82-106.36-2.81-5.98-5.11-10.98-5.11-11.12s-3.29-7.18-7.32-15.64c-4.02-8.46-13.58-28.8-21.25-45.2l-13.93-29.82-0.29 5.82c-0.59 11.8 2.11 23.71 10.05 44.39 15.26 39.74 16.58 48.87 13.13 90.89-3.18 38.73 0.64 64.44 12.71 85.54 2.83 5 6.86 12.2 8.96 16 16.24 29.9 11.37 74.5-8.79 80.5-4.65 1.4-8.45 0.2-10.87-3.5-1.83-2.8-1.94-1.9 2.07-17 3.98-15-3.14-37.4-20.43-64-9.36-14.4-14.47-25.1-17.47-36.63-4.14-15.85-4.62-22.35-4.34-59.37l0.27-35-3.3-11.9c-4.34-15.63-9.92-30.7-18.18-49.1-3.7-8.25-7.98-18.37-9.51-22.5-1.53-4.12-3.09-7.84-3.46-8.26s-1.22 15.33-1.89 35c-2 59.29-8.11 231.26-9.01 253.76-0.67 16.9-1.18 21.7-2.61 24.6-3.13 6.4-10.37 8.8-15.57 5.2zm9.14-7.3c1.59-2.2 1.95-6 2.85-30.5 1.47-40 3.98-111.22 7.51-212.5 1.35-38.77 2.55-74.1 2.66-78.5l0.2-8-5.17-0.3c-4.81-0.28-5.16-0.15-5.16 2 0 1.26-1.13 26.84-2.51 56.83s-2.47 55.64-2.43 57c0.16 5.09-2.01 39.25-2.53 39.77-0.29 0.29-0.53-2.58-0.54-6.38 0-3.81-1.12-37.52-2.49-74.92s-2.49-69.46-2.49-71.25l-0.01-3.25h-5.27-5.27l0.29 7.25c0.16 3.99 1.4 39.43 2.77 78.75 9.29 268.2 8.11 241.3 10.71 244.6 2.37 3 4.4 2.8 6.88-0.6zm107.17-12c8.65-6.8 12.59-32.7 7.79-51.3-2.58-10-4.54-14.4-13.57-30.2-12.27-21.5-16.63-39.29-16.58-67.5 0.02-9.07 0.48-21 1.03-26.5 1.32-13.28 1.31-39.65-0.02-47.07-1.7-9.5-4.61-18.58-12.95-40.43-8.57-22.47-9.57-27.15-10.65-49.69-0.45-9.37-1-13.31-1.85-13.31-0.66 0-3.29 0.29-5.84 0.64l-4.64 0.63v5.69c0 9.36 2.06 26.97 4.09 34.88 1.04 4.08 5.01 14.73 8.82 23.67 10.28 24.09 14.09 38.45 14.09 53.03 0 6.99-2.44 27.03-4.3 35.36-1.04 4.69-1.16 2.71-0.85-15 0.53-31.16-1.12-38.25-16.61-71.4-8-17.12-14.53-35.69-18.37-52.25-2.04-8.8-2.65-10.24-4.37-10.22-2.5 0.02-9.48 1.61-10.18 2.32-0.71 0.7 5.16 20.29 8.88 29.65 1.64 4.13 5.57 13.13 8.74 20 6.44 13.95 13.6 33.64 17.47 48 3.78 14.02 4.58 25.35 3.66 51.5-1.56 44.17 2.14 60.8 19.63 88.1 13.14 20.5 18.56 32.2 21.89 47.2 1.98 8.8 1.5 22.6-0.99 28.4-2.34 5.4-2.1 7.8 0.76 7.8 1.3 0 3.52-0.9 4.92-2zm-221.78-1c4.12-1.6 12.77-10.9 16.75-18 7.69-13.8 11.52-32.3 9.75-47-3.71-30.7-3.57-35.6 1.59-56.5 3.52-14.26 7.1-22.85 20.84-50 6.68-13.2 13.38-27.74 14.89-32.32 3.84-11.61 5.6-24.64 6.25-46.18 0.83-27.6 2.65-37.11 11.04-57.96 3.92-9.76 3.62-10.7-3.69-11.42l-4.57-0.45-4.14 11.67c-7.09 19.96-7.3 21.24-8.22 50.35-1.13 35.72-2.88 44.68-12.47 63.81-3.66 7.3-14.04 24-14.91 24-0.25 0 2.22-5.82 5.47-12.93 12.84-28.09 14.37-35.94 13.65-70.07-0.53-25.22 0.47-41 3.85-60.83 0.87-5.13 1.44-9.45 1.25-9.6-1.3-1.06-11.42-2.23-11.95-1.38-1.72 2.79-3.11 25.25-3.34 54.08-0.41 51.93-3.12 64.98-20.8 100.23-11.04 22-16.65 40.94-17.48 59-0.41 9.1-0.01 13.8 2.33 27.5 2.26 13.2 2.82 19.5 2.8 31.5-0.03 21.7-3.3 33.2-12.81 44.8-2.67 3.3-4.5 6.5-4.19 7.3 0.64 1.6 4.35 1.8 8.11 0.4zm-102.76-30.2c1.14-1.3 30.87-63.9 66.06-139.3 35.18-75.35 66.27-141.9 69.09-147.89 2.81-5.99 5.11-11 5.11-11.13 0-0.42-5.43-2.49-7.65-2.92-1.94-0.37-4.94 5.44-31.39 60.77-27.74 58.02-38.86 80.65-37.42 76.17 0.35-1.1 6.86-18.2 14.46-38 28.25-73.6 38.74-101.06 39.38-103.11 0.57-1.79-0.01-2.36-3.92-3.85-2.52-0.96-4.72-1.59-4.88-1.4-0.16 0.2-5.35 13.59-11.52 29.75-6.18 16.17-11.64 30.35-12.13 31.5-4 9.44-92.85 241.91-93.38 244.41-1.42 6.4 3.85 9.6 8.19 5zm435.22 0.3c0.57-1.1 1.04-2.9 1.04-4.1 0-1.1-22.77-61.1-50.59-133.29-27.83-72.17-54.23-140.66-58.66-152.21-4.44-11.55-8.19-21.16-8.35-21.36-0.15-0.19-2.37 0.44-4.91 1.42-3.32 1.26-4.51 2.22-4.19 3.35 0.24 0.88 12.43 33.5 27.07 72.51 14.65 39 26.47 71.07 26.28 71.26s-2.28-3.82-4.65-8.92c-4.23-9.09-36.02-76.84-52.69-112.25-4.66-9.9-8.65-18.18-8.87-18.4-0.87-0.87-9.54 3.17-9.1 4.25 0.27 0.63 9.56 20.49 20.66 44.14 11.11 23.65 31.13 66.4 44.5 95 62.73 134.2 73.66 157.1 75.78 158.7 2.93 2.3 5.41 2.2 6.68-0.1zm93.43-54c4.54-7.8 1.14-28.18-6.93-41.6-7.89-13.12-13.61-19.06-30.96-32.2-22.66-17.15-35.96-38.43-50.49-80.8-12.86-37.5-18-45.89-45.71-74.64-16.27-16.87-19.86-21.91-28.91-40.61-6.21-12.82-7.82-14.91-9.03-11.76-0.31 0.83-0.89 1.3-1.27 1.06-0.39-0.24-1.94 0.55-3.45 1.76l-2.74 2.19 5.13 10.5c8.73 17.86 14.79 25.96 32.51 43.5 22.77 22.53 29.53 32.24 36.38 52.24 3.44 10.04 7.48 27.19 6.62 28.06-0.3 0.29-0.54-0.03-0.54-0.71 0-2.06-8.6-23.39-12.92-32.04-7.94-15.92-14.56-23.68-40.89-47.96-12.65-11.66-21.21-21.22-32.33-36.1-6.38-8.54-8.12-9.77-9.88-6.99-0.52 0.83-0.96 1.14-0.97 0.69-0.02-1.24-6.01 2.59-6.01 3.85 0 2.45 14.33 18.2 36.83 40.46 35.85 35.48 43.05 45.75 56.24 80.11 9.11 23.72 15.25 36.46 22.37 46.39 8.58 11.96 14.57 17.65 30.56 29.02 14.29 10.16 28.55 21.92 30.25 24.96 0.48 0.86 1.36 1.26 1.96 0.89 0.61-0.38 0.82-0.22 0.47 0.34s0.28 1.85 1.4 2.86c3.31 3 10.75 15.63 12.91 21.93 1.11 3.2 2.01 7.7 2.02 9.9 0.01 2.3 0.27 5 0.58 6.2 0.88 3.3 4.46 2.5 6.8-1.5zm-621.15-3.6c12.88-5.2 27.62-19.2 35.17-33.5 1.89-3.57 5.53-13.47 8.09-22 2.56-8.52 6.44-19.12 8.62-23.55 8.33-16.9 24.5-35.5 47.88-55.06 32.82-27.46 35.94-31.36 53.49-66.89 14.28-28.9 17.21-33.28 33.24-49.63l7.48-7.63-4.54-3.12c-2.49-1.72-4.92-3.12-5.39-3.12-1.15 0-14.81 15.01-20.47 22.5-6.42 8.48-9.73 14.71-17.73 33.31-3.86 8.97-9.17 19.95-11.8 24.4-8.05 13.63-24.51 29.47-41.78 40.22l-6 3.73 8-7.26c24.72-22.42 32.89-33.95 43.51-61.4 9.9-25.61 14.53-35.02 26.6-54.12 6.3-9.98 7.35-12.09 5.39-10.88-0.55 0.34-1 0.19-1-0.34 0-1.01-6.46-5.16-8.03-5.16-2.55 0-14.99 24.48-24.12 47.44-9.29 23.36-22.24 47.21-32.35 59.55-6.01 7.36-9.59 10.87-24.5 24.08-22.35 19.81-35.54 35.81-42.9 52.04-1.61 3.57-5.18 15.24-7.92 25.94s-6.68 23.47-8.75 28.38c-7.2 17.03-18.29 30.37-29.89 36.07-7.26 3.6-8.27 4.9-5.37 6.9 3.23 2.3 7.85 2 15.07-0.9zm-91.61-62.79c1.17-0.66 23.41-20.56 49.43-44.21s67.59-61.41 92.38-83.91c24.78-22.5 50.02-45.45 56.08-51s19.22-17.5 29.23-26.56l18.21-16.48-3.18-3.27c-1.74-1.81-3.57-3.28-4.05-3.28s-11.08 9.13-23.55 20.29c-12.48 11.15-37.31 33.27-55.18 49.15-17.88 15.88-34.3 30.49-36.5 32.47l-4 3.59 3.49-4c1.93-2.2 8.91-9.62 15.53-16.5 6.62-6.87 21.68-22.62 33.48-35 11.8-12.37 26.86-28.12 33.46-35 6.61-6.87 14.72-15.34 18.03-18.81l6.01-6.3-3.27-2.95c-1.79-1.62-3.62-2.94-4.05-2.94-0.94 0-16.46 15.91-68.75 70.5-32.28 33.7-141.27 147.4-152.17 158.75-8.58 8.93-9.33 10.03-8.91 13 0.26 1.79 0.51 3.36 0.56 3.5 0.27 0.76 5.9 0 7.72-1.04zm804.17-2.34c0.4-4.12 1.66-2.72-58.7-65.37-27.82-28.87-62.05-64.42-76.06-79-28.42-29.56-69.33-72.06-84.45-87.73-5.45-5.65-10.43-10.27-11.07-10.27-0.63 0-2.4 1.3-3.92 2.9l-2.78 2.9 3.84 4.33c3.82 4.32 61.41 65.68 76.82 81.87 28.12 29.52 31.43 33.52 16.51 19.95-39.19-35.65-104.43-94.62-105.58-95.44-1.04-0.73-2.3-0.09-4.89 2.5l-3.49 3.49 29.2 26.5c16.06 14.58 43.84 39.76 61.74 55.97 17.89 16.21 42.2 38.24 54.03 48.97 11.82 10.72 28.02 25.41 36 32.64 7.97 7.23 23.05 20.93 33.5 30.45 30.49 27.77 32.19 29.13 35.84 28.78 2.73-0.27 3.2-0.74 3.46-3.44zm65.04-80.78c3.8-7.82-7.2-26.69-22.3-38.32-10-7.62-20.8-12.53-38.02-17.25-17.42-4.77-25.59-8.47-39.95-18.07-13.12-8.77-22.74-17.81-42.86-40.28-25.42-28.39-32.57-33.58-67.89-49.32-11.38-5.07-21.95-10.02-23.5-10.99-5.73-3.61-15.07-11.03-23.93-19.01l-9.11-8.2-3.19 4.52c-1.76 2.49-3.06 4.86-2.89 5.25 0.52 1.27 14.08 13.21 19.78 17.43 10.04 7.43 17.83 11.59 33.24 17.73 34.51 13.77 48.81 23.97 65.82 46.94 9.67 13.06 9.08 12.93-4.89-1.05-21.16-21.19-29.37-26.22-62.65-38.44-20.1-7.38-33.35-13.61-49.18-23.12-5.88-3.52-10.99-6.41-11.37-6.41-1.06 0-5.95 7.77-5.95 9.47 0 2.13 28.2 15.89 46 22.44 17.08 6.29 45.19 19.77 56.5 27.1 5.77 3.73 14 11.2 29.5 26.75 25 25.1 29.72 29.19 42.24 36.66 12.57 7.5 19.18 10.01 37.03 14.1 27.87 6.38 43.67 12.8 56.77 23.07 6.6 5.21 9.6 8.76 12.9 15.41 4 7.96 5.5 8.61 7.9 3.59zm-919.58-4.53c17.48-4.47 31.83-14.17 45.21-30.56 15.41-18.87 23.68-26.03 43.03-37.22 9.61-5.56 20.32-9.82 45.53-18.1 40.3-13.23 47.92-17.71 78.47-46.1 13.35-12.4 23.11-18.76 41.75-27.19 6.46-2.92 11.75-5.68 11.75-6.12 0-0.45-1.16-2.57-2.59-4.72-3.14-4.74-3.2-4.74-17.23 1.96-17.42 8.32-24.47 13.31-40.51 28.71-27.72 26.6-39.19 33.27-70.17 40.84-5.5 1.34-10.68 2.42-11.5 2.4-0.83-0.03 4.8-2.43 12.5-5.35 16.41-6.21 28.66-12.22 36.43-17.86 3.06-2.22 14.79-13.13 26.07-24.25 20.82-20.52 27.76-26.5 43.05-37.08 4.7-3.26 8.58-6.37 8.62-6.92 0.1-1.29-5.53-9.5-6.51-9.5-2.21 0-25.02 19.72-42.11 36.4-31.31 30.57-46.74 41.36-73.05 51.09-6.88 2.54-17.45 6.45-23.5 8.69-19.18 7.08-34.21 15.58-45.94 25.95-6.37 5.63-17.66 19.88-16.86 21.29 0.34 0.59 0.27 0.77-0.15 0.38-0.43-0.38-2.86 2.09-5.41 5.5-6.71 8.99-20.7 23.27-27.67 28.25-11.31 8.09-22.21 12.4-31.47 12.45-4.71 0.03-6.59 0.77-6.53 2.57 0.04 1.29 2.3 3.64 5.03 5.21 3.1 1.8 15.38 1.42 23.76-0.72zm477.74-84.64c5.22-0.75 11.39-1.6 13.7-1.9 6.94-0.88 26.62-6.24 37.04-10.08 11.58-4.27 31.97-13.9 38.15-18.02 2.42-1.6 6.14-4.07 8.27-5.48 2.14-1.41 3.65-2.87 3.36-3.25s-0.24-0.48 0.1-0.23c1.14 0.83 8.12-3.34 10.34-6.17 1.2-1.54 1.83-2.11 1.4-1.29-3.03 5.79 30.79-26.52 38.95-37.2 9.14-11.98 18.62-26.1 18.1-26.95-0.29-0.47-0.02-0.85 0.6-0.85 1.4 0 13.69-25.5 17.96-37.28 15.36-42.38 16.47-94.61 2.89-136.72-3.43-10.65-9.96-27-10.77-27-0.42 0-0.76-0.61-0.76-1.36 0-1.78-6.75-14.85-10.73-20.76-1.7-2.54-6.25-9.28-10.1-14.99-7.69-11.38-28.13-33.21-40.17-42.9-19-15.28-45.15-30.15-67.59-38.43-42.85-15.81-94.05-18.22-139.24-6.55-13.6 3.51-28.5 8.84-28.5 10.19 0 0.56-0.66 0.76-1.46 0.45-1.62-0.62-28.02 12.24-32.31 15.74-1.5 1.22-5.88 4.18-9.73 6.57-10.99 6.83-18.09 12.57-30.87 25-12.05 11.72-20.88 21.9-26.03 30.04-1.57 2.48-4.55 6.75-6.63 9.5-10.31 13.69-23.08 42.57-28.96 65.5-10.89 42.49-7.79 90.96 8.44 132 4.88 12.36 15.67 33.15 20.49 39.5 2.09 2.75 5.99 8.36 8.67 12.48 5.33 8.18 26.64 30.72 37.22 39.38 9.54 7.81 31.07 21.89 42.17 27.59 41.37 21.23 91.45 29.88 136 23.47zm-64.45-50.42c1.42-11 10.12-22.61 20-26.67 2.44-1.01 4.44-2.15 4.45-2.55 0-0.39 0.75-0.43 1.66-0.08 1.12 0.43 1.43 0.26 0.94-0.53-0.39-0.64-2.38-1.19-4.41-1.21-8.29-0.1-16.43-4.9-23.73-14-4.92-6.14-9.78-8.83-19.04-10.52-2.16-0.4-5.01-1.13-6.34-1.62-2.41-0.9-2.41-0.91 1.5-3.54 2.15-1.45 8.06-6.37 13.12-10.92 12.56-11.3 17.62-13.84 27.3-13.75 5.23 0.05 9.24 0.75 13.26 2.31l5.77 2.23 6.73-2.3c9.13-3.13 18.91-3.07 25.6 0.14 2.67 1.28 9.19 6.22 14.5 10.97 5.3 4.75 11.4 9.84 13.56 11.3l3.92 2.66-2.73 1.04c-1.51 0.57-3.34 1.04-4.07 1.04s-4.27 0.91-7.87 2.02c-5.07 1.57-7.4 2.97-10.36 6.23-10.93 12.06-15.72 15.32-24.06 16.4-5.06 0.66-9.26 2.26-6.07 2.32 2.61 0.05 14.98 6.82 16.55 9.06 0.77 1.1 1.84 1.74 2.36 1.41 0.53-0.32 0.85-0.22 0.71 0.24-0.13 0.45 1.17 3.75 2.89 7.32 1.73 3.58 3.4 8.53 3.73 11l0.59 4.5-2.37-5.7c-4.87-11.69-14-19.1-26.82-21.74-6.93-1.43-15.88-0.08-22.85 3.45-6.12 3.1-14.31 12.18-16.92 18.75l-2.08 5.24 0.58-4.5zm48.42-38.67c3.02-0.78 6.84-2.53 8.5-3.89 7.58-6.2 17.02-12.44 20.37-13.47 2.01-0.62 4.33-1.37 5.16-1.66 0.82-0.3 4.2-0.51 7.5-0.46 3.3 0.04 5.32-0.2 4.5-0.53-0.83-0.33-2.74-1.47-4.25-2.53s-2.75-1.68-2.75-1.38-1.86-1.48-4.14-3.95c-4.92-5.33-15.86-11.02-24.08-12.51-5.25-0.95-6.48-0.79-14.97 2.06l-9.25 3.1-9.32-3.09c-8.74-2.9-9.7-3.02-15.46-1.98-8.2 1.49-16.2 5.67-23.92 12.51-3.5 3.1-7.71 6.25-9.36 7.01-2.89 1.31-2.76 1.36 3.5 1.27 5.42-0.08 5.92-0.22 3-0.83-1.93-0.41-3.05-0.79-2.5-0.86s8.3-1.34 17.22-2.82c16.18-2.69 16.24-2.7 22-0.87 8.65 2.74 17.65 3.1 24.78 0.98 7.55-2.24 14.33-2.28 27-0.17 18.13 3.02 18.41 3.24 4.29 3.26-11.18 0.01-14.98 0.45-23.93 2.75-13.5 3.47-21.31 3.51-34.36 0.18-12.62-3.22-30.5-4.51-30.5-2.2 0 0.94 1.27 1.77 3.32 2.15 3.86 0.73 10.72 4.9 18.59 11.31 6.33 5.15 8.08 5.95 17.09 7.82 6.93 1.43 13.15 1.09 21.97-1.2zm-59.48-67.19c-11.05-5.02-15.07-18.66-7.78-26.42 3.25-3.46 8.07-5.74 12.01-5.68 2.72 0.05 2.7 0.09-1.01 2.05-3.69 1.94-7.7 7.03-7.71 9.76-0.01 2.98 3.45 8.33 6.35 9.83 6.92 3.58 14.54 1.02 17.65-5.93l1.72-3.84 1.26 3.03c1.57 3.8 7.78 9.49 12.75 11.68 5.84 2.58 16.67 2.35 22.51-0.49 5.01-2.43 12.74-10.31 12.78-13.02 0.01-0.89 0.85 0.21 1.86 2.43 3.22 7.09 9.61 9.66 16.48 6.62 3.05-1.34 4.79-2.95 6.03-5.57 2.92-6.15 0.71-10.92-6.89-14.93l-3-1.58 2.78-0.04c3.94-0.06 8.76 2.22 12.01 5.68 5.11 5.44 4.85 14.77-0.58 20.96-5.89 6.7-13.98 8.8-22.21 5.75-2.2-0.81-4.45-1.58-5-1.71-0.55-0.12-1.32-0.66-1.71-1.21-0.45-0.63-1.88-0.51-4 0.34-13.25 5.31-27.54 5.5-38.94 0.53-3.51-1.53-3.92-1.49-10.17 1.01-7.66 3.06-11.7 3.24-17.19 0.75zm18.01-30.21c-1.65-1.05-3.71-1.92-4.57-1.92-1.03-0.01-0.05-1.64 2.84-4.75 5.34-5.73 12.39-19.86 15.36-30.76 1.72-6.34 2.18-10.8 2.19-21.5 0.02-12.08-0.27-14.39-2.75-22-5.81-17.81-9.88-22.7-25.41-30.49-15.2-7.63-27.27-10.17-43.47-9.18-20.65 1.28-40.4 9.04-65.17 25.62-10.22 6.83-10.21 6.83-6.46 1.61 6.9-9.61 20.38-20.65 33.44-27.36 14.11-7.26 26.05-10.2 41.37-10.2 20.7 0 37.97 5.67 58.86 19.33 6.03 3.94 6.32 4.33 8.73 11.62 7.47 22.65 7.45 51.2-0.04 75.22-2.92 9.37-10.3 26.87-11.28 26.76-0.35-0.04-1.99-0.94-3.64-2zm47.47-7.61c-5.12-11.68-9.4-26.15-11.03-37.31-1.71-11.69-0.68-35.13 2.01-46.01 3.63-14.65 4.48-16.2 11.37-20.72 15.11-9.92 29.76-16.02 43.95-18.31 10.62-1.71 29.07-0.75 38.68 2.01 15.04 4.32 33.91 15.83 44.76 27.31 2.85 3.01 5.43 5.31 5.74 5.1 0.3-0.22 0.34-0.1 0.08 0.25s0.48 1.97 1.65 3.61l2.12 2.98-2.1-1.12c-1.15-0.62-5.15-3.22-8.9-5.78-3.74-2.56-7.36-4.66-8.05-4.66s-1.25-0.35-1.25-0.77c0-1.09-13.55-8.41-22.13-11.95-13.91-5.74-21.99-7.34-37.37-7.39-11.71-0.05-15.29 0.32-21.88 2.23-15.76 4.55-30.94 13.49-35.16 20.68-10 17.06-12.76 39.16-7.5 60.03 2.64 10.47 9.81 24.91 15.3 30.8 2.88 3.09 3.84 4.7 2.81 4.7-0.86 0.01-3.04 0.91-4.85 2-1.8 1.1-3.43 2-3.64 2-0.2 0-2.27-4.36-4.61-9.68zm-118.47-31.98c-12.68-2.7-27.96-9.87-36-16.88-3.43-2.99-3.33-2.97 9.56 2.44 23.42 9.82 43.26 12.08 59.44 6.78 4.4-1.44 12.05-4.95 17-7.8 11.89-6.83 15.47-8.31 16.83-6.95 0.76 0.76-0.07 2.26-2.88 5.17-8.31 8.62-21.47 15.69-33.22 17.87-7.82 1.44-22.42 1.15-30.73-0.63zm162.5-0.74c-10.42-3.19-12.29-4.04-18.79-8.49-7.18-4.92-13.66-11.57-12.74-13.06 1-1.61 3.59-0.6 15.7 6.16 15.64 8.72 23.69 11.11 37.33 11.06 12.85-0.05 23.9-2.61 40-9.27 13.34-5.53 13.45-5.56 10-2.53-17.42 15.28-50.16 22.66-71.5 16.13zm-162.94-12.15c-11.23-1.97-24.16-6.52-30.17-10.62-2.69-1.83-4.89-3.63-4.89-4 0-1.56 12.12-10.14 19.5-13.8 10.98-5.44 19.74-7.35 31-6.76 14.34 0.76 25.57 5.71 37.64 16.61l5.96 5.38-2.3 2.47c-8.55 9.17-36.02 14.36-56.74 10.72zm33.6-3.62c7.98-3.28 13.95-7.37 14.92-10.21 0.47-1.4-0.49-2.86-3.72-5.7-4.38-3.83-13.3-9.07-17.75-10.42-2.27-0.69-2.22-0.52 0.87 3.33 6.02 7.49 5.15 17.11-2.16 23.71-4.64 4.19-3.92 4.13 7.84-0.71zm-34.66-2.61c-4.56-6.17-3.8-15.22 1.8-21.43 3.43-3.79 3.52-4.03 1.2-3.34-9.03 2.68-23.05 12.03-22.6 15.07 0.32 2.2 1.25 2.89 10.6 7.9 9.99 5.35 11.91 5.73 9 1.8zm169.36 6.3c-12.32-2.23-21.85-6.17-26.16-10.79l-2.3-2.47 5.96-5.38c12.26-11.07 23.3-15.88 38.14-16.62 11.48-0.57 18.89 1.08 30.5 6.8 7.36 3.62 19.5 12.2 19.5 13.77-0.01 1.66-10.55 7.6-18.14 10.21-15.91 5.48-33.1 7.1-47.5 4.48zm4.02-3.98c-6.73-7.02-7.2-15.45-1.28-22.81 3.04-3.79 3.07-3.92 0.78-3.23-4.42 1.34-13.35 6.55-17.76 10.35-5.23 4.52-5.06 6.53 0.91 10.67 3.32 2.3 19.13 9.41 21.05 9.46 0.32 0.01-1.35-1.99-3.7-4.44zm35.39-3.43c9.79-4.92 12.55-7.11 11.7-9.31-1.45-3.79-13.97-11.78-22.47-14.34-2.32-0.7-2.23-0.45 1.19 3.33 5.61 6.21 6.37 15.26 1.81 21.43-2.74 3.7-1.41 3.51 7.77-1.11zm-256.34-7.21c-1.99-3.24 11.98-16.82 23.37-22.72 11.43-5.91 20.02-8.27 32.4-8.91 18.24-0.93 25.9 1.42 41.45 12.75 11.99 8.73 14.37 10.01 20.25 10.84 3.71 0.53 4.66 1.08 4.91 2.84 0.21 1.44-0.54 2.73-2.19 3.81-2.34 1.53-2.77 1.51-6.81-0.33-2.37-1.08-8.36-5.37-13.31-9.54-16.48-13.87-27.04-17.34-47.01-15.42-17.88 1.72-31.35 8.21-41.85 20.16-5.21 5.94-9.88 8.65-11.21 6.52zm293.07 0.34c-1.1-0.23-5.15-3.69-9-7.7-8.56-8.89-14.56-12.8-25-16.26-7.23-2.4-9.5-2.66-23.5-2.72-15.48-0.06-15.51-0.06-22.07 3.16-3.62 1.77-11.53 7.21-17.59 12.09-12.63 10.19-16.44 12.01-20.07 9.63-1.56-1.02-2.29-2.32-2.08-3.74 0.25-1.78 1.2-2.31 5.09-2.86 5.44-0.78 10.03-3.27 20.72-11.28 12.99-9.72 21.26-12.56 36.59-12.56 19.58 0 37.81 6.92 51.2 19.43 8.96 8.37 11.48 14.01 5.71 12.81zm-616.5 229.33c26.67-9.74 95.46-34.8 152.86-55.69 57.4-20.88 105.65-38.51 107.22-39.17l2.86-1.21-1.92-4.25c-1.06-2.34-2.31-4.25-2.77-4.25-0.47 0-33.87 11.7-74.23 25.99-40.35 14.3-73.52 25.84-73.71 25.65-0.19-0.18 31.51-14.42 70.43-31.63 38.92-17.22 71.3-31.58 71.96-31.91 0.88-0.46 0.7-1.72-0.71-4.86-1.04-2.33-2.33-4.24-2.86-4.24-0.54 0-40.72 17.59-89.3 39.09s-105.43 46.65-126.33 55.9-47.896 21.18-59.989 26.52c-28.486 12.56-30.887 13.82-32.292 16.91-0.772 1.69-0.821 2.58-0.14 2.58 0.571 0 0.783 0.41 0.473 0.91-0.861 1.4 1.506 2.07 5.947 1.71 2.2-0.19 25.825-8.31 52.501-18.05zm1001.4 16.86c4.3-4.29 0.5-6.88-29.6-20.19-65.3-28.83-91.59-40.45-126.84-55.95-20.63-9.07-48.98-21.56-63-27.76-79.07-34.94-88.13-38.8-88.99-37.94-0.5 0.5-1.57 2.51-2.39 4.47l-1.49 3.55 41.69 18.83c81.18 36.68 101.22 45.85 100.9 46.17-0.29 0.29-25.03-8.58-116.56-41.81-16.84-6.11-30.73-10.63-31.2-10.16s-1.54 2.51-2.39 4.52c-1.51 3.64-1.51 3.67 1.2 4.64 6.06 2.17 77.98 28.29 189.23 68.73 64.64 23.49 118.64 43.07 120.04 43.5 4.1 1.31 7.7 1.07 9.4-0.6zm-1044.9-97.97c9.184-0.94 21.582-5.58 37.001-13.84 16.69-8.94 24.69-11.73 42-14.66 14.69-2.48 33.63-2.83 56.5-1.03 19.36 1.53 40.39 1.34 49.66-0.43 10.03-1.92 23.8-6.21 42.22-13.15 18.27-6.88 24.82-8.22 43.62-8.94 8.25-0.31 15.67-0.83 16.5-1.15 0.82-0.32 1.75-0.53 2.07-0.48 0.31 0.06 0.11-2.41-0.45-5.48l-1.01-5.58-13.43 0.67c-20.16 1.01-30.32 3.36-52.18 12.06-10.44 4.15-23.37 8.72-28.74 10.16-13.11 3.5-30.38 4.23-46.26 1.96-19.91-2.85-19.56-3.23 3-3.26 30.12-0.04 34.89-1.15 70.06-16.35 20.08-8.68 34.36-13.4 54.29-17.93l9.84-2.24-0.67-4.52c-0.89-5.89-1.46-7.27-3.02-7.27-4.81 0-30.22 8.67-48.66 16.6-17.95 7.72-31.15 12.37-48.84 17.2l-13.5 3.68-40.5 0.09c-38.11 0.08-41.08 0.22-50.25 2.31-19.06 4.35-22.89 6.02-48.847 21.3-27.949 16.45-52.507 22.03-70.243 15.94-8.3-2.84-10.135-2.01-7.277 3.29 3.045 5.66 13.283 10.22 25.968 11.58 7.027 0.75 9.161 0.69 21.148-0.53zm1075.5-2.01c2.8-7.42-10.8-20.32-28.6-26.99-15.4-5.81-27.2-6.65-53.5-3.82-14.5 1.56-16.3 1.57-27 0.02-23.8-3.45-33.99-6.93-67.8-23.03-11.9-5.67-24.12-11.28-27.14-12.46-14.39-5.64-27.65-7.54-63.5-9.09-19.62-0.84-21.76-1.13-32.5-4.33-6.33-1.88-15.19-4.81-19.7-6.5l-8.2-3.07-1.15 5.54c-0.93 4.51-0.9 5.7 0.2 6.38 2.83 1.77 25.71 8.79 33.35 10.24 5.05 0.96 17.03 1.71 32.5 2.05 13.47 0.3 27.48 1 31.13 1.56 14.83 2.26 33.97 10.2 50.6 20.98 4.27 2.76 7.51 5.04 7.18 5.05-0.32 0.01-3.69-1.49-7.5-3.34-9.73-4.72-23.36-10.05-33.91-13.25-8.96-2.72-9.2-2.74-49.5-3.44-29.83-0.52-43.27-1.15-51-2.37-5.78-0.91-12.13-1.82-14.13-2.04l-3.63-0.38-1.12 5.59c-0.62 3.07-1 5.71-0.85 5.86 1.55 1.55 20.2 2.71 54.73 3.4 61.02 1.22 62.99 1.61 108 21.49 9.07 4.01 20.17 8.44 24.65 9.84 20.59 6.47 39.49 7.59 61.39 3.66 11-1.98 16.8-2.43 32-2.46 16.3-0.03 19.4 0.24 26.3 2.23 9.6 2.8 13.5 4.75 21.1 10.63 3.2 2.53 6.1 4.6 6.3 4.6s0.7-1.15 1.3-2.55zm-794.04-102.73v-5.27l-81.25-3.34c-44.69-1.83-81.44-3.5-81.67-3.72-0.23-0.21 0.45-0.38 1.5-0.36 5.78 0.08 159.12-5.27 160.17-5.59 0.77-0.23 1.25-2.2 1.25-5.16v-4.78l-8.25 0.29c-4.54 0.15-80.11 2.74-167.94 5.75-87.827 3-160.74 5.86-162.04 6.36-6.1086 2.32-5.5679 7.25 0.995 9.06 2.059 0.57 54.201 2.63 116.24 4.59 113.77 3.59 218.87 7.08 220.25 7.32 0.41 0.07 0.75-2.24 0.75-5.15zm646-1.15c116.54-3.91 158.24-5.61 160.24-6.56 4.6-2.22 4.6-5.83 0-7.95-3.5-1.58-6-1.7-96.2-4.61-89.71-2.89-224.23-7.29-235.16-7.68l-7.62-0.27 0.12 5 0.12 5 60.5 2.64c33.27 1.44 69.4 2.97 80.29 3.37 10.88 0.41 19.63 0.9 19.44 1.09-0.33 0.33-91.31 3.66-137.48 5.02l-23.25 0.69v5.11 5.11l10.75-0.34c5.91-0.19 81.62-2.72 168.25-5.62zm-643.56-43.2l0.69-4.13-8.81-3.22c-20.08-7.32-25.27-8.17-55.32-9.08-30.39-0.92-40.19-2.21-53.14-7.01-4.6-1.71-9.15-3.16-10.11-3.23s-1.75-0.42-1.75-0.77c0-0.36-2.81-2.14-6.25-3.96-7.16-3.78-18.75-10.94-18.75-11.57 0-0.44 0.42-0.27 15.53 6.39 11.3 4.98 26.29 9.81 34.61 11.16 3.5 0.57 20.63 1.04 38.07 1.04 26.32 0.01 34.39 0.36 47.5 2.09 8.68 1.14 17.2 2.22 18.92 2.41 3.06 0.33 3.15 0.22 4.25-5.24 0.61-3.07 0.98-5.72 0.81-5.89-1.49-1.49-20.63-2.65-54.69-3.33-56.14-1.1-64.86-2.58-95.7-16.18-35.2-15.51-44.94-18.65-64.8-20.87-10.52-1.18-11.95-1.1-32.7 1.89-23.053 3.32-38.998 3.97-50.801 2.07-8.706-1.41-19.302-5.18-24.24-8.63-2.218-1.54-4.871-3.25-5.896-3.8-1.026-0.54-1.864-1.31-1.864-1.71s-0.905-1.21-2.01-1.8c-1.714-0.92-2.153-0.7-2.993 1.51-1.435 3.77 0.742 8.07 7.113 14.04 6.928 6.49 14.206 10.59 25.411 14.33 12.531 4.18 23.04 5.14 38.479 3.51 25.001-2.63 27.121-2.68 38.801-0.97 22.7 3.34 34.75 7.39 63.2 21.27 40.35 19.68 46.46 21.18 94.5 23.25 22.82 0.98 29.8 2.41 51 10.39 10.03 3.78 9.61 3.93 10.94-3.96zm480.56 3.46c5.77-1.74 15.9-5.37 22.5-8.07s17.4-7.11 24-9.8c14.16-5.77 40.75-13.58 51.44-15.12 4.94-0.71 17.93-0.87 37.48-0.46 32.62 0.68 41.82 0.04 58.12-4.03 11.7-2.93 20.8-7.14 40-18.58 22.7-13.47 38.9-18.98 56-19.04 7.8-0.02 11.3 0.44 15.9 2.13 5.1 1.87 6.2 1.97 7.4 0.75s1.1-1.85-0.5-4.61c-3.8-6.58-18.1-11.17-34.8-11.18-17.4-0.01-27.6 3.07-49.9 15.04-14.3 7.7-20.8 10.12-35.5 13.11-14.2 2.89-30.46 3.95-45.64 2.96-7.15-0.47-22.68-1.15-34.5-1.51-26.2-0.81-33.32 0.21-55.97 8-16.37 5.63-36.5 12.5-39.03 13.33-2.26 0.74-5.18 0.97-21 1.69-7.98 0.37-15.89 0.87-17.58 1.12l-3.08 0.47 1 5.48 0.99 5.49h6.23c9.56 0 26.05-1.88 35.04-3.99 4.46-1.05 16.15-5.13 25.99-9.07 9.83-3.95 22.16-8.29 27.39-9.65 16.3-4.24 36.3-4.19 58.93 0.16 6.15 1.19 5.13 1.27-15.41 1.26-30.55-0.02-34.95 0.99-70.6 16.32-22.43 9.64-39.08 14.92-61.76 19.58-2.19 0.45-2.31 0.8-1.67 5.06 0.38 2.52 0.94 5.25 1.25 6.05 0.69 1.8 2.93 1.43 17.28-2.89zm-469.05-46.46c1.13-2.54 2.05-4.73 2.05-4.85 0-0.37-18.33-8.33-20-8.69-0.83-0.18-1.73-0.61-2-0.95-0.49-0.61-112.74-51.56-120.29-54.6-2.09-0.84-3.61-1.72-3.38-1.94 0.22-0.23 1.48 0.04 2.79 0.59 4.9 2.07 146.71 53.07 147.56 53.07 0.49 0 1.63-1.99 2.53-4.43l1.64-4.43-2.68-0.95c-2.63-0.94-32.14-11.66-200.17-72.71-124.23-45.13-115.18-42.15-118.43-38.91-4.699 4.7-0.964 6.81 57.93 32.74 42.83 18.86 249.36 110.14 250.2 110.58 0.11 0.06 1.13-1.97 2.25-4.52zm575.55-55.09c56.65-25.06 117.14-51.79 134.34-59.4s33.2-14.86 35.4-16.11c7.7-4.29 6.7-10.11-1.6-9.33-2.3 0.22-67.4 23.42-144.69 51.56-77.25 28.14-147.39 53.69-155.88 56.77-8.49 3.09-14.9 5.79-14.24 6.01 0.65 0.21 0.95 0.77 0.66 1.23-0.73 1.18 1.51 5.78 3.11 6.39 1.02 0.39 112.85-38.45 142.29-49.43 15.29-5.7-0.02 1.45-60.63 28.3-36.72 16.27-69.1 30.62-71.97 31.9l-5.2 2.33 2.02 4.62 2.03 4.61 15.68-6.94c8.62-3.82 62.03-27.45 118.68-52.51zm-556.2 16.54c1.49-2.03 2.7-3.92 2.7-4.21 0-0.85-9.42-9.42-17.25-15.69-10.72-8.58-18.89-13.13-35.94-20.01-33.74-13.62-46.98-22.63-62.27-42.4-12.97-16.75-12.61-17.33 1.83-2.96 21 20.9 28.29 25.34 62.29 37.93 19.93 7.37 32.61 13.35 48.78 23 6.02 3.58 11.22 6.52 11.56 6.52s2.1-2.11 3.92-4.68c3.16-4.49 3.22-4.75 1.44-6.12-4.4-3.38-32.14-16.19-46.86-21.64-17.08-6.32-45.81-20.3-56.5-27.49-3.58-2.4-14.38-12.19-24-21.75-29.54-29.34-33.44-32.85-43.13-38.88-13.6-8.45-22.24-11.85-41.56-16.35-27.21-6.32-41.22-11.91-54.02-21.53-7.08-5.32-10.9-9.82-14.64-17.24-3.3-6.54-4.47-7.26-6.91-4.24-6.2 7.64 7.71 30.46 26.12 42.86 9.14 6.16 16.64 9.28 33.64 14.02 27.18 7.56 43.4 17.62 67.14 41.6 8.33 8.42 15.31 15.75 15.5 16.29 0.2 0.54 4.32 5.29 9.16 10.54 16.67 18.09 28.71 26.04 60.7 40.1 9.62 4.23 19.75 9.06 22.5 10.74 5.8 3.55 16.22 11.95 25.5 20.56 3.57 3.32 6.75 5.73 7.05 5.37 0.31-0.36 1.77-2.32 3.25-4.34zm406.58 3.43c0.54-0.96 1.35-1.67 1.8-1.57 1.93 0.43 18.16-13.49 35.32-30.3 18.88-18.51 25.76-24.6 39-34.58 12.86-9.69 22.39-14.17 55.56-26.13 34.19-12.32 49.8-23.31 68.05-47.89 23.63-31.83 44.93-47.67 64.43-47.78 7.9-0.05 9.1-3.09 2.7-6.99-6.9-4.22-25.3-1.72-40 5.45-10.9 5.32-20.27 12.93-29.06 23.54-14.43 17.43-18.33 21.46-26.42 27.27-17.52 12.58-30.86 19.02-56.26 27.18-45.48 14.61-53.17 18.91-83.65 46.7-7.23 6.59-14.65 13.1-16.5 14.47-4.47 3.32-19.29 11.16-30.1 15.93-4.81 2.13-8.75 4.23-8.75 4.68 0 1.42 5.22 8.77 6.23 8.77 1.98 0 25.77-11.9 32.51-16.26 3.84-2.48 13.68-10.92 21.87-18.75 21.45-20.52 30.98-27.32 47.52-33.92 7.25-2.89 30.59-9.12 33.84-9.03 0.84 0.03-4.77 2.43-12.47 5.35-16.43 6.22-28.68 12.23-36.43 17.87-3.07 2.22-15.02 13.36-26.57 24.73-19.91 19.61-28.5 26.92-44.89 38.21-3.91 2.7-6.94 5.21-6.74 5.6 1.62 3.02 6.4 9.2 7.13 9.2 0.49 0 1.34-0.79 1.88-1.75zm-378.6-41.21l3.17-2.96-2.54-2.79c-2.99-3.29-34.8-37.09-46.38-49.29-36.97-38.94-58.69-62.17-58.39-62.44 0.2-0.17 19.71 17.23 43.36 38.68 61.58 55.85 72.64 65.76 73.42 65.76 0.38 0 2.13-1.49 3.89-3.3l3.2-3.3-12.76-11.52c-7.01-6.34-22.65-20.5-34.75-31.48-50.33-45.64-69.28-62.81-113.46-102.82-25.56-23.15-53.63-48.6-62.39-56.58-8.76-7.97-17.73-15.96-19.93-17.75-6.92-5.62-13.15-3.55-10.22 3.41 0.72 1.72 8.22 10.27 16.66 18.99 22.3 23.07 67.62 70.13 178.24 185.12 18.64 19.37 34.3 35.23 34.8 35.23s2.33-1.33 4.08-2.96zm395.77-45.29c25.44-26.54 51.7-53.88 58.35-60.76 6.66-6.88 17.28-17.91 23.62-24.5 6.34-6.6 21.64-22.5 34-35.36 12.36-12.85 23.38-24.51 24.48-25.91s3.06-3.49 4.36-4.63c1.3-1.15 10.41-10.53 20.25-20.84 14.9-15.62 17.89-19.25 17.89-21.7 0-3.39-2.08-4.95-5.67-4.26-2.18 0.42-35.1 29.3-51.79 45.45-3.27 3.17-6.12 5.76-6.33 5.76s-6.98 6.01-15.04 13.35c-40.19 36.57-78.49 71.39-124.47 113.13l-50.64 45.98 3.16 3.27c1.75 1.8 3.56 3.27 4.03 3.27s11.07-9.13 23.55-20.29c66.54-59.47 96.23-85.61 92.23-81.17-2.45 2.73-24.53 25.89-49.05 51.46-24.52 25.58-47.46 49.61-50.97 53.42l-6.37 6.92 3.39 2.83c1.87 1.56 3.7 2.83 4.08 2.83 0.37 0 21.5-21.71 46.94-48.25zm-363.54 17.24l4.38-3.01-1.54-3.74c-3.71-9.02-12.07-23.69-17.88-31.39-3.48-4.59-10.97-12.67-16.66-17.95-24.24-22.51-34.36-38.49-41.17-65.08-4.07-15.89-3.97-18.1 0.31-6.82 2.2 5.78 6.92 16.35 10.5 23.5 7.26 14.48 14.71 24 28.18 36 16.24 14.46 26.92 25.37 36.52 37.3 5.44 6.77 10.9 13.85 12.12 15.74 1.23 1.89 2.55 3.44 2.94 3.45 1.28 0.02 9.79-5.46 9.79-6.31 0-2.53-12.05-15.9-33.51-37.18-26.99-26.76-40.77-43-47.81-56.37-2.6-4.93-8.27-18.15-12.6-29.36-4.33-11.22-9.67-23.97-11.87-28.34-4.67-9.28-13.46-21.9-20.05-28.81-6.07-6.35-20.13-16.74-21.55-15.93-0.61 0.35-0.78 0.27-0.38-0.18 0.4-0.44-2.3-2.95-6-5.56-13.99-9.87-27.08-23-33.54-33.63-4.93-8.12-6.74-13.35-7.67-22.11-0.42-4.01-1.01-7.53-1.32-7.84-1.24-1.24-4.83 0.97-6.42 3.95-2.62 4.89-2.12 17.21 1.09 27.18 5.2 16.13 15.3 29.41 32.13 42.23 14.31 10.91 22.25 18.81 29.43 29.27 12.02 17.52 14.44 22.68 25.8 55 13.92 39.63 17.86 46.05 46.43 75.56 15.4 15.91 19.19 21.27 28.47 40.19 3.58 7.29 6.73 13.25 7.01 13.25 0.27 0 2.47-1.35 4.87-3.01zm289.31-1.74c5.16-8.1 13.74-26.06 20.19-42.25 10-25.13 22.37-47.79 33.25-60.93 3.17-3.83 10.37-11.15 16-16.26 5.63-5.12 10.12-9.68 9.96-10.13-0.15-0.46 0.17-0.56 0.7-0.23 1.92 1.19 23.76-21.89 30.6-32.33 9.1-13.89 11.74-20.27 16.89-40.77 6.38-25.37 10.55-35.81 19.16-47.97 5.4-7.61 13-14.53 19.2-17.46 2.6-1.24 5.5-3.03 6.44-4 1.56-1.6 1.57-1.85 0.09-3.08-0.91-0.76-3.84-1.31-6.71-1.28-9.92 0.12-24.93 9.67-35.18 22.37-7.75 9.6-11.78 17.95-16.93 35.07-2.56 8.53-5.95 18.2-7.52 21.5-3.42 7.18-11.04 18.78-17.66 26.89-2.64 3.24-5.25 6.61-5.8 7.5s-1.68 2.03-2.5 2.53c-0.83 0.51-4.43 3.69-8 7.07-3.58 3.39-13.35 11.89-21.72 18.89-27.13 22.72-31.64 28.82-50.63 68.62-9.34 19.58-13.04 25.02-27.02 39.68l-9.7 10.18 4.57 3.14c2.51 1.73 4.96 3 5.43 2.82 1.48-0.55 16.53-17.17 20.88-23.07 5.76-7.79 10.05-15.93 17.01-32.25 9.61-22.57 14.57-30.82 25.12-41.87 7.2-7.53 19.22-17.28 28.56-23.13l6-3.77-8 7.31c-26.65 24.35-31.56 31.63-46.63 69.17-8.74 21.8-15.26 34.25-28.23 53.95l-1.75 2.66 4.3 3.04c2.37 1.68 4.82 3.07 5.45 3.1 0.63 0.02 2.51-2.1 4.18-4.71zm-249.03-22.91c3.09-1.19 4.23-2.13 3.91-3.25-0.25-0.88-12.43-33.51-27.07-72.51-14.64-39.01-26.46-71.08-26.28-71.27 0.19-0.19 3.98 7.43 8.41 16.93 29.56 63.22 57.32 122.17 57.72 122.58 0.92 0.92 9.65-3.05 9.18-4.18-0.26-0.63-7.43-15.99-15.95-34.14-60.39-128.78-99.63-212.51-109.43-233.5-6.29-13.475-12.34-25.963-13.44-27.752-3.68-5.967-9.84-5.031-9.84 1.495 0 1.999 22.65 61.327 90.98 238.26 6.47 16.78 15.09 39.16 19.15 49.74 4.05 10.58 7.58 19.24 7.84 19.25 0.25 0.01 2.42-0.74 4.82-1.65zm262.9-150.1c32.01-83.46 58.46-152.69 58.78-153.86 0.94-3.435-1.07-7.38-3.77-7.38-3.64 0-5.93 3.309-13.52 19.5-30.02 64.07-46.22 99.11-46.43 100.44-0.14 0.86-0.57 1.8-0.96 2.09-0.39 0.3-15.63 32.47-33.87 71.5-18.24 39.04-36.93 79.03-41.54 88.88s-8.38 18.02-8.38 18.17c0 0.6 9.09 3.66 9.54 3.21 0.72-0.72 61.57-128.04 61.78-129.26 0.1-0.57 0.45-1.25 0.79-1.53 0.34-0.27 1.6-2.3 2.81-4.5 3.17-5.78 5.88-13.07-28.24 76-6.32 16.5-14 36.5-17.06 44.44-3.07 7.94-5.39 14.63-5.15 14.87 0.24 0.23-0.22 1.08-1.02 1.88-2.35 2.35-1.69 3.94 2.3 5.58 2.06 0.84 4.2 1.57 4.75 1.62s27.19-68.19 59.19-151.65zm-97.53 136.01c0.08-0.41 0.3-1.87 0.48-3.25 0.19-1.37 0.82-5.2 1.41-8.5 0.6-3.39 1.05-18.42 1.02-34.5-0.07-41.89 2.64-65.36 9.58-82.83 1.46-3.67 6.57-15.02 11.37-25.22 17.94-38.17 20.87-54.94 15.29-87.67-2.1-12.312-2.69-19.076-2.69-30.78 0-21.687 3.27-33.151 12.8-44.847 2.67-3.275 4.49-6.432 4.19-7.233-0.63-1.624-6.17-1.939-7.12-0.404-0.35 0.559-0.97 0.805-1.39 0.547-2.6-1.606-15.08 13.625-19.67 23.995-6.67 15.077-7.91 26.887-5.27 49.942 2.39 20.76 1.89 28.52-3.12 48.49-3.44 13.7-7.33 23.08-18.47 44.51-19.84 38.17-21.8 45.45-23.52 87.5-1.02 25.21-1.91 29.82-9.73 50.35-3.45 9.08-4.22 12.09-3.26 12.69 1.37 0.85 9.95 2.32 10.4 1.79 0.87-1.04 7.76-20.8 9.56-27.46 1.78-6.56 2.28-12.28 3-34.37 1.16-35.95 2.91-44.95 12.46-64 3.77-7.52 14.04-24 14.96-24 0.27 0-1.57 4.39-4.09 9.75-6.67 14.2-11.96 28.63-13.81 37.66-1.32 6.45-1.59 13.77-1.46 39.5 0.16 28.35-0.06 33.13-2.1 46.59-3.31 21.82-3.55 19.81 2.42 21.14 6.68 1.49 6.57 1.48 6.76 0.61zm-120.37-1.25c1.31 0 1.42-1.71 0.85-12.44-1.23-22.95-2.66-28.38-15.98-60.48-8.17-19.68-10.1-28.45-10.02-45.58 0.05-12.4 1.34-23.76 4.13-36.3 0.4-1.81 0.73 7.41 0.73 20.5 0 16.22 0.42 25.71 1.34 29.8 1.71 7.67 6.43 19.66 16.16 41 8.63 18.93 11.47 26.96 16.24 46.04 3.59 14.31 2.7 13.27 10.76 12.63 5.18-0.41 5.33-1.14 2.42-11.27-3.37-11.77-7.66-22.98-14.75-38.57-6.73-14.82-11.81-28.24-16.21-42.83-5.95-19.72-6.77-28.32-5.58-58.5 1.01-25.71 0.21-37.86-3.45-52.5-3.13-12.53-6.84-20.43-17.63-37.5-9.57-15.162-12.35-20.402-16.12-30.5-6.03-16.091-7.34-30.827-3.68-41.24 2.66-7.559 2.59-9.26-0.37-9.26-8.1 0-14.66 15.431-14.74 34.664-0.05 15.338 2.77 25.443 11.49 41.171 13.71 24.725 15.47 29.355 19.21 50.535 1.88 10.62 2.06 32.96 0.43 51.13-1.59 17.79-1.37 39.84 0.49 49.13 2.04 10.12 4.25 16.92 12.49 38.37 3.7 9.63 7.24 19.75 7.87 22.5 1.61 6.99 3.09 22.44 3.11 32.39l0.02 8.38 4.64-0.63c2.55-0.35 5.32-0.64 6.15-0.64zm48.2-8.25c-0.06-6.89 6.22-141.11 6.87-146.75l0.86-7.5 0.15 7c0.08 3.85 1.27 37.38 2.63 74.5 1.36 37.13 2.48 68.99 2.49 70.8l0.01 3.3 5.16-0.3 5.16-0.3-0.19-8.5c-0.1-4.67-1.07-33.47-2.14-64-1.08-30.52-2.87-81.6-3.99-113.5-4.68-133.75-5.01-140.86-6.61-143.3-2.19-3.3504-4.26-3.7747-6.67-1.3701-2.81 2.8131-2.91 4.6531-7.74 143.67-6.17 177.35-6.38 184.03-5.69 185.82 0.8 2.07 9.72 2.47 9.7 0.43z" fill="#843511"/>
  <metadata>
    <rdf:RDF>
      <cc:Work>
        <dc:format>image/svg+xml</dc:format>
        <dc:type rdf:resource="http://purl.org/dc/dcmitype/StillImage"/>
        <cc:license rdf:resource="http://creativecommons.org/licenses/publicdomain/"/>
        <dc:publisher>
          <cc:Agent rdf:about="http://openclipart.org/">
            <dc:title>Openclipart</dc:title>
          </cc:Agent>
        </dc:publisher>
        <dc:title>Sol de Mayo-Bandera de Argentina</dc:title>
        <dc:date>2006-11-03T07:08:00</dc:date>
        <dc:description>The sun from the flag of Argentina.\n\nFrom http://commons.wikimedia.org/wiki/Image:Sol_de_Mayo-Bandera_de_Argentina.svg</dc:description>
        <dc:source>https://openclipart.org/detail/1212/sol-de-mayo-bandera-de-argentina-by-liftarn</dc:source>
        <dc:creator>
          <cc:Agent>
            <dc:title>liftarn</dc:title>
          </cc:Agent>
        </dc:creator>
        <dc:subject>
          <rdf:Bag>
            <rdf:li>astronomy</rdf:li>
            <rdf:li>externalsource</rdf:li>
            <rdf:li>face</rdf:li>
            <rdf:li>flag</rdf:li>
            <rdf:li>heraldry</rdf:li>
            <rdf:li>sign</rdf:li>
            <rdf:li>sun</rdf:li>
            <rdf:li>weather</rdf:li>
            <rdf:li>wikimedia commons</rdf:li>
          </rdf:Bag>
        </dc:subject>
      </cc:Work>
      <cc:License rdf:about="http://creativecommons.org/licenses/publicdomain/">
        <cc:permits rdf:resource="http://creativecommons.org/ns#Reproduction"/>
        <cc:permits rdf:resource="http://creativecommons.org/ns#Distribution"/>
        <cc:permits rdf:resource="http://creativecommons.org/ns#DerivativeWorks"/>
      </cc:License>
    </rdf:RDF>
  </metadata>
</svg>